<svg width="222" height="176" viewBox="0 0 222 176" fill="none" xmlns="http://www.w3.org/2000/svg">
<g clip-path="url(#clip0_111_6626)">
<path d="M221.657 66.9056C222.691 60.6074 221.396 54.4804 217.769 48.5246C208.023 32.5632 193.894 27.0591 175.382 32.0123H174.852C172.494 27.7912 170.375 25.3121 165.308 20.7038C163.621 19.3042 161.88 17.9915 160.084 16.7656C149.67 9.58743 137.959 4.49297 125.6 1.76451C112.338 -1.24176 98.4961 -0.467845 85.6538 3.99792C83.1688 4.83173 80.6987 5.72508 78.1913 6.68544C67.142 10.9984 57.9059 16.4578 50.4833 23.0638C43.8828 29.0485 38.3513 36.11 34.1256 43.9461C30.6854 50.2459 27.9717 56.9142 26.0364 63.8235C24.9468 67.655 23.825 72.303 22.6708 77.7674C22.1299 79.6994 21.6865 81.6574 21.3425 83.6338C11.2234 87.4256 4.64904 94.5328 1.61929 104.955C-2.50992 119.14 1.22129 130.585 12.8129 139.29C19.355 144.219 26.6384 145.643 34.663 143.564C38.0285 142.678 40.9762 141.836 43.4835 141.025C51.3413 153.222 62.678 162.795 76.0347 168.511C101.228 179.554 126.555 178.387 152.017 165.012C176.394 152.217 190.869 131.908 195.441 104.084C196.165 99.8357 196.597 95.5424 196.732 91.2348C202.055 89.3042 206.441 87.7507 209.888 86.5745C211.799 84.6339 213.975 82.4476 216.418 80.0157C218.861 77.5837 220.602 73.2137 221.642 66.9056M184.001 33.5385C188.667 32.8157 193.44 33.253 197.896 34.8115C203.073 36.5693 207.723 39.5979 211.418 43.6186C220.587 53.5696 221.525 64.362 214.231 75.9955C212.254 79.1643 209.866 82.0581 207.127 84.6016C203.277 85.7431 199.416 86.9194 195.546 88.1304C183.506 91.9222 171.783 95.8704 160.375 99.9749L160.293 99.8409V100.005C154.895 101.94 149.485 103.943 144.062 106.013C125.22 113.201 105.998 119.354 86.4821 124.446C85.3478 124.877 83.3106 125.592 80.3629 126.605C69.5872 130.257 64.1446 132.134 64.0351 132.233C54.6921 134.739 45.068 137.67 35.1629 141.025C32.249 142.02 29.1221 142.223 26.1035 141.613C9.29312 138.327 1.63913 128.257 3.14156 111.402C3.57597 105.138 6.28488 99.246 10.7608 94.8306C12.5219 93.0737 16.5416 90.7609 22.82 87.8922C30.4914 84.3783 41.5259 80.0355 55.9234 74.864C82.0917 65.434 124.794 51.6613 184.031 33.5459M130.19 39.9558C131.561 40.6449 132.805 41.5612 133.869 42.6657C134.257 43.075 134.678 43.451 135.13 43.7898C110.752 52.1328 86.4448 60.6719 62.2068 69.407C62.5724 68.6625 62.9082 67.9181 63.2216 67.1736C68.7239 54.2198 77.9625 44.8941 90.9371 39.1964C104.464 33.2704 117.548 33.5186 130.19 39.9409M82.8852 128.533C84.2807 128.064 85.706 127.557 87.1388 127.044C92.1983 125.183 97.3051 123.527 102.459 122.078C121.996 116.569 141.1 110.46 159.771 103.749C157.358 116.688 149.749 126.614 136.943 133.528C122.516 141.345 108.228 142.176 94.0789 136.022C89.8758 134.304 86.0673 131.751 82.8852 128.518M15.7979 111.738C13.201 113.485 12.3926 115.765 13.3726 118.579C14.8651 122.813 17.8501 123.741 22.3275 121.363C22.9353 121.074 23.4442 120.613 23.7906 120.037C24.137 119.461 24.3056 118.796 24.2752 118.125C24.2006 112.819 21.3773 110.69 15.8054 111.738M18.8351 119.688C15.1934 119.028 14.5392 117.15 16.8725 114.053C20.4296 113.556 21.922 114.924 21.3499 118.155C21.1161 119.43 20.2828 119.942 18.85 119.688M195.434 53.6019C194.959 54.2742 194.674 55.0609 194.607 55.8804C194.54 56.6998 194.694 57.5223 195.053 58.2623C196.829 62.1286 199.787 62.9301 203.926 60.6669C206.478 59.2723 207.224 57.2449 206.165 54.5846C204.627 50.8176 201.675 49.825 197.307 51.6067C196.577 52.1629 195.948 52.8404 195.449 53.6094M203.344 53.7285C203.66 54.0273 203.906 54.3913 204.066 54.7951C204.226 55.1989 204.295 55.6327 204.269 56.0661C204.18 58.1357 203.028 59.1284 200.814 59.044C196.769 58.8504 195.956 57.148 198.374 53.9369C198.421 53.9142 198.471 53.8991 198.523 53.8922C200.108 53.7033 201.705 53.646 203.299 53.721L203.344 53.7285Z" fill="#6B4949"/>
<path d="M29.5959 101.94L39.118 98.7093L39.6777 100.347L35.4465 102.29L34.566 102.588L30.1556 103.578L29.5959 101.94ZM35.5136 111.745L35.133 110.613C34.0584 107.472 32.9764 104.293 31.8197 101.181L37.0434 99.4091C38.0061 102.521 39.0882 105.7 40.215 109.013L40.5284 109.928C41.6329 113.174 42.7149 116.353 43.8791 119.465L38.6554 121.237C37.6927 118.125 36.6106 114.946 35.5136 111.745ZM35.8644 120.351L39.9688 118.453L40.8493 118.155L45.3865 117.12L45.9462 118.765L36.4241 121.989L35.8644 120.351ZM45.3193 111.03C44.4611 109.623 43.2149 109.355 41.7075 109.869L38.0658 111.105L37.4837 109.4L40.8717 108.246C42.6552 107.643 43.4238 106.824 43.3641 103.087C43.3641 98.7763 44.0357 96.7811 45.6028 95.8655C47.364 95.2997 48.5281 95.8655 49.0355 97.3544C49.4758 98.6498 48.9013 100.012 46.8491 100.705C45.9917 101.012 45.0729 101.109 44.1701 100.987L45.6626 99.6251C45.3635 100.863 45.2231 102.134 45.2447 103.407C45.2447 106.638 44.4984 108.119 42.1477 109.199L41.9388 108.641C46.8193 107.152 49.5132 107.814 51.4385 111.12L53.8414 114.976L50.5953 114.931L55.819 113.658L56.3786 115.296C55.46 115.932 54.4548 116.433 53.3937 116.785C50.9758 117.604 49.4236 117.619 48.0281 115.296L45.3193 111.03Z" fill="#6B4949"/>
<path d="M56.3862 113.398L59.3264 111.909L59.8637 111.73L62.8486 111.224L63.4083 112.862L56.9235 115.058L56.3862 113.398ZM58.625 92.039L61.7293 90.9893L75.3407 108.797L70.1992 110.539L59.4831 95.8879L60.0876 93.9597L60.4532 113.837L58.6697 114.447L58.625 92.039ZM59.6473 105.633L67.759 102.878L69.0425 104.427L59.7518 107.576L59.6473 105.633ZM66.7516 109.951L69.9977 108.335L72.0051 107.658L76.0199 106.809L76.5571 108.38L67.2888 111.522L66.7516 109.951Z" fill="#6B4949"/>
<path d="M67.2065 89.1875L76.5122 86.031L77.0719 87.6688L72.5944 89.6863L71.7959 89.9617L67.7363 90.8253L67.2065 89.1875ZM69.1542 88.5249L74.2286 86.8126C74.7883 88.6589 75.5421 90.9817 76.057 92.478C77.3704 96.3493 78.4225 96.8183 81.0493 95.9249C82.7581 95.3563 84.3709 94.5331 85.8328 93.4831L86.37 95.039C84.4893 96.5515 82.3543 97.7186 80.0643 98.4859C75.7659 99.9749 72.9228 99.6101 70.9228 93.7362L69.1542 88.5249ZM77.8554 85.547L87.3327 82.3384L87.8924 83.9762L83.6015 85.9416L82.7134 86.2394L78.415 87.1849L77.8554 85.547ZM83.6686 95.7463L83.1761 94.302C82.1015 91.1529 81.0195 87.9815 79.8628 84.8696L85.0865 83.0978C86.0492 86.2096 87.1312 89.3811 88.2207 92.5897L88.6013 93.699C89.6759 96.863 90.758 100.034 91.9221 103.154L86.6984 104.926C85.7358 101.836 84.6537 98.6646 83.6686 95.776V95.7463ZM83.6686 104.107L88.0939 102.104L88.9819 101.799L93.5862 100.749L94.1384 102.387L84.2433 105.782L83.6686 104.107Z" fill="#6B4949"/>
<path d="M89.87 83.3361L89.3103 81.6982L94.1459 80.0529L94.8922 82.1523L94.4146 82.3161L89.87 83.3361ZM94.8474 90.3713C93.7728 87.2296 92.6908 84.0582 91.5341 80.9388L96.7578 79.167C97.713 82.2789 98.795 85.4578 99.8845 88.659L100.228 89.664C101.34 92.9397 102.422 96.1111 103.586 99.223L98.3622 100.995C97.407 97.883 96.3249 94.7115 95.228 91.5029L94.8474 90.3713ZM101.474 77.5738L104.243 78.5565L94.7355 81.7801L94.1459 80.0529L104.66 76.4944L106.66 81.7057L104.153 82.5543L101.474 77.5738ZM100.265 98.0095L101.011 100.109L96.1757 101.747L95.616 100.109L99.8248 98.1733L100.265 98.0095ZM104.392 88.391L97.7727 90.6244L97.1608 88.8228L103.78 86.5894L104.392 88.391ZM110.526 90.9892L112.108 96.3196L100.989 100.087L100.414 98.3892L110.518 94.9572L108.922 97.3991L108.019 91.8453L110.526 90.9892ZM103.064 87.4306L102.519 84.3485L104.257 83.7604L106.496 90.334L104.758 90.9222L103.265 87.9964L103.064 87.4306Z" fill="#6B4949"/>
<path d="M128.219 87.6466L128.757 89.2174L126.891 90.349L126.279 85.227L128.563 84.4826L130.055 89.2099C128.486 90.9297 126.496 92.2125 124.279 92.9323C118.488 94.8977 112.653 93.0067 110.227 85.8747C107.802 78.7427 111.623 73.5835 117.265 71.6702C119.318 70.9437 121.528 70.7766 123.667 71.1864L125.406 75.8765L123.115 76.621L120.436 72.1542L122.615 71.9457L123.19 73.6282C121.309 72.8093 119.921 72.6753 118.563 73.1369C115.354 74.2238 113.436 77.8345 115.578 84.0731C117.72 90.3118 121.294 91.9794 124.473 90.8999C126.058 90.274 127.38 89.1259 128.219 87.6466V87.6466Z" fill="#6B4949"/>
<path d="M126.779 70.9184L128.369 68.4541L129.511 74.4099L127.011 75.2586L125.182 69.5485L142.831 63.5928L144.853 69.2433L142.368 70.0845L139.645 64.6723L142.391 65.6698L126.779 70.9184ZM134.697 76.8741C133.622 73.725 132.548 70.5535 131.384 67.4417L136.607 65.6698C137.563 68.7817 138.645 71.9531 139.734 75.1618L140.115 76.2637C141.189 79.4351 142.271 82.6065 143.435 85.7184L138.212 87.4977C137.257 84.3783 136.175 81.2069 135.078 77.9982L134.697 76.8741ZM140.742 84.3188L145.435 83.1798L145.995 84.8251L135.697 88.3092L135.137 86.6713L139.428 84.7059L140.742 84.3188Z" fill="#6B4949"/>
<path d="M145.077 64.62L144.518 62.9822L149.353 61.3444L150.099 63.4363L149.622 63.6001L145.077 64.62ZM150.099 71.7893C149.01 68.603 147.913 65.3868 146.741 62.2303L151.883 60.4882C152.853 63.6448 153.95 66.8609 155.062 70.1142L155.308 70.8587C156.45 74.1939 157.547 77.3877 158.711 80.5368L153.57 82.2788C152.599 79.1148 151.51 75.9211 150.398 72.6752L150.099 71.7893ZM152.338 70.1142L155.622 68.9975C158.166 68.1339 158.92 66.4812 158.099 64.0691C157.353 61.8357 155.86 61.0912 153.51 61.8953L149.95 63.1013L149.353 61.3444L154.234 59.6842C159.331 57.957 161.927 59.3492 162.845 62.0367C163.592 64.2701 162.89 66.7045 158.219 68.9305L158.129 68.6551C163.562 67.1661 166.338 68.387 167.315 71.3426C168.188 73.9036 167.39 77.5961 159.913 80.1348L156.181 81.4004L155.577 79.6434L159.062 78.4597C161.838 77.5217 162.995 75.6308 162.114 73.0549C161.174 70.278 159.338 69.5484 156.346 70.5609L152.89 71.7372L152.338 70.1142ZM155.472 79.301L156.219 81.4004L151.376 83.0382L150.816 81.4004L155.025 79.4573L155.472 79.301Z" fill="#6B4949"/>
<path d="M186.606 59.9C189.001 66.9353 185.636 72.0498 180.636 73.7323C175.636 75.4148 169.905 73.4791 167.487 66.3695C165.069 59.2598 168.487 54.2123 173.457 52.5373C178.427 50.8622 184.18 52.7903 186.606 59.9ZM180.076 71.9604C183.061 70.9331 183.001 66.7491 181.278 61.7091C179.554 56.669 177.076 53.2594 174.054 54.2644C171.032 55.2694 171.129 59.4757 172.845 64.5455C174.561 69.6153 177.046 72.9878 180.076 71.9604V71.9604Z" fill="#6B4949"/>
<path d="M37.9763 58.4261L39.5882 55.4482L40.9016 56.1927L40.7523 56.4607L38.9987 59.0142L37.9763 58.4261ZM45.3492 60.5925L44.6477 60.2054C42.6851 59.1482 40.7001 58.0762 38.6777 57.0712L40.4464 53.8253C42.3344 54.9196 44.3194 55.9917 46.3194 57.0712L47.0133 57.4508C48.9834 58.5154 50.9684 59.5874 52.9833 60.5925L51.2221 63.8384C49.3565 62.744 47.3716 61.672 45.3716 60.5925H45.3492ZM39.5882 55.4482L43.3194 48.547L44.4313 49.1426L40.7001 56.0512L39.5882 55.4482ZM49.0879 53.6764L48.4013 53.3041C46.4387 52.247 44.4537 51.1675 42.4314 50.1699L44.2 46.924C46.088 48.0184 48.073 49.0904 50.0729 50.1699L50.7744 50.5496C52.7445 51.6142 54.722 52.6862 56.7444 53.6913L54.9758 56.9372C53.1102 55.8353 51.1252 54.7633 49.1103 53.6764H49.0879ZM43.3418 48.547L44.9611 45.5691L45.9835 46.12L44.797 48.9862L44.6552 49.2542L43.3418 48.547ZM49.4685 64.6424L50.6028 61.873L50.9012 61.3221L52.6698 58.7537L53.6923 59.3046L50.4908 65.1933L49.4685 64.6424ZM53.2594 57.6667L54.431 54.8303L54.7146 54.3092L56.4533 51.7854L57.4831 52.3363L54.2817 58.2176L53.2594 57.6667Z" fill="white"/>
<path d="M48.155 43.3059L47.2744 42.5614L49.5131 39.9855L50.6325 40.9682L50.4162 41.2214L48.155 43.3059ZM53.3787 45.7329C51.6997 44.2439 50.0057 42.755 48.2893 41.3628L50.7295 38.5859C52.3339 40.0749 54.0205 41.5638 55.7369 43.0527L56.7294 43.9163C58.0651 45.0852 59.7144 46.522 61.4307 47.9439L58.9905 50.7208C57.3861 49.2319 55.692 47.7429 53.9831 46.254L53.3787 45.7329ZM57.6846 43.9685L56.1175 45.7552L55.1995 44.9586L56.789 43.1421C58.0352 41.735 57.6472 40.1642 56.1547 38.8614C54.6622 37.5586 53.1698 37.6553 51.9758 39.0475L50.4833 40.797L49.543 39.9707L51.1026 38.1988C54.0279 34.8711 56.4682 34.6626 58.4084 36.36C60.3486 38.0574 60.7665 40.4992 57.7144 43.9685H57.6846ZM59.5128 47.8769L61.7964 45.7701L62.6694 46.5145L57.9532 51.8822L57.0726 51.1377L58.8711 48.6065L59.5128 47.8769Z" fill="white"/>
<path d="M58.1248 32.4515L57.4233 31.5284L60.1471 29.4588L61.0501 30.635L60.7814 30.8435L58.1248 32.4515ZM62.7963 35.8687C61.4456 34.0968 60.0799 32.3101 58.677 30.5755L61.6172 28.3421C62.8933 30.1213 64.2588 31.9081 65.6394 33.7171L66.0723 34.2829C67.4827 36.1218 68.8483 37.9085 70.2512 39.6431L67.2662 41.8765C65.9902 40.1047 64.6245 38.3179 63.244 36.5089L62.7963 35.8687ZM64.2887 26.3171L66.2588 26.3618L60.9008 30.4266L60.1545 29.4588L66.0723 24.9919L68.4602 27.8656L67.0423 28.9376L64.2887 26.3171ZM68.4528 32.593L64.7215 35.4294L63.9753 34.4169L67.7065 31.5805L68.4528 32.593ZM67.8931 39.5686L68.7961 40.7524L66.0723 42.822L65.326 41.8988L67.5648 39.7771L67.8931 39.5686ZM67.3857 32.2729L66.3783 30.4266L67.3633 29.6821L70.1916 33.4045L69.2139 34.1489L67.6319 32.6079L67.3857 32.2729ZM72.9079 32.9429L75.057 35.9952L68.7961 40.7524L68.0498 39.792L73.7362 35.4666L73.2437 37.3576L71.4825 34.0447L72.9079 32.9429Z" fill="white"/>
<path d="M69.5723 22.4088L72.3557 21.2027L72.9752 22.5577L72.6617 22.6917L70.0648 23.4733L69.5723 22.4088ZM71.2812 21.6643L72.4006 21.1804L75.5347 27.9848L78.2064 34.1491L76.9452 34.6925L71.2812 21.6643ZM71.4006 21.6122L74.7214 20.1753L82.4226 28.3124L81.7808 28.5879L80.9003 17.5027L82.1913 16.9444L83.348 31.9231L81.8555 32.5782L71.4006 21.6122ZM74.5945 34.4394L76.7437 33.1589L77.3033 32.9207L79.363 32.3847L79.8256 33.4492L75.0571 35.5114L74.5945 34.4394ZM84.2956 24.7017L81.1913 17.3687L84.4524 15.9616C85.2733 18.0164 86.1688 20.086 87.0643 22.1333L87.3776 22.8778C88.2806 24.9474 89.1761 27.017 90.1089 29.0048L86.7209 30.4937C85.9075 28.4092 84.9897 26.3544 84.3031 24.7092L84.2956 24.7017ZM82.751 16.7061L85.8255 15.3735L86.2881 16.4456L83.6539 17.9345L83.3405 18.0685L82.751 16.7061ZM84.8628 30.0098L87.2284 28.6325L88.1239 28.238L91.1088 27.3148L91.5715 28.3794L85.3404 31.0744L84.8628 30.0098Z" fill="white"/>
<path d="M89.9446 14.3758L96.5712 13.3336L96.7578 14.4801L93.7728 15.2841L93.1608 15.3809L90.1759 15.5223L89.9446 14.3758ZM92.6982 21.5376L92.5788 20.7411C92.2281 18.5449 91.8774 16.3264 91.4669 14.1376L95.0339 13.5793C95.31 15.7457 95.6608 17.9642 96.019 20.205L97.0339 27.6497L93.6833 28.1783C93.4072 25.997 93.0564 23.7785 92.6982 21.5376V21.5376ZM91.9519 27.2552L94.8474 26.4735L95.4593 26.3767L98.5786 26.2129L98.7577 27.3594L92.131 28.4016L91.9519 27.2552ZM94.8548 26.2873L100.944 13.9217L102.198 14.145L96.1011 26.4884L94.8548 26.2873ZM98.2875 13.0581L104.922 12.0159L105.138 13.1996L102.153 13.9962L101.564 14.0855L98.4965 14.2418L98.2875 13.0581ZM101.041 20.0785L100.041 12.7827L103.392 12.2541C103.675 14.4205 104.019 16.6465 104.377 18.8873L104.504 19.6765C104.847 21.8727 105.198 24.0912 105.608 26.2799L102.049 26.8457C101.795 24.6793 101.444 22.4533 101.071 20.0785H101.041ZM100.295 25.9374L103.28 25.1409L103.87 25.0515L106.937 24.8952L107.123 26.0417L100.489 27.0839L100.295 25.9374Z" fill="white"/>
<path d="M107.981 11.9563L114.698 12.2541L114.645 13.4155L111.787 13.609L110.854 13.5718L107.869 13.1177L107.981 11.9563ZM108.578 11.9563L112.533 12.1275L115.772 20.4507L113.989 24.0614L108.578 11.9563ZM110.817 23.4137C111.72 23.4584 112.481 24.0242 113.265 25.0962L111.847 26.0566L111.683 25.4982C112.996 24.8505 113.862 23.5551 114.593 21.895L118.645 12.4551L120.205 12.5221L115.391 22.766C114.197 25.3344 113.041 26.8308 111.108 26.7489C109.929 26.6968 109.011 26.1087 109.078 24.4559C109.245 24.1508 109.491 23.8959 109.79 23.7178C110.09 23.5397 110.431 23.445 110.78 23.4435L110.817 23.4137ZM116.682 12.3062L121.078 12.4998L121.026 13.6611L119.108 13.8696H118.533L116.63 13.4899L116.682 12.3062Z" fill="white"/>
<path d="M120.578 25.2898L123.056 25.6099L123.645 25.7588L125.6 26.6075L125.302 27.7316L120.28 26.4139L120.578 25.2898ZM125.876 13.1922L127.055 13.5049L125.309 20.7858L123.6 27.285L122.264 26.9351L125.876 13.1922ZM124.07 12.7231L127.011 13.4676L126.66 14.9119L126.324 14.8226L123.772 13.825L124.07 12.7231ZM126.003 13.2294L129.496 14.1451L130.533 25.3121L129.846 25.1335L136.018 15.8723L137.376 16.2222L129.018 28.6995L127.429 28.2826L126.003 13.2294ZM131.406 28.1188L134.122 28.491L135.07 28.7441L137.973 29.8385L137.682 30.9626L131.108 29.2429L131.406 28.1188ZM134.242 23.6222L136.339 15.9467L139.771 16.8401C139.152 18.9693 138.577 21.1431 138.01 23.3095L137.809 24.054C137.234 26.2427 136.66 28.4166 136.167 30.5532L132.593 29.6226C133.212 27.5083 133.772 25.327 134.242 23.6222ZM137.973 16.3785L141.212 17.2197L140.921 18.3439L137.936 17.8972L137.615 17.8079L137.973 16.3785Z" fill="white"/>
<path d="M79.0197 154.306L81.9301 155.051L82.5195 155.259L85.3254 156.622L84.93 157.708L78.6167 155.43L79.0197 154.306ZM82.4226 149.646L82.6987 148.901C83.445 146.809 84.1912 144.695 84.9375 142.588L88.4149 143.846C87.6089 145.871 86.8403 147.986 86.0642 150.122L85.7956 150.867C85.0493 152.974 84.2583 155.08 83.5568 157.195L80.0794 155.937C80.8928 153.904 81.6614 151.782 82.4375 149.646H82.4226ZM83.4822 142.052L86.6687 143.206L86.1612 144.598L85.8776 144.502L83.0792 143.139L83.4822 142.052ZM86.4672 157.009L89.4522 157.753L90.0119 157.954L92.773 159.302L92.3775 160.396L86.0717 158.11L86.4672 157.009ZM86.6463 143.206L94.0491 145.886L93.6163 147.07L86.2135 144.39L86.6463 143.206ZM89.8104 152.311L90.079 151.567C90.8252 149.475 91.6088 147.36 92.3177 145.246L95.7952 146.504C94.9893 148.537 94.2206 150.651 93.4446 152.78L93.1684 153.524C92.4222 155.616 91.676 157.731 90.9297 159.845L87.4523 158.587C88.2955 156.569 89.0641 154.463 89.8477 152.311H89.8104ZM94.0491 145.886L97.2355 147.04L96.84 148.135L93.855 147.39L93.5714 147.286L94.0491 145.886Z" fill="white"/>
<path d="M99.9145 160.135L102.899 160.88L102.735 162.026L95.646 161.014L95.8176 159.867L98.922 159.979L99.9145 160.135ZM98.3623 153.837C98.6832 151.604 99.0041 149.408 99.2578 147.196L102.922 147.725C102.549 149.877 102.228 152.095 101.9 154.343L101.713 155.646C101.459 157.396 101.153 159.562 100.892 161.781L97.228 161.252C97.6086 159.101 97.9295 156.875 98.2504 154.626L98.3623 153.837ZM97.534 148.12L97.6982 146.973L101.094 147.457L100.877 148.946L100.549 148.894L97.534 148.12ZM102.198 156.48L99.8399 156.138L100.012 154.939L102.399 155.281C104.258 155.549 105.384 154.366 105.653 152.408C105.922 150.45 105.049 149.281 103.213 149.02L100.914 148.693L101.094 147.457L103.429 147.792C107.825 148.425 109.325 150.353 108.959 152.899C108.593 155.445 106.758 157.128 102.153 156.48H102.198Z" fill="white"/>
<path d="M109.563 149.787V148.626L112.981 148.514L113.033 150.003H112.698L109.563 149.787ZM113.377 161.222L113.429 162.711L110.004 162.831V161.669L113.078 161.237L113.377 161.222ZM111.392 155.267C111.31 153.033 111.235 150.8 111.093 148.566L114.824 148.44C114.824 150.629 114.914 152.907 114.989 155.14V155.885C115.071 158.2 115.145 160.441 115.287 162.667L111.556 162.793C111.556 160.605 111.466 158.326 111.392 156.093V155.267ZM118.108 148.336L119.69 149.505L112.974 149.735L112.929 148.514L120.391 148.261L120.668 151.984L118.892 152.043L118.108 148.336ZM117.862 155.862L113.175 156.019V154.746L117.854 154.589L117.862 155.862ZM121.294 158.714V162.436L113.429 162.697L113.384 161.49L120.541 161.252L119.048 162.51L119.548 158.788L121.294 158.714ZM117.183 154.991L117.429 152.914L118.66 152.869L118.824 157.522L117.586 157.567L117.198 155.393L117.183 154.991Z" fill="white"/>
<path d="M120.996 148.626L123.929 147.83L124.346 149.251L124.011 149.348L121.302 149.743L120.996 148.626ZM122.794 148.135L123.973 147.815L126.1 154.999L127.869 161.476L126.54 161.84L122.794 148.135ZM122.921 148.135L126.406 147.182L132.876 156.331L132.197 156.517L132.943 145.417L134.294 145.045L133.301 160.039L131.719 160.471L122.921 148.135ZM124.257 161.289L126.563 160.322L127.152 160.165L129.264 159.927L129.57 161.044L124.563 162.406L124.257 161.289ZM135.249 153.026L133.227 145.328L136.652 144.397C137.174 146.549 137.764 148.723 138.353 150.882L138.562 151.626C139.159 153.8 139.756 155.967 140.398 158.073L136.839 159.041C136.316 156.882 135.734 154.723 135.249 152.996V153.026ZM134.861 144.881L138.092 144.003L138.398 145.127L135.577 146.229L135.257 146.318L134.861 144.881ZM135.055 158.349L137.6 157.321L138.54 157.068L141.607 156.57L141.913 157.686L135.361 159.466L135.055 158.349Z" fill="white"/>
<path d="M138.152 143.817L143.861 140.295L144.473 141.278L142.002 143.184L141.473 143.511L138.764 144.807L138.152 143.817ZM143.48 149.348L143.055 148.671C141.883 146.772 140.697 144.866 139.465 143.005L142.532 141.114C143.629 142.998 144.816 144.911 146.017 146.839L149.846 153.294L146.965 155.073C145.868 153.16 144.689 151.276 143.48 149.348ZM145.04 154.902L147.398 153.063L147.935 152.728L150.741 151.373L151.36 152.363L145.652 155.884L145.04 154.902ZM145.361 139.365L151.069 135.836L151.681 136.826L149.248 138.71L148.748 139.015L145.972 140.347L145.361 139.365ZM150.629 144.77L146.898 138.434L149.786 136.647C150.883 138.538 152.069 140.444 153.271 142.38L153.689 143.057C154.868 144.948 156.054 146.862 157.286 148.715L154.211 150.614C153.084 148.693 151.898 146.817 150.659 144.77H150.629ZM147.338 152.877L148.144 139.127L149.383 138.851L148.569 152.586L147.338 152.877ZM152.248 150.45L154.674 148.566L155.181 148.254L157.95 146.921L158.569 147.911L152.86 151.433L152.248 150.45Z" fill="white"/>
<path d="M150.659 135.97L155.293 131.064L156.144 131.861L154.42 134.154L153.786 134.831L151.547 136.767L150.659 135.97ZM151.077 135.531L153.786 132.665L162.211 135.642L163.793 139.365L151.077 135.531ZM156.606 129.672L159.591 126.478L160.442 127.275L159.353 128.86L158.95 129.285L157.457 130.468L156.606 129.672ZM161.211 141.36C161.83 140.705 162.756 140.504 164.084 140.616L163.882 142.313L163.353 142.067C163.718 140.653 163.3 139.149 162.517 137.511L157.98 128.22L159.054 127.088L163.681 137.414C164.852 139.998 165.233 141.844 163.905 143.251C163.099 144.107 162.047 144.42 160.845 143.251C160.738 142.929 160.718 142.584 160.787 142.252C160.857 141.92 161.013 141.612 161.241 141.36H161.211Z" fill="white"/>
<path d="M159.614 127.103L161.017 124.408L162.353 125.071L162.189 125.376L160.651 127.61L159.614 127.103ZM160.48 125.451L161.039 124.371L167.756 127.677L173.726 130.774L173.091 131.987L160.48 125.451ZM160.539 125.332L162.203 122.13L173.323 123.582L173.002 124.215L165.308 116.16L165.95 114.916L176.322 125.808L175.576 127.297L160.539 125.332ZM172.479 119.607L165.442 115.884L167.076 112.735C169.017 113.815 171.017 114.849 173.046 115.884L173.793 116.249C175.8 117.291 177.8 118.326 179.763 119.279L178.061 122.547C176.031 121.483 174.054 120.455 172.472 119.659L172.479 119.607ZM166.226 114.395L167.763 111.417L168.8 111.954L167.696 114.775L167.547 115.065L166.226 114.395ZM171.114 133.297L171.972 130.952L172.255 130.409L173.509 128.697L174.539 129.233L172.151 133.833L171.114 133.297ZM176.27 123.381L177.24 120.82L177.688 119.949L179.404 117.366L180.434 117.902L177.307 123.917L176.27 123.381Z" fill="white"/>
</g>
<defs>
<clipPath id="clip0_111_6626">
<rect width="222" height="176" fill="white"/>
</clipPath>
</defs>
</svg>
