<svg width="65" height="64" viewBox="0 0 65 64" fill="none" xmlns="http://www.w3.org/2000/svg">
<path fill-rule="evenodd" clip-rule="evenodd" d="M49.0618 18.8884C48.6963 17.9623 48.1447 17.121 47.4409 16.4167C46.7372 15.7124 45.8963 15.1601 44.9705 14.794C42.1437 13.6798 35.4097 13.9315 32.2759 13.9315C29.1422 13.9315 22.4174 13.6706 19.5814 14.794C18.6551 15.1599 17.8137 15.7122 17.1094 16.4164C16.4051 17.1207 15.8529 17.9621 15.487 18.8884C14.3728 21.7152 14.6245 28.4492 14.6245 31.5829C14.6245 34.7167 14.3636 41.4415 15.487 44.2775C15.8534 45.2031 16.4059 46.0438 17.1101 46.7475C17.8143 47.4513 18.6555 48.0031 19.5814 48.3688C22.4082 49.486 29.1422 49.2344 32.2759 49.2344C35.4097 49.2344 42.1345 49.4952 44.9705 48.3688C45.8965 48.0038 46.7376 47.4523 47.4414 46.7484C48.1452 46.0446 48.6968 45.2035 49.0618 44.2775C50.1882 41.4507 49.9274 34.7167 49.9274 31.5829C49.9274 28.4492 50.1882 21.7244 49.0618 18.8884ZM32.2759 42.6231C30.0906 42.6231 27.9543 41.9751 26.1372 40.761C24.3201 39.5468 22.9039 37.8212 22.0676 35.8022C21.2313 33.7831 21.0125 31.5615 21.4388 29.4181C21.8652 27.2747 22.9175 25.3059 24.4628 23.7606C26.0081 22.2153 27.9769 21.163 30.1203 20.7366C32.2637 20.3103 34.4853 20.5291 36.5044 21.3654C38.5234 22.2017 40.249 23.618 41.4632 25.435C42.6773 27.2521 43.3253 29.3884 43.3253 31.5737C43.329 33.0258 43.0457 34.4642 42.4917 35.8065C41.9377 37.1487 41.1239 38.3682 40.0972 39.395C39.0704 40.4217 37.8509 41.2355 36.5087 41.7895C35.1664 42.3435 33.728 42.6268 32.2759 42.6231ZM43.7673 22.6728C43.258 22.6728 42.7601 22.5218 42.3366 22.2388C41.9131 21.9559 41.5831 21.5537 41.3882 21.0832C41.1933 20.6126 41.1423 20.0948 41.2417 19.5953C41.341 19.0958 41.5863 18.6369 41.9464 18.2768C42.3065 17.9167 42.7654 17.6714 43.2649 17.5721C43.7644 17.4727 44.2822 17.5237 44.7527 17.7186C45.2233 17.9135 45.6255 18.2436 45.9084 18.667C46.1914 19.0905 46.3424 19.5884 46.3424 20.0977C46.342 20.4353 46.2751 20.7696 46.1454 21.0813C46.0158 21.393 45.8259 21.6761 45.5867 21.9144C45.3476 22.1527 45.0638 22.3416 44.7516 22.4701C44.4394 22.5987 44.1049 22.6644 43.7673 22.6636V22.6728Z" fill="#6B4949"/>
<path fill-rule="evenodd" clip-rule="evenodd" d="M32.276 24.4038C30.8565 24.4038 29.4688 24.8246 28.2885 25.6131C27.1081 26.4015 26.1879 27.5222 25.6443 28.8334C25.1006 30.1447 24.9579 31.5877 25.2342 32.98C25.5105 34.3724 26.1933 35.6516 27.1964 36.656C28.1995 37.6603 29.4778 38.3448 30.8698 38.6228C32.2618 38.9009 33.7049 38.76 35.0169 38.2181C36.3288 37.6761 37.4507 36.7574 38.2406 35.578C39.0306 34.3986 39.4532 33.0115 39.455 31.5921C39.4558 29.687 38.7 27.8595 37.3538 26.5116C36.0075 25.1636 34.1811 24.4054 32.276 24.4038Z" fill="#6B4949"/>
<path fill-rule="evenodd" clip-rule="evenodd" d="M32.5 1.49559e-07C26.2693 1.49559e-07 20.1785 1.84762 14.9979 5.30922C9.8172 8.77082 5.77939 13.6909 3.39499 19.4474C1.0106 25.2038 0.386731 31.538 1.60228 37.649C2.81784 43.76 5.8182 49.3733 10.224 53.7791C14.6298 58.1849 20.2431 61.1853 26.3541 62.4008C32.4651 63.6164 38.7993 62.9925 44.5557 60.6081C50.3122 58.2237 55.2323 54.1859 58.6939 49.0052C62.1555 43.8246 64.0031 37.7338 64.0031 31.5031C64.0035 27.3659 63.1889 23.2692 61.6059 19.4469C60.0228 15.6246 57.7024 12.1515 54.777 9.22614C51.8516 6.30073 48.3785 3.98024 44.5562 2.39721C40.7339 0.814174 36.6372 -0.000402984 32.5 1.49559e-07ZM53.6566 40.4623C53.4847 43.9122 52.6959 46.9661 50.1791 49.486C47.6623 52.0058 44.6053 52.8008 41.1554 52.9635C37.5981 53.166 26.9416 53.166 23.3873 52.9635C19.9375 52.7916 16.8928 52.0028 14.3637 49.486C11.8346 46.9692 11.0488 43.9122 10.8862 40.4623C10.6836 36.905 10.6836 26.2485 10.8862 22.6942C11.0581 19.2444 11.8377 16.1874 14.3637 13.6706C16.8897 11.1537 19.9467 10.3649 23.3873 10.2023C26.9416 9.9997 37.5981 9.9997 41.1554 10.2023C44.6053 10.3742 47.6592 11.163 50.1791 13.6798C52.699 16.1966 53.4939 19.2536 53.6566 22.7034C53.8591 26.2577 53.8591 36.905 53.6566 40.4623Z" fill="#6B4949"/>
</svg>
