<svg width="162" height="256" viewBox="0 0 162 256" fill="none" xmlns="http://www.w3.org/2000/svg">
<g clip-path="url(#clip0_107_472)">
<path d="M18.2119 60.2442C20.3892 60.4535 22.5665 60.1641 24.7438 60.275C27.1605 60.432 29.5656 60.7343 31.9461 61.18C36.3735 61.9025 40.6457 63.3745 44.5794 65.5329C48.4296 67.7186 52.366 69.7257 56.204 71.9298C60.0419 74.1339 63.8245 76.3258 67.7301 78.3452C71.5169 80.4068 75.4715 82.1431 79.5515 83.5354C83.9922 84.9391 88.5068 86.1336 93.0213 87.2295C95.3585 87.8082 97.7019 88.3644 100.051 88.898C101.177 89.1504 102.352 89.3289 103.465 89.6552C104.645 90.0434 105.801 90.4998 106.928 91.0221C111.139 92.7939 115.191 94.9238 119.038 97.3882C120.976 98.6196 122.858 99.9617 124.666 101.378C126.302 102.665 127.575 104.542 128.861 106.174C131.561 109.591 134.095 113.143 136.469 116.794C141.108 123.949 145.184 131.454 148.659 139.242C150.443 143.224 152.083 147.269 153.58 151.377C154.302 153.368 154.986 155.371 155.634 157.386C156.417 159.474 157.024 161.624 157.449 163.814C158.839 173.431 158.273 183.085 158.064 192.751C157.855 202.177 157.258 211.603 157.602 221.029C157.743 225.567 158.17 230.091 158.882 234.574C159.269 236.901 159.878 239.192 160.266 241.519C160.623 243.89 160.738 246.291 160.61 248.686C160.518 250.884 160.296 253.075 160.087 255.273L160.961 254.602C154.416 252.232 148.112 249.27 141.74 246.469C135.516 243.729 129.261 241.113 123.098 238.219C116.609 235.171 110.181 232.062 103.717 228.898C97.6219 225.936 91.213 223.664 85.0747 220.771C73.321 215.229 62.2192 208.075 53.2886 198.551C48.9583 193.898 45.0783 188.846 41.7009 183.46C40.0402 180.831 37.6292 178.578 35.6487 176.171C33.4468 173.499 31.3474 170.749 29.3505 167.921C21.7115 157.078 14.9951 145.042 13.0761 131.749C12.5958 128.392 12.4064 124.999 12.5103 121.609C12.5533 120.138 12.0429 118.845 11.6369 117.435C11.1531 115.76 10.6815 114.085 10.2223 112.411C8.40071 106.105 7.07629 99.6656 6.26126 93.1523C5.47631 86.752 5.71718 80.2674 6.97475 73.9431C7.71169 70.4783 8.81473 67.1018 10.2653 63.8705C10.7881 62.7131 11.5385 61.5802 11.7845 60.3242C11.9824 59.1353 11.9553 57.9198 11.7046 56.741C11.4328 55.3481 10.9971 53.9924 10.4068 52.7021C9.80013 51.1686 9.33879 49.5813 9.02902 47.9614C8.35861 45.1662 7.70053 42.3587 7.06087 39.5573C5.71389 33.6283 4.42843 27.687 3.30903 21.7026C2.80468 18.9874 2.32495 16.26 1.93746 13.5263C1.51307 10.5711 0.768852 7.00012 2.16503 4.20493C2.76684 2.98151 3.82492 2.04393 5.11111 1.59445C5.73198 1.414 6.38453 1.36989 7.024 1.46515C7.024 1.46515 7.54059 2.11778 7.73126 2.3702C8.34631 3.21369 8.18025 4.88218 8.27251 5.93499C8.43243 7.75125 8.5862 9.56751 8.74612 11.3838C9.90858 24.7256 10.702 38.1905 14.4907 51.1075C15.3637 54.0885 16.4153 57.0142 17.6398 59.8686C17.9904 60.6875 19.1837 59.9795 18.8331 59.1668C13.2976 46.2682 11.9444 32.1691 10.7389 18.3286C10.4191 14.6879 10.1013 11.0513 9.7856 7.41878C9.7118 6.59377 9.64408 5.76876 9.57027 4.95606C9.49647 4.14336 9.60724 3.03515 9.33047 2.29017C9.04465 1.6961 8.65745 1.15646 8.18639 0.695552C6.76561 -0.806708 3.91789 0.369245 2.65088 1.459C0.424369 3.30604 -0.0676473 6.26746 0.0676654 9.03186C0.350592 14.7577 1.66684 20.5451 2.78625 26.1478C4.01636 32.2307 5.35717 38.2829 6.76565 44.3227C7.43606 47.1733 7.82354 50.381 9.06596 53.0346C9.74423 54.4472 10.2145 55.9507 10.4622 57.4982C10.698 58.989 10.4386 60.5159 9.72404 61.8449C6.8343 67.8162 5.10407 74.2826 4.62526 80.9003C4.22803 87.5217 4.70362 94.1666 6.03985 100.664C6.65491 103.927 7.42373 107.159 8.26635 110.373C9.10898 113.587 10.1669 116.758 10.9542 119.984C11.3601 121.634 11.1018 123.45 11.151 125.149C11.2043 126.951 11.3397 128.753 11.557 130.555C11.9526 133.824 12.6065 137.056 13.5128 140.221C15.358 146.698 18.3595 152.719 21.7238 158.544C25.1024 164.369 28.9078 169.936 33.1085 175.198C35.2735 177.925 37.6846 180.456 39.8742 183.202C40.8521 184.433 41.6271 185.861 42.5128 187.167C43.4969 188.626 44.524 190.067 45.5881 191.476C53.385 201.733 63.161 210.317 74.3359 216.719C80.14 220.04 86.1489 222.989 92.3263 225.548C95.7337 226.983 99.1964 228.282 102.524 229.901C105.851 231.52 109.093 233.097 112.365 234.685C125.097 240.842 138.007 246.506 150.972 252.127C154.121 253.488 157.295 254.793 160.524 255.963C160.626 255.989 160.733 255.991 160.837 255.97C160.941 255.949 161.038 255.905 161.123 255.841C161.207 255.777 161.276 255.696 161.325 255.602C161.373 255.508 161.4 255.404 161.403 255.298C161.834 250.84 162.271 246.352 161.643 241.888C161.299 239.475 160.641 237.117 160.235 234.71C159.829 232.302 159.521 229.84 159.3 227.383C158.457 217.809 158.894 208.18 159.214 198.594C159.534 188.86 160.112 179.095 159.337 169.374C159.146 167.04 159.097 164.504 158.494 162.238C157.959 160.212 157.264 158.205 156.649 156.21C155.302 152.104 153.807 148.034 152.165 144.032C148.896 136.014 145.022 128.257 140.578 120.827C138.294 117.03 135.85 113.336 133.246 109.745C132.041 108.103 130.81 106.48 129.556 104.875C128.233 103.213 126.96 101.452 125.25 100.146C121.677 97.3769 117.868 94.9273 113.866 92.826C109.886 90.7265 105.741 88.7871 101.349 87.802C92.0434 85.7149 82.4116 83.6708 73.6716 79.7305C65.436 76.0364 57.8154 71.111 49.875 66.8012C46.0063 64.7079 42.1806 62.5222 37.9613 61.1985C33.6507 59.8744 29.1921 59.0926 24.6884 58.8712C22.5111 58.7604 20.3338 59.0498 18.1565 58.8404C17.3262 58.7727 17.3323 60.158 18.2119 60.2442Z" fill="white"/>
<path d="M17.566 72.0778C20.7335 77.4465 22.6956 83.3755 25.039 89.1198C27.1858 94.8351 30.2639 100.155 34.148 104.863C36.3714 107.61 38.4039 110.506 40.2309 113.532C40.3239 113.695 40.4779 113.814 40.6589 113.864C40.84 113.914 41.0334 113.889 41.1965 113.796C41.3596 113.703 41.4792 113.549 41.5288 113.368C41.5784 113.187 41.554 112.993 41.461 112.83C38.3857 107.369 33.9081 102.843 30.6606 97.4746C27.4807 92.2229 25.531 86.3924 23.2799 80.7096C22.0302 77.4846 20.5396 74.3583 18.8207 71.3574C18.7286 71.199 18.5773 71.0838 18.4003 71.037C18.2232 70.9903 18.0348 71.0158 17.8766 71.1081C17.7184 71.2003 17.6032 71.3517 17.5565 71.529C17.5098 71.7062 17.5354 71.8948 17.6276 72.0532L17.566 72.0778Z" fill="white"/>
<path d="M54.6171 132.341C60.5314 140.006 66.8509 147.349 73.5486 154.339C80.2466 161.401 87.1783 168.235 94.0792 175.1C100.777 181.768 107.438 188.472 113.804 195.46C120.018 202.198 125.824 209.301 131.192 216.732C136.539 224.134 141.17 232.027 145.024 240.306C145.504 241.353 145.968 242.404 146.414 243.459C146.759 244.278 147.952 243.576 147.608 242.763C143.994 234.375 139.556 226.366 134.359 218.856C129.154 211.338 123.478 204.157 117.365 197.357C111.141 190.344 104.584 183.639 97.9541 177.039C91.0962 170.174 84.1769 163.402 77.4481 156.414C70.7194 149.426 64.1567 142.253 58.123 134.613C57.3398 133.628 56.569 132.636 55.8104 131.639C55.2814 130.937 54.0759 131.639 54.6171 132.341V132.341Z" fill="white"/>
<path d="M130.89 224.101C130.532 230.595 131.785 237.075 134.538 242.966C134.913 243.772 136.106 243.071 135.731 242.264C133.099 236.588 131.911 230.348 132.274 224.101C132.323 223.215 130.94 223.215 130.89 224.101V224.101Z" fill="white"/>
<path d="M128.264 201.98C130.048 203.871 132.41 204.917 134.71 206.025C141.929 209.482 148.333 214.433 153.5 220.549C154.078 221.227 155.05 220.241 154.478 219.564C151.047 215.529 147.085 211.979 142.7 209.011C140.517 207.534 138.234 206.211 135.866 205.053C133.541 203.908 131.056 202.929 129.242 201.001C128.627 200.355 127.655 201.334 128.264 201.98V201.98Z" fill="white"/>
<path d="M99.2703 184.716C97.0991 189.944 96.4471 195.62 96.2442 201.235C96.035 207.269 96.1273 213.321 96.1089 219.355C96.1251 219.527 96.205 219.687 96.333 219.804C96.4609 219.92 96.6278 219.985 96.8008 219.985C96.9738 219.985 97.1406 219.92 97.2685 219.804C97.3965 219.687 97.4765 219.527 97.4927 219.355C97.4927 213.413 97.4251 207.454 97.6219 201.5C97.8064 195.903 98.4399 190.282 100.605 185.074C100.943 184.255 99.6085 183.891 99.2703 184.704V184.716Z" fill="white"/>
<path d="M78.7458 151.587L109.72 157.239C114.733 158.15 119.758 159.049 124.771 159.991C129.07 160.734 133.32 161.741 137.496 163.007C142.235 164.414 146.676 166.68 150.597 169.694C151.286 170.242 152.27 169.269 151.575 168.715C144.643 163.174 135.965 160.785 127.403 159.086C117.279 157.085 107.106 155.355 96.9392 153.501L79.1025 150.251C78.2291 150.091 77.8724 151.427 78.7335 151.587H78.7458Z" fill="white"/>
<path d="M53.3993 139.864C49.0715 149.411 46.1702 159.542 44.7885 169.934C44.3784 172.881 44.1099 175.843 43.9828 178.818C43.9397 179.711 45.3236 179.711 45.3667 178.818C45.8672 168.578 47.8627 158.466 51.2897 148.804C52.2861 146.009 53.3972 143.263 54.6232 140.566C54.9861 139.76 53.7929 139.058 53.3931 139.864H53.3993Z" fill="white"/>
<path d="M43.5829 109.616C55.2431 107.179 67.1562 106.172 79.0595 106.617C90.9615 107.051 102.769 108.911 114.228 112.158C120.699 113.992 127.034 116.272 133.191 118.98C133.996 119.337 134.704 118.143 133.886 117.786C122.834 112.902 111.228 109.388 99.3256 107.319C87.4206 105.259 75.3114 104.639 63.2586 105.472C56.5212 105.942 49.824 106.874 43.2139 108.261C42.3467 108.446 42.7157 109.782 43.5829 109.597V109.616Z" fill="white"/>
<path d="M22.9846 93.3128C17.6867 102.427 14.5807 112.65 13.9125 123.173C13.851 124.066 15.2349 124.06 15.2964 123.173C15.9612 112.896 19.0015 102.915 24.1778 94.0147C24.2512 93.8577 24.2635 93.679 24.2122 93.5135C24.1609 93.348 24.0498 93.2076 23.9005 93.1198C23.7513 93.032 23.5746 93.0032 23.4052 93.0388C23.2358 93.0745 23.0858 93.1722 22.9846 93.3128Z" fill="white"/>
<path d="M21.5454 79.3245C29.8794 74.553 39.8434 74.7007 49.0569 76.0737C51.8985 76.4924 54.7154 77.0218 57.5385 77.5513C58.4057 77.7176 58.7687 76.3815 57.9015 76.2153C48.1343 74.3683 37.949 72.5212 28.1388 75.1502C25.5883 75.8222 23.1362 76.8239 20.8442 78.1301C20.7038 78.2314 20.6062 78.3816 20.5706 78.5511C20.5349 78.7207 20.5637 78.8975 20.6514 79.0469C20.7391 79.1963 20.8794 79.3075 21.0448 79.3589C21.2101 79.4102 21.3886 79.398 21.5454 79.3245V79.3245Z" fill="white"/>
<path d="M22.6464 87.7284C18.4486 92.9142 15.5962 99.0583 14.3431 105.614C14.2324 106.199 15.1243 106.445 15.235 105.86C16.4398 99.4567 19.2101 93.4516 23.2984 88.381C23.6674 87.9192 23.0154 87.2605 22.6464 87.7284Z" fill="white"/>
<path d="M21.5271 83.7202C18.4953 87.2962 16.093 91.3622 14.4231 95.7444C14.214 96.2985 15.1059 96.5387 15.315 95.9907C16.9388 91.7548 19.2702 87.8262 22.2098 84.3728C22.5911 83.9234 21.9391 83.2646 21.5578 83.7202H21.5271Z" fill="white"/>
<path d="M20.0078 78.4376C17.5321 81.1641 15.4907 84.2562 13.9556 87.605C13.7096 88.1407 14.5092 88.6086 14.7552 88.0729C16.2477 84.7912 18.2396 81.7609 20.6598 79.0902C21.0596 78.653 20.4076 78.0004 20.0078 78.4376Z" fill="white"/>
<path d="M16.3667 75.0147C15.8004 76.6067 14.9685 78.091 13.9065 79.4045C13.8243 79.4933 13.7787 79.6098 13.7787 79.7308C13.7787 79.8518 13.8243 79.9684 13.9065 80.0571C13.9937 80.1421 14.1107 80.1897 14.2325 80.1897C14.3542 80.1897 14.4712 80.1421 14.5585 80.0571C15.7257 78.6225 16.6427 77.0011 17.2708 75.261C17.3034 75.1426 17.2878 75.0161 17.2272 74.9093C17.1666 74.8025 17.0662 74.7241 16.9479 74.6915C16.8296 74.6588 16.7033 74.6745 16.5966 74.7351C16.4899 74.7958 16.4116 74.8963 16.379 75.0147H16.3667Z" fill="white"/>
<path d="M7.10388 19.9481C7.99819 31.502 10.2695 42.9074 13.8695 53.9213C14.8905 57.0244 16.0161 60.0905 17.2462 63.1196C17.4615 63.6676 18.3595 63.4275 18.1319 62.8795C13.8399 52.2473 10.8235 41.1428 9.14591 29.799C8.66207 26.5153 8.28889 23.2132 8.02646 19.8927C7.98341 19.3078 7.06082 19.277 7.10388 19.8927V19.9481Z" fill="white"/>
<path d="M8.77064 40.7641C10.7006 49.2517 13.2812 57.5778 16.4896 65.6684C16.7048 66.2163 17.5967 65.9762 17.3753 65.4221C14.1697 57.3305 11.5891 49.0047 9.65629 40.5178C9.52713 39.9391 8.63533 40.1792 8.77064 40.7641Z" fill="white"/>
<path d="M103.772 183.584C100.382 192.435 98.9512 201.917 99.5778 211.375C99.6208 211.991 100.543 211.991 100.5 211.375C99.8762 201.998 101.297 192.597 104.664 183.824C104.88 183.269 103.988 183.029 103.772 183.584Z" fill="white"/>
<path d="M99.0919 215.618V226.934C99.0919 227.056 99.1406 227.174 99.2271 227.26C99.3136 227.347 99.4309 227.395 99.5532 227.395C99.6756 227.395 99.7929 227.347 99.8794 227.26C99.9659 227.174 100.015 227.056 100.015 226.934V215.618C100.015 215.495 99.9659 215.378 99.8794 215.291C99.7929 215.204 99.6756 215.156 99.5532 215.156C99.4309 215.156 99.3136 215.204 99.2271 215.291C99.1406 215.378 99.0919 215.495 99.0919 215.618Z" fill="white"/>
<path d="M103.36 220.802V228.805C103.36 228.928 103.409 229.045 103.495 229.132C103.582 229.219 103.699 229.267 103.822 229.267C103.944 229.267 104.061 229.219 104.148 229.132C104.234 229.045 104.283 228.928 104.283 228.805V220.802C104.283 220.679 104.234 220.562 104.148 220.475C104.061 220.388 103.944 220.34 103.822 220.34C103.699 220.34 103.582 220.388 103.495 220.475C103.409 220.562 103.36 220.679 103.36 220.802Z" fill="white"/>
<path d="M107.53 220.186C106.569 223.607 106.123 227.154 106.208 230.708C106.208 231.323 107.149 231.323 107.131 230.708C107.045 227.237 107.48 223.773 108.422 220.432C108.455 220.313 108.439 220.187 108.379 220.08C108.318 219.973 108.218 219.895 108.099 219.862C107.981 219.83 107.855 219.845 107.748 219.906C107.641 219.967 107.563 220.067 107.53 220.186V220.186Z" fill="white"/>
<path d="M110.526 221.756L109.911 230.708C109.868 231.323 110.79 231.323 110.833 230.708L111.448 221.756C111.485 221.14 110.563 221.14 110.526 221.756Z" fill="white"/>
<path d="M114.235 223.991C113.201 226.744 112.7 229.67 112.758 232.61C112.758 232.733 112.807 232.85 112.894 232.937C112.98 233.024 113.097 233.072 113.22 233.072C113.342 233.072 113.459 233.024 113.546 232.937C113.632 232.85 113.681 232.733 113.681 232.61C113.63 229.759 114.12 226.924 115.126 224.256C115.329 223.695 114.444 223.455 114.235 224.009V223.991Z" fill="white"/>
<path d="M117.371 224.563C117.064 227.235 116.754 229.903 116.443 232.567C116.375 233.183 117.298 233.152 117.365 232.567C117.673 229.895 117.982 227.227 118.294 224.563C118.362 223.948 117.439 223.948 117.371 224.563Z" fill="white"/>
<path d="M122.218 219.607C120.022 224.79 119.767 230.591 121.499 235.947C121.677 236.508 122.569 236.268 122.384 235.701C120.713 230.587 120.931 225.042 122.999 220.075C123.227 219.533 122.433 219.059 122.2 219.607H122.218Z" fill="white"/>
<path d="M126.056 218.345C124.059 224.95 123.488 231.906 124.383 238.749C124.457 239.327 125.379 239.364 125.306 238.749C124.414 231.989 124.974 225.117 126.948 218.591C127.12 218.019 126.228 217.778 126.056 218.345Z" fill="white"/>
<path d="M129.23 216.091C126.925 223.958 126.81 232.305 128.898 240.232C128.939 240.339 129.018 240.426 129.119 240.478C129.221 240.529 129.338 240.541 129.449 240.512C129.559 240.482 129.654 240.412 129.715 240.316C129.777 240.22 129.801 240.105 129.783 239.992C127.741 232.224 127.858 224.044 130.122 216.338C130.154 216.219 130.138 216.093 130.078 215.986C130.017 215.879 129.917 215.801 129.799 215.768C129.68 215.735 129.554 215.751 129.447 215.812C129.341 215.872 129.262 215.973 129.23 216.091V216.091Z" fill="white"/>
<path d="M134.23 230.745C136.03 235.822 138.155 240.778 140.59 245.583C140.854 246.118 141.654 245.65 141.383 245.121C138.985 240.391 136.893 235.51 135.122 230.511C134.925 229.957 134.033 230.197 134.23 230.757V230.745Z" fill="white"/>
<path d="M141.045 236.97L144.12 245.527C144.317 246.082 145.209 245.841 145.006 245.281C143.977 242.433 142.952 239.58 141.931 236.723C141.728 236.169 140.836 236.409 141.039 236.97H141.045Z" fill="white"/>
<path d="M146.347 243.175L149.699 249.745C149.969 250.274 150.769 249.806 150.498 249.283L147.146 242.707C146.876 242.178 146.076 242.646 146.347 243.175Z" fill="white"/>
<path d="M149.65 241.888L158.168 252.706C158.537 253.174 159.183 252.515 158.82 252.053C155.987 248.445 153.147 244.839 150.302 241.236C149.933 240.768 149.287 241.427 149.65 241.888Z" fill="white"/>
<path d="M150.339 238.398C152.848 241.202 155.819 243.555 159.122 245.355C159.644 245.638 160.112 244.838 159.589 244.554C156.347 242.799 153.434 240.496 150.978 237.745C150.578 237.302 149.933 237.954 150.326 238.398H150.339Z" fill="white"/>
<path d="M151.507 232.973C153.358 234.998 155.683 236.529 158.273 237.431C158.839 237.628 159.078 236.735 158.519 236.544C156.075 235.686 153.881 234.235 152.134 232.321C151.729 231.877 151.077 232.53 151.483 232.973H151.507Z" fill="white"/>
<path d="M152.178 228.664C153.818 229.796 155.384 231.003 156.876 232.284C156.964 232.367 157.081 232.414 157.202 232.414C157.324 232.414 157.44 232.367 157.528 232.284C157.615 232.197 157.663 232.08 157.663 231.958C157.663 231.835 157.615 231.718 157.528 231.631C155.958 230.301 154.33 229.047 152.645 227.869C152.593 227.834 152.534 227.81 152.472 227.798C152.41 227.787 152.347 227.788 152.285 227.802C152.224 227.816 152.166 227.842 152.115 227.879C152.064 227.916 152.022 227.964 151.99 228.018C151.958 228.072 151.937 228.132 151.929 228.195C151.922 228.257 151.927 228.321 151.944 228.381C151.962 228.442 151.991 228.498 152.032 228.547C152.072 228.595 152.121 228.635 152.178 228.664V228.664Z" fill="white"/>
<path d="M144.606 218.813C149.408 221.458 153.694 224.95 157.258 229.119C157.645 229.569 158.297 228.916 157.916 228.467C154.298 224.234 149.947 220.689 145.074 218C144.551 217.711 144.083 218.511 144.606 218.794V218.813Z" fill="white"/>
<path d="M137.92 202.934C144.566 206.208 150.476 210.802 155.29 216.436C155.677 216.886 156.329 216.233 155.942 215.784C151.074 210.089 145.099 205.445 138.382 202.134C137.853 201.875 137.385 202.67 137.92 202.934Z" fill="white"/>
<path d="M146.882 204.295L154.552 209.768C155.031 210.113 155.493 209.313 155.013 208.974L147.349 203.495C146.863 203.15 146.402 203.95 146.882 204.295Z" fill="white"/>
<path d="M149.588 200.958L155.333 205.557C155.421 205.641 155.537 205.687 155.659 205.687C155.78 205.687 155.897 205.641 155.985 205.557C156.071 205.471 156.12 205.353 156.12 205.231C156.12 205.109 156.071 204.991 155.985 204.905L150.24 200.305C150.152 200.222 150.035 200.175 149.914 200.175C149.793 200.175 149.676 200.222 149.588 200.305C149.502 200.392 149.453 200.509 149.453 200.632C149.453 200.754 149.502 200.872 149.588 200.958Z" fill="white"/>
<path d="M147.343 192.997L153.93 197.252C154.429 197.578 154.896 196.777 154.398 196.457L147.811 192.197C147.312 191.871 146.845 192.671 147.343 192.997Z" fill="white"/>
<path d="M145.037 187.266C148.954 189.199 152.728 191.411 156.329 193.884C156.821 194.223 157.282 193.422 156.797 193.09C153.194 190.617 149.42 188.403 145.504 186.465C144.969 186.207 144.502 187.001 145.037 187.266Z" fill="white"/>
<path d="M136.112 179.046C142.348 181.501 148.324 184.574 153.949 188.22C154.453 188.546 154.915 187.746 154.416 187.426C148.714 183.736 142.656 180.63 136.334 178.153C135.78 177.938 135.54 178.831 136.088 179.046H136.112Z" fill="white"/>
<path d="M129.519 172.483C138.865 175.541 147.789 179.762 156.083 185.049C156.581 185.369 157.049 184.569 156.545 184.249C148.184 178.923 139.186 174.673 129.765 171.596C129.199 171.412 128.953 172.304 129.519 172.483V172.483Z" fill="white"/>
<path d="M122.2 164.633L120.828 164.479C120.305 164.424 120.213 165.255 120.705 165.39C132.017 168.44 142.898 172.91 153.088 178.695C153.604 178.991 154.072 178.19 153.555 177.901C143.298 172.074 132.345 167.57 120.957 164.498C120.914 164.799 120.877 165.113 120.834 165.403L122.206 165.557C122.821 165.624 122.821 164.701 122.206 164.633H122.2Z" fill="white"/>
<path d="M133.75 165.39C141.295 168.191 148.56 171.695 155.45 175.857C155.502 175.887 155.56 175.908 155.62 175.916C155.681 175.924 155.742 175.92 155.801 175.905C155.86 175.89 155.915 175.863 155.963 175.826C156.012 175.789 156.052 175.743 156.083 175.691C156.114 175.638 156.134 175.58 156.142 175.52C156.15 175.459 156.147 175.398 156.131 175.339C156.116 175.28 156.089 175.225 156.052 175.176C156.016 175.128 155.97 175.087 155.917 175.056C148.956 170.858 141.617 167.321 133.996 164.491C133.443 164.288 133.197 165.181 133.75 165.384V165.39Z" fill="white"/>
<path d="M122.427 154.167L139.581 160.065C144.582 161.789 149.68 163.623 153.814 167.028C154.269 167.404 154.921 166.757 154.466 166.376C150.338 162.977 145.32 161.074 140.319 159.344C134.439 157.307 128.553 155.299 122.673 153.274C122.107 153.077 121.867 153.97 122.427 154.167Z" fill="white"/>
<path d="M133.332 153.508C140.685 155.415 147.803 158.133 154.558 161.61C155.081 161.881 155.548 161.087 155.019 160.816C148.196 157.298 141.006 154.548 133.578 152.615C133.46 152.582 133.334 152.598 133.227 152.658C133.12 152.719 133.042 152.82 133.009 152.938C132.977 153.056 132.992 153.183 133.053 153.29C133.113 153.397 133.214 153.475 133.332 153.508V153.508Z" fill="white"/>
<path d="M133.855 149.069C139.61 150.447 145.152 152.596 150.332 155.46C150.855 155.743 151.323 154.948 150.8 154.659C145.55 151.758 139.933 149.58 134.101 148.182C133.523 148.041 133.277 148.933 133.855 149.069V149.069Z" fill="white"/>
<path d="M134.335 144.279C139.06 144.933 143.644 146.364 147.903 148.515C148.432 148.786 148.899 147.985 148.37 147.72C144.043 145.531 139.384 144.075 134.581 143.411C133.966 143.324 133.744 144.217 134.335 144.297V144.279Z" fill="white"/>
<path d="M131.512 138.577C136.817 139.293 142.022 140.619 147.023 142.53C147.583 142.739 147.823 141.847 147.269 141.637C142.267 139.729 137.062 138.403 131.758 137.685C131.179 137.605 130.927 138.497 131.512 138.577Z" fill="white"/>
<path d="M126.806 131.06C132.252 132.239 137.586 133.887 142.749 135.985C143.302 136.213 143.542 135.314 142.995 135.092C137.832 132.995 132.498 131.347 127.052 130.167C126.474 130.044 126.228 130.93 126.806 131.06Z" fill="white"/>
<path d="M122.07 125.519C129.774 127.106 137.336 129.319 144.68 132.137C145.234 132.347 145.473 131.454 144.92 131.245C137.578 128.422 130.019 126.204 122.317 124.614C121.738 124.491 121.486 125.383 122.07 125.5V125.519Z" fill="white"/>
<path d="M104.166 116.555C115.657 118.156 127.004 120.666 138.099 124.06C138.671 124.232 138.911 123.339 138.345 123.167C127.249 119.776 115.903 117.266 104.412 115.662C103.834 115.582 103.582 116.475 104.166 116.555Z" fill="white"/>
<path d="M95.1925 104.401C107.137 107.237 118.934 110.631 130.583 114.584C131.143 114.775 131.382 113.882 130.823 113.691C119.198 109.747 107.403 106.355 95.4385 103.514C94.8603 103.373 94.6143 104.265 95.1925 104.401Z" fill="white"/>
<path d="M99.4424 100.602C109.111 103.299 118.686 106.297 128.166 109.597C128.731 109.788 128.971 108.895 128.412 108.704C118.932 105.421 109.357 102.424 99.6885 99.7154C99.5749 99.6941 99.4575 99.7162 99.3595 99.7774C99.2614 99.8385 99.1898 99.9343 99.1589 100.046C99.128 100.157 99.14 100.276 99.1925 100.379C99.245 100.482 99.3342 100.562 99.4424 100.602V100.602Z" fill="white"/>
<path d="M99.4671 96.1937C105.67 97.0617 111.814 98.3118 117.863 99.9371C117.982 99.9689 118.108 99.9524 118.214 99.8912C118.32 99.83 118.397 99.7291 118.429 99.6107C118.461 99.4924 118.445 99.3662 118.383 99.2599C118.322 99.1537 118.222 99.0762 118.103 99.0443C112.057 97.4176 105.915 96.1694 99.7131 95.3071C99.135 95.2209 98.8828 96.1137 99.4671 96.1937Z" fill="white"/>
<path d="M83.1005 91.2683C91.4052 90.8463 99.7313 91.3149 107.936 92.6659C108.515 92.7583 108.767 91.8717 108.183 91.7732C99.896 90.4086 91.4881 89.9298 83.1005 90.3448C82.4854 90.3448 82.4854 91.293 83.1005 91.2683V91.2683Z" fill="white"/>
<path d="M73.7638 87.6361C76.2207 87.2272 78.7205 87.1402 81.1999 87.3775C81.8149 87.433 81.8149 86.5094 81.1999 86.454C78.6373 86.2169 76.0547 86.3163 73.5178 86.7496C72.9027 86.8481 73.1856 87.7346 73.7638 87.6361Z" fill="white"/>
<path d="M62.5144 86.0166C67.5374 84.7144 72.7023 84.0402 77.8909 84.0095C78.0132 84.0095 78.1305 83.9608 78.217 83.8742C78.3035 83.7876 78.3522 83.6702 78.3522 83.5477C78.3522 83.4252 78.3035 83.3078 78.217 83.2212C78.1305 83.1346 78.0132 83.0859 77.8909 83.0859C72.6132 83.1163 67.3595 83.8008 62.2499 85.1238C62.1914 85.14 62.1366 85.1676 62.0887 85.205C62.0407 85.2423 62.0006 85.2888 61.9706 85.3417C61.9406 85.3945 61.9214 85.4528 61.9139 85.5132C61.9065 85.5735 61.9109 85.6347 61.927 85.6934C61.9432 85.752 61.9707 85.8068 62.008 85.8548C62.0454 85.9028 62.0918 85.9429 62.1446 85.9729C62.1974 86.0029 62.2556 86.0222 62.3159 86.0297C62.3762 86.0372 62.4374 86.0328 62.496 86.0166H62.5144Z" fill="white"/>
<path d="M54.9308 82.5012C60.0436 81.7846 65.209 81.5127 70.3688 81.6885C70.4911 81.6885 70.6084 81.6399 70.6949 81.5533C70.7814 81.4667 70.8301 81.3492 70.8301 81.2268C70.8301 81.1043 70.7814 80.9868 70.6949 80.9002C70.6084 80.8137 70.4911 80.765 70.3688 80.765C65.1262 80.5902 59.8784 80.8724 54.6848 81.6085C54.0697 81.6885 54.3526 82.5813 54.9308 82.5012Z" fill="white"/>
<path d="M45.4036 79.7922H66.131C66.2534 79.7922 66.3707 79.7435 66.4572 79.6569C66.5437 79.5703 66.5923 79.4529 66.5923 79.3304C66.5923 79.2079 66.5437 79.0905 66.4572 79.0039C66.3707 78.9173 66.2534 78.8687 66.131 78.8687H45.4036C45.2812 78.8687 45.1639 78.9173 45.0774 79.0039C44.9909 79.0905 44.9423 79.2079 44.9423 79.3304C44.9423 79.4529 44.9909 79.5703 45.0774 79.6569C45.1639 79.7435 45.2812 79.7922 45.4036 79.7922Z" fill="white"/>
<path d="M43.8598 72.2811L58.9165 74.3129C59.4946 74.3929 59.7467 73.5002 59.1624 73.4201L44.1058 71.3884C43.5277 71.3083 43.2755 72.2011 43.8598 72.2811Z" fill="white"/>
<path d="M34.9414 66.8875L49.5428 69.2394C50.1579 69.3317 50.3793 68.4451 49.7889 68.3466L35.1874 66.0009C34.6031 65.9085 34.3509 66.7951 34.9414 66.8875Z" fill="white"/>
<path d="M25.1374 63.5138C30.796 63.3702 36.4483 63.4974 42.0945 63.8955C42.7096 63.9386 42.7096 63.0151 42.0945 62.972C36.4565 62.5616 30.8042 62.4343 25.1374 62.5903C24.5224 62.5903 24.5224 63.5323 25.1374 63.5138Z" fill="white"/>
<path d="M49.346 163.088C47.4926 172.789 46.4638 182.63 46.2708 192.505C46.2708 192.628 46.3194 192.745 46.4059 192.832C46.4924 192.918 46.6097 192.967 46.732 192.967C46.8544 192.967 46.9718 192.918 47.0583 192.832C47.1448 192.745 47.1933 192.628 47.1933 192.505C47.3924 182.712 48.4211 172.953 50.2686 163.334C50.3793 162.749 49.4937 162.503 49.3768 163.088H49.346Z" fill="white"/>
<path d="M22.4189 102.412C19.9586 106.18 18.9008 110.638 17.7875 114.954C16.4528 119.802 15.3892 124.72 14.6015 129.687C14.2091 132.428 14.0036 135.193 13.9865 137.962C13.9865 138.084 14.035 138.202 14.1215 138.288C14.208 138.375 14.3254 138.423 14.4477 138.423C14.5701 138.423 14.6874 138.375 14.7739 138.288C14.8604 138.202 14.909 138.084 14.909 137.962C14.9398 131.669 16.1392 125.488 17.6338 119.399C18.3411 116.511 19.0606 113.618 19.8725 110.779C20.5898 107.997 21.7242 105.34 23.2369 102.899C23.5629 102.406 22.7633 101.938 22.4373 102.437L22.4189 102.412Z" fill="white"/>
<path d="M20.1616 115.871C17.9873 125.184 16.7388 134.689 16.4343 144.248C16.4343 144.863 17.3323 144.863 17.3569 144.248C17.6582 134.772 18.8943 125.35 21.0473 116.117C21.1826 115.539 20.2969 115.292 20.1616 115.871Z" fill="white"/>
<path d="M20.4814 129.644C19.3543 136.453 18.6682 143.328 18.4271 150.226C18.4271 150.842 19.3313 150.842 19.3497 150.226C19.5874 143.417 20.2633 136.631 21.3733 129.909C21.4655 129.324 20.5798 129.078 20.4814 129.663V129.644Z" fill="white"/>
<path d="M22.2098 136.841C20.929 143.741 20.5814 150.782 21.1764 157.774C21.2256 158.359 22.1482 158.39 22.099 157.774C21.5072 150.865 21.8423 143.907 23.0954 137.087C23.2061 136.509 22.3143 136.256 22.2098 136.841V136.841Z" fill="white"/>
<path d="M25.2174 141.274C23.9863 147.437 23.2316 153.687 22.9601 159.966C22.9601 160.582 23.8581 160.582 23.8827 159.966C24.1518 153.761 24.8961 147.586 26.1092 141.496C26.226 140.917 25.3342 140.671 25.2174 141.249V141.274Z" fill="white"/>
<path d="M28.5326 145.646C27.2959 151.813 26.6145 158.079 26.4967 164.368C26.4967 164.491 26.5453 164.608 26.6318 164.695C26.7184 164.782 26.8357 164.83 26.958 164.83C27.0803 164.83 27.1977 164.782 27.2842 164.695C27.3707 164.608 27.4193 164.491 27.4193 164.368C27.5333 158.164 28.2044 151.982 29.4244 145.898C29.5351 145.319 28.6494 145.073 28.5326 145.652V145.646Z" fill="white"/>
<path d="M33.8958 143.54C31.0023 151.653 29.4 160.171 29.1476 168.783C29.1476 168.905 29.1961 169.023 29.2827 169.109C29.3692 169.196 29.4865 169.245 29.6089 169.245C29.7312 169.245 29.8485 169.196 29.935 169.109C30.0215 169.023 30.0702 168.905 30.0702 168.783C30.3256 160.257 31.9174 151.824 34.7876 143.792C34.9906 143.226 34.0988 142.986 33.8958 143.546V143.54Z" fill="white"/>
<path d="M37.0081 148.238C34.2278 155.203 32.5429 162.557 32.0138 170.039C31.9707 170.655 32.8933 170.655 32.9364 170.039C33.4688 162.643 35.1411 155.374 37.8938 148.49C38.1152 147.936 37.2234 147.696 37.0081 148.244V148.238Z" fill="white"/>
<path d="M38.6379 156.125C36.5098 161.605 34.9096 167.277 33.8589 173.062C33.7481 173.641 34.64 173.893 34.7446 173.308C35.7982 167.521 37.4005 161.847 39.5297 156.365C39.745 155.811 38.8531 155.57 38.6379 156.125V156.125Z" fill="white"/>
<path d="M42.8326 151.014C41.6721 155.439 40.5138 159.865 39.3575 164.294C38.7875 166.461 38.2196 168.627 37.6537 170.79C37.1186 172.846 36.5405 174.921 37.0018 177.051C37.131 177.63 38.0166 177.39 37.8936 176.805C37.42 174.619 38.1888 172.403 38.7362 170.297L40.3969 163.949L43.7182 151.26C43.7395 151.147 43.7174 151.029 43.6563 150.931C43.5952 150.833 43.4996 150.761 43.3883 150.73C43.277 150.699 43.1581 150.711 43.0552 150.764C42.9523 150.816 42.8729 150.906 42.8326 151.014V151.014Z" fill="white"/>
<path d="M47.5993 148.514C43.5519 159.194 40.5887 170.254 38.7547 181.527C38.6625 182.106 39.5543 182.358 39.6465 181.773C41.4785 170.5 44.4395 159.44 48.4849 148.761C48.7002 148.206 47.8084 147.966 47.5993 148.514V148.514Z" fill="white"/>
<path d="M53.8176 133.535C52.0123 135.89 50.6228 138.536 49.7089 141.36C49.5244 141.927 50.4163 142.173 50.6008 141.606C51.4944 138.86 52.8529 136.288 54.6171 134.003C54.6478 133.95 54.6678 133.892 54.6761 133.832C54.6844 133.771 54.6807 133.71 54.6653 133.651C54.6499 133.592 54.623 133.537 54.5862 133.489C54.5495 133.44 54.5036 133.399 54.4511 133.369C54.3986 133.338 54.3405 133.318 54.2803 133.309C54.22 133.301 54.1588 133.305 54.0999 133.32C54.0411 133.336 53.9858 133.363 53.9374 133.399C53.8889 133.436 53.8483 133.482 53.8176 133.535V133.535Z" fill="white"/>
<path d="M27.4562 95.8554C25.3211 99.7558 23.7474 103.939 22.7817 108.28C22.6526 108.859 23.5382 109.105 23.6674 108.526C24.6145 104.26 26.1592 100.15 28.2557 96.3172C28.5386 95.8 27.7452 95.3321 27.4562 95.8554V95.8554Z" fill="white"/>
<path d="M29.2706 98.9091C28.2496 102.168 27.0851 105.374 25.7771 108.526C25.5495 109.074 26.4413 109.314 26.6627 108.772C27.9708 105.62 29.1374 102.414 30.1625 99.1553C30.3408 98.5889 29.4489 98.3426 29.2706 98.9091Z" fill="white"/>
<path d="M31.9522 101.064L28.674 109.838C28.4649 110.392 29.3567 110.632 29.5658 110.084L32.8441 101.329C33.0532 100.775 32.1613 100.535 31.9522 101.083V101.064Z" fill="white"/>
<path d="M33.4406 107.184L30.7344 112.59C30.4699 113.119 31.2634 113.587 31.5278 113.051L34.2403 107.652C34.5047 107.122 33.7113 106.654 33.4406 107.184Z" fill="white"/>
<path d="M35.5072 109.16C34.1131 112.078 32.7189 114.997 31.3248 117.915C31.0665 118.445 31.8661 118.919 32.1182 118.377L36.3068 109.628C36.559 109.092 35.7655 108.624 35.5072 109.16V109.16Z" fill="white"/>
<path d="M38.7548 111.13C36.5319 114.441 34.705 118.001 33.3116 121.739C33.1024 122.293 33.9942 122.533 34.1972 121.985C35.5714 118.326 37.3671 114.84 39.5482 111.598C39.8803 111.106 39.0808 110.644 38.7548 111.13V111.13Z" fill="white"/>
<path d="M40.4277 112.694C38.9097 116.745 37.0944 120.678 34.9968 124.46C34.7077 124.983 35.5073 125.451 35.7963 124.928C37.9341 121.074 39.7844 117.068 41.3319 112.941C41.541 112.387 40.6492 112.146 40.4462 112.694H40.4277Z" fill="white"/>
<path d="M41.9346 116.764C41.0164 119.537 39.9066 122.242 38.6133 124.86C38.3489 125.396 39.1484 125.864 39.4129 125.328C40.7395 122.637 41.8801 119.858 42.8265 117.01C43.011 116.444 42.1191 116.198 41.9346 116.764V116.764Z" fill="white"/>
<path d="M43.0232 120.784C42.3549 122.126 41.6865 123.468 41.0181 124.811C40.9802 124.863 40.9536 124.922 40.9401 124.986C40.9266 125.049 40.9265 125.114 40.9398 125.177C40.9531 125.241 40.9796 125.3 41.0174 125.353C41.0552 125.405 41.1036 125.449 41.1594 125.481C41.2152 125.514 41.2772 125.534 41.3414 125.541C41.4055 125.548 41.4704 125.542 41.5319 125.522C41.5934 125.502 41.65 125.47 41.6982 125.427C41.7464 125.384 41.785 125.331 41.8116 125.272L43.8228 121.252C43.8752 121.147 43.8872 121.026 43.8566 120.912C43.826 120.799 43.7549 120.701 43.6568 120.636C43.5522 120.581 43.4307 120.567 43.3166 120.598C43.2025 120.629 43.1042 120.702 43.0417 120.802L43.0232 120.784Z" fill="white"/>
<path d="M46.1109 122.644L42.6235 127.969C42.2975 128.468 43.0971 128.93 43.4231 128.431L46.9043 123.105C47.2303 122.607 46.4307 122.145 46.1109 122.644Z" fill="white"/>
<path d="M48.6572 124.429C45.942 127.805 43.7218 131.551 42.0638 135.554C41.8363 136.109 42.7281 136.342 42.9556 135.801C44.5529 131.943 46.6924 128.334 49.3092 125.082C49.6783 124.62 49.0324 123.961 48.6572 124.429V124.429Z" fill="white"/>
<path d="M50.976 127.477C48.2981 131.049 45.9959 134.889 44.1058 138.934C43.8536 139.47 44.647 139.938 44.8992 139.402C46.7902 135.357 49.0925 131.518 51.7694 127.945C52.1262 127.464 51.3266 127.003 50.976 127.477Z" fill="white"/>
<path d="M52.815 130.586C49.4989 134.923 46.6613 139.607 44.3518 144.556C44.1058 145.091 44.8992 145.559 45.1514 145.023C47.4634 140.074 50.3051 135.39 53.6268 131.054C53.9836 130.58 53.184 130.124 52.8273 130.586H52.815Z" fill="white"/>
<path d="M43.5276 182.291V186.065C43.5276 186.187 43.5761 186.305 43.6627 186.392C43.7492 186.478 43.8665 186.527 43.9889 186.527C44.1112 186.527 44.2285 186.478 44.315 186.392C44.4015 186.305 44.4502 186.187 44.4502 186.065V182.291C44.4502 182.168 44.4015 182.051 44.315 181.964C44.2285 181.878 44.1112 181.829 43.9889 181.829C43.8665 181.829 43.7492 181.878 43.6627 181.964C43.5761 182.051 43.5276 182.168 43.5276 182.291Z" fill="white"/>
<path d="M49.9427 175.469C48.9893 178.129 49.1185 181.133 49.0263 183.922C48.9237 186.939 48.8582 189.958 48.8295 192.979C48.8295 193.101 48.878 193.219 48.9645 193.305C49.051 193.392 49.1684 193.441 49.2908 193.441C49.4131 193.441 49.5304 193.392 49.6169 193.305C49.7034 193.219 49.7521 193.101 49.7521 192.979C49.7767 190.06 49.8381 187.142 49.9365 184.224C50.0288 181.423 49.8751 178.387 50.8284 175.715C51.0314 175.155 50.1395 174.915 49.9427 175.469Z" fill="white"/>
<path d="M51.7325 186.57C50.7259 189.961 50.4265 193.524 50.8529 197.036C50.9206 197.615 51.8432 197.652 51.7755 197.036C51.3492 193.597 51.636 190.108 52.6181 186.785C52.6364 186.672 52.6122 186.557 52.5504 186.461C52.4886 186.365 52.3934 186.295 52.2834 186.266C52.1733 186.236 52.0561 186.248 51.9544 186.299C51.8526 186.351 51.7736 186.438 51.7325 186.545V186.57Z" fill="white"/>
<path d="M55.2014 190.787C54.9348 194.025 54.8077 197.272 54.82 200.527C54.82 200.649 54.8686 200.767 54.9551 200.854C55.0416 200.94 55.159 200.989 55.2813 200.989C55.4037 200.989 55.521 200.94 55.6075 200.854C55.694 200.767 55.7426 200.649 55.7426 200.527C55.7426 197.276 55.8697 194.03 56.1239 190.787C56.1732 190.171 55.2506 190.171 55.2014 190.787Z" fill="white"/>
<path d="M58.4982 194.543L57.9261 202.091C57.8831 202.707 58.8057 202.707 58.8487 202.091L59.4208 194.543C59.4638 193.927 58.5412 193.927 58.4982 194.543Z" fill="white"/>
<path d="M61.4566 195.811C61.2065 199.16 60.9522 202.512 60.6938 205.865C60.6508 206.481 61.5734 206.45 61.6164 205.865C61.8748 202.507 62.129 199.156 62.3792 195.811C62.4284 195.195 61.5058 195.195 61.4566 195.811Z" fill="white"/>
<path d="M64.1444 200.459C63.2341 203.432 62.8409 206.539 62.9819 209.645C62.9819 210.261 63.9291 210.261 63.9045 209.645C63.7686 206.623 64.1514 203.599 65.0362 200.706C65.2084 200.139 64.3228 199.893 64.1444 200.459V200.459Z" fill="white"/>
<path d="M67.3303 195.042C66.3985 199.851 65.9984 204.749 66.1372 209.646C66.1372 210.261 67.0782 210.261 67.0598 209.646C66.9202 204.832 67.31 200.017 68.2222 195.288C68.3329 194.709 67.4411 194.457 67.3303 195.042Z" fill="white"/>
<path d="M69.6983 199.474C69.0665 203.46 68.8235 207.497 68.9726 211.529C68.9726 212.145 69.9136 212.145 69.8952 211.529C69.7448 207.58 69.9776 203.625 70.5902 199.721C70.6824 199.105 69.7906 198.889 69.6983 199.474V199.474Z" fill="white"/>
<path d="M72.4415 201.155L71.1683 214.017C71.1129 214.602 72.0355 214.602 72.0909 214.017L73.3641 201.155C73.4194 200.539 72.4969 200.539 72.4415 201.155Z" fill="white"/>
<path d="M75.4799 197.726C75.0924 200.952 74.6557 204.172 74.342 207.404C74.0591 210.415 74.0222 213.475 74.9571 216.381C75.1416 216.941 76.0272 216.701 75.8427 216.135C74.8894 213.216 74.9755 210.144 75.2769 207.127C75.5906 203.987 76.0088 200.86 76.384 197.726C76.4578 197.11 75.5352 197.11 75.4614 197.726H75.4799Z" fill="white"/>
<path d="M79.8099 196.033C79.0596 199.911 78.2293 203.784 77.5834 207.675C76.9684 211.197 76.7224 214.842 77.9094 218.265C78.1063 218.825 78.9981 218.585 78.8012 218.025C77.5711 214.571 77.9463 210.901 78.5675 207.373C79.1826 203.679 79.9883 199.985 80.7018 196.291C80.8125 195.712 79.9268 195.466 79.8099 196.045V196.033Z" fill="white"/>
<path d="M82.8358 197.264C81.3637 204.544 80.7159 211.967 80.9046 219.392C80.9046 219.514 80.9532 219.632 81.0397 219.718C81.1262 219.805 81.2436 219.853 81.3659 219.853C81.4883 219.853 81.6056 219.805 81.6921 219.718C81.7786 219.632 81.8272 219.514 81.8272 219.392C81.6303 212.05 82.2637 204.71 83.7154 197.51C83.8323 196.932 82.9405 196.685 82.8236 197.264H82.8358Z" fill="white"/>
<path d="M86.514 195.989C84.9437 203.582 84.2033 211.324 84.3059 219.077C84.3059 219.2 84.3545 219.317 84.441 219.404C84.5275 219.491 84.6448 219.539 84.7672 219.539C84.8895 219.539 85.0069 219.491 85.0934 219.404C85.1799 219.317 85.2285 219.2 85.2285 219.077C85.1227 211.407 85.8507 203.748 87.3996 196.236C87.5226 195.657 86.6309 195.405 86.514 195.989Z" fill="white"/>
<path d="M90.2535 195.35C88.1168 204.139 87.2489 213.189 87.6763 222.224C87.6763 222.84 88.6235 222.84 88.5989 222.224C88.1734 213.272 89.0309 204.305 91.1453 195.596C91.2806 195.017 90.3949 194.771 90.2535 195.35Z" fill="white"/>
<path d="M95.0263 185.566C94.0484 191.618 93.5195 197.726 93.132 203.833C92.7445 209.941 92.0433 216.184 92.8428 222.261C92.9228 222.846 93.8454 222.876 93.7654 222.261C92.9781 216.276 93.6486 210.132 94.0299 204.135C94.4236 198.009 94.934 191.877 95.9181 185.812C96.0104 185.234 95.1186 184.981 95.0263 185.566V185.566Z" fill="white"/>
<path d="M56.9297 135.511C56.0829 136.319 55.4599 137.333 55.1215 138.454C55.091 138.572 55.1073 138.696 55.167 138.802C55.2267 138.908 55.325 138.986 55.4413 139.021C55.5595 139.051 55.685 139.035 55.7916 138.976C55.8981 138.916 55.9776 138.817 56.0133 138.7C56.0502 138.577 56.0871 138.454 56.1302 138.337L56.204 138.146C56.204 138.109 56.204 138.072 56.2532 138.042C56.3602 137.802 56.4835 137.569 56.6222 137.346C56.6898 137.235 56.7637 137.13 56.8375 137.026L56.9543 136.86C56.9543 136.86 56.9974 136.804 56.9543 136.86L57.0097 136.786C57.1823 136.57 57.3671 136.364 57.5632 136.17C57.6481 136.083 57.6957 135.966 57.6957 135.844C57.6957 135.722 57.6481 135.605 57.5632 135.517C57.4752 135.434 57.3585 135.387 57.2372 135.387C57.1159 135.387 56.9993 135.434 56.9113 135.517L56.9297 135.511Z" fill="white"/>
<path d="M58.781 138.115C54.8493 144.52 51.7881 151.421 49.6782 158.636C49.6569 158.75 49.679 158.867 49.7401 158.965C49.8012 159.064 49.8968 159.135 50.0081 159.166C50.1194 159.197 50.2383 159.185 50.3412 159.133C50.4441 159.08 50.5235 158.991 50.5638 158.882C52.6548 151.74 55.6849 144.908 59.5745 138.565C59.8881 138.06 59.0885 137.598 58.781 138.103V138.115Z" fill="white"/>
<path d="M61.5734 140.006C59.3423 142.975 57.5849 146.274 56.3639 149.783C56.1671 150.343 57.0589 150.583 57.2495 150.029C58.456 146.599 60.1842 143.376 62.373 140.474C62.7297 139.993 61.924 139.538 61.5734 140.006Z" fill="white"/>
<path d="M63.0926 143.257C61.0167 145.88 59.357 148.808 58.1722 151.938C57.9569 152.492 58.8488 152.732 59.0579 152.184C60.1906 149.203 61.771 146.413 63.7446 143.909C64.1075 143.447 63.4555 142.795 63.0926 143.257Z" fill="white"/>
<path d="M64.5625 146.163C62.9626 148.492 61.5123 150.92 60.2202 153.434C59.9496 153.963 60.743 154.431 61.0198 153.902C62.3058 151.385 63.7565 148.956 65.3621 146.63C65.7004 146.138 64.9008 145.676 64.5625 146.163Z" fill="white"/>
<path d="M67.1089 147.776L62.9572 154.019C62.6251 154.511 63.4247 154.973 63.7507 154.481L67.9023 148.244C68.2345 147.745 67.4349 147.283 67.1089 147.776Z" fill="white"/>
<path d="M96.2134 179.927C95.8033 180.879 95.4077 181.833 95.0263 182.79C94.9961 182.908 95.0132 183.033 95.0741 183.139C95.135 183.245 95.2349 183.323 95.3523 183.356C95.4696 183.384 95.5928 183.366 95.6976 183.307C95.8025 183.247 95.8812 183.151 95.9181 183.036L97.1052 180.173C97.1374 180.055 97.1218 179.93 97.0619 179.824C97.002 179.718 96.9026 179.64 96.7854 179.607C96.6673 179.579 96.5432 179.596 96.4373 179.656C96.3315 179.715 96.2516 179.812 96.2134 179.927V179.927Z" fill="white"/>
<path d="M95.008 177.303C93.8517 180.025 92.6995 182.748 91.5514 185.474C91.3177 186.015 92.1111 186.489 92.3448 185.941L95.8015 177.771C96.029 177.23 95.2356 176.756 95.008 177.303Z" fill="white"/>
<path d="M93.4026 174.773C91.4385 179.079 89.5769 183.428 87.8179 187.819C87.5965 188.373 88.4883 188.614 88.7035 188.066C90.438 183.752 92.2709 179.475 94.2022 175.235C94.4482 174.699 93.6486 174.231 93.4026 174.773V174.773Z" fill="white"/>
<path d="M90.7025 173.868C88.9612 176.707 87.394 179.649 86.0096 182.679C85.7636 183.214 86.557 183.682 86.8092 183.147C88.1936 180.117 89.7608 177.175 91.5021 174.336C91.5641 174.23 91.5814 174.104 91.5502 173.985C91.5191 173.866 91.4421 173.764 91.336 173.702C91.23 173.64 91.1037 173.623 90.9849 173.654C90.8661 173.685 90.7645 173.762 90.7025 173.868V173.868Z" fill="white"/>
<path d="M88.9004 170.026C86.4931 172.64 84.5259 175.628 83.0758 178.874C82.8359 179.409 83.6294 179.883 83.8692 179.342C85.281 176.164 87.2006 173.238 89.5524 170.679C89.9521 170.242 89.3002 169.589 88.9004 170.026Z" fill="white"/>
<path d="M86.0405 167.17C84.0877 169.608 82.2922 172.168 80.6649 174.835C80.3573 175.346 81.1569 175.808 81.4644 175.303C83.0445 172.699 84.7908 170.201 86.6924 167.822C87.0614 167.367 86.4095 166.708 86.0405 167.17V167.17Z" fill="white"/>
<path d="M84.392 164.257C81.5637 167.196 79.0432 170.416 76.8699 173.868C76.5501 174.373 77.3497 174.835 77.6634 174.336C79.7981 170.95 82.271 167.79 85.044 164.904C85.4561 164.479 84.8041 163.826 84.392 164.251V164.257Z" fill="white"/>
<path d="M81.735 161.598L77.7372 166.714C76.6116 168.142 75.1601 169.62 74.8156 171.473C74.7049 172.058 75.5967 172.304 75.7074 171.719C76.0396 169.922 77.5526 168.456 78.6228 167.065L82.3931 162.25C82.7499 161.788 82.1041 161.13 81.735 161.598V161.598Z" fill="white"/>
<path d="M78.4444 159.264C75.7533 162.457 73.3551 165.886 71.279 169.509C71.2256 169.614 71.2142 169.735 71.247 169.848C71.2799 169.961 71.3545 170.057 71.4558 170.117C71.557 170.177 71.6771 170.195 71.7917 170.17C71.9063 170.144 72.0067 170.075 72.0724 169.977C74.1068 166.419 76.4577 163.052 79.0964 159.917C79.4777 159.461 78.8258 158.809 78.4444 159.264Z" fill="white"/>
<path d="M74.6249 156.863C72.3902 160.024 70.2867 163.27 68.3144 166.603C68.2532 166.709 68.2367 166.836 68.2685 166.954C68.3002 167.072 68.3775 167.173 68.4836 167.234C68.5896 167.296 68.7156 167.312 68.8338 167.28C68.952 167.249 69.0528 167.171 69.114 167.065C71.0822 163.74 73.1836 160.496 75.4184 157.331C75.7628 156.845 74.9632 156.383 74.6249 156.863V156.863Z" fill="white"/>
<path d="M72.4046 153.489C68.4555 158.293 65.599 163.901 64.0337 169.922C64.0124 170.035 64.0344 170.153 64.0955 170.251C64.1566 170.349 64.2523 170.421 64.3636 170.452C64.4749 170.483 64.5938 170.471 64.6967 170.418C64.7996 170.366 64.879 170.276 64.9193 170.168C66.4447 164.305 69.2232 158.844 73.0627 154.16C73.4379 153.705 72.7859 153.046 72.4107 153.508L72.4046 153.489Z" fill="white"/>
<path d="M69.0278 151.248C65.0119 156.827 62.1778 163.169 60.6999 169.885C60.5769 170.463 61.4626 170.71 61.5918 170.125C63.0506 163.489 65.8536 157.224 69.8274 151.716C70.1719 151.23 69.3723 150.768 69.0278 151.248V151.248Z" fill="white"/>
<path d="M105.298 187.266C103.436 192.882 102.263 198.704 101.804 204.603C101.761 205.219 102.684 205.219 102.727 204.603C103.185 198.787 104.348 193.047 106.19 187.512C106.374 186.945 105.482 186.699 105.298 187.266Z" fill="white"/>
<path d="M106.799 190.067C105.785 193.578 104.964 197.142 104.338 200.743C104.234 201.359 105.126 201.574 105.23 200.989C105.856 197.388 106.677 193.824 107.69 190.313C107.723 190.195 107.707 190.068 107.647 189.962C107.586 189.855 107.486 189.776 107.368 189.744C107.249 189.711 107.123 189.727 107.016 189.787C106.91 189.848 106.831 189.949 106.799 190.067V190.067Z" fill="white"/>
<path d="M109.825 190.664C108.472 193.994 107.72 197.538 107.604 201.13C107.604 201.746 108.508 201.746 108.527 201.13C108.641 197.612 109.383 194.143 110.717 190.886C110.938 190.331 110.046 190.091 109.825 190.639V190.664Z" fill="white"/>
<path d="M112.925 194.106L109.505 204.178C109.314 204.738 110.2 204.985 110.391 204.424C111.535 201.063 112.676 197.705 113.816 194.352C114.007 193.785 113.115 193.545 112.925 194.106Z" fill="white"/>
<path d="M115.379 197.535C114.181 200.416 113.182 203.376 112.389 206.394C112.357 206.513 112.373 206.639 112.433 206.746C112.494 206.853 112.594 206.931 112.712 206.964C112.831 206.997 112.957 206.981 113.064 206.92C113.17 206.86 113.249 206.759 113.281 206.641C114.074 203.623 115.071 200.663 116.264 197.781C116.492 197.233 115.6 196.993 115.379 197.535Z" fill="white"/>
<path d="M117.574 199.21C116.491 202.838 115.004 206.332 113.14 209.627C113.079 209.733 113.062 209.859 113.094 209.978C113.126 210.096 113.203 210.197 113.309 210.258C113.415 210.319 113.541 210.336 113.659 210.304C113.777 210.273 113.878 210.195 113.939 210.089C115.842 206.727 117.359 203.16 118.46 199.456C118.481 199.342 118.459 199.225 118.398 199.127C118.337 199.029 118.241 198.957 118.13 198.926C118.019 198.895 117.9 198.907 117.797 198.96C117.694 199.012 117.615 199.101 117.574 199.21V199.21Z" fill="white"/>
<path d="M119.389 202.22L114.148 213.118C113.896 213.653 114.69 214.121 114.948 213.586L120.188 202.688C120.447 202.152 119.647 201.684 119.389 202.22Z" fill="white"/>
<path d="M122.157 204.72L116.523 214.792C116.233 215.309 117.033 215.777 117.322 215.26L122.95 205.188C123.003 205.083 123.015 204.962 122.982 204.849C122.949 204.736 122.874 204.64 122.773 204.58C122.672 204.52 122.552 204.502 122.437 204.528C122.323 204.553 122.222 204.622 122.157 204.72V204.72Z" fill="white"/>
<path d="M124.002 207.965C123.293 210.293 122.163 212.472 120.668 214.392C120.583 214.48 120.536 214.597 120.536 214.719C120.536 214.84 120.583 214.957 120.668 215.045C120.755 215.131 120.872 215.18 120.994 215.18C121.116 215.18 121.234 215.131 121.32 215.045C122.923 213.007 124.134 210.69 124.894 208.211C125.066 207.638 124.174 207.398 124.002 207.965V207.965Z" fill="white"/>
<path d="M126.21 210.994C125.398 212.576 124.592 214.165 123.78 215.753C123.516 216.276 124.309 216.744 124.58 216.215L127.003 211.455C127.274 210.926 126.48 210.458 126.21 210.994Z" fill="white"/>
<path d="M119.266 200.884L122.569 201.814C122.627 201.83 122.688 201.835 122.749 201.827C122.809 201.82 122.867 201.8 122.92 201.77C122.973 201.74 123.019 201.7 123.057 201.652C123.094 201.604 123.121 201.549 123.138 201.491C123.154 201.432 123.158 201.371 123.151 201.31C123.143 201.25 123.124 201.192 123.094 201.139C123.064 201.086 123.024 201.04 122.976 201.002C122.928 200.965 122.873 200.937 122.815 200.921L119.512 199.998C119.398 199.976 119.281 199.998 119.183 200.06C119.085 200.121 119.013 200.216 118.982 200.328C118.951 200.439 118.963 200.558 119.016 200.661C119.068 200.764 119.158 200.844 119.266 200.884V200.884Z" fill="white"/>
<path d="M116.049 197.03C121.699 197.483 127.223 198.942 132.36 201.34C132.895 201.592 133.369 200.792 132.828 200.546C127.542 198.086 121.86 196.591 116.049 196.131C115.434 196.082 115.434 197.006 116.049 197.055V197.03Z" fill="white"/>
<path d="M113.681 194.105C118.321 193.583 123.01 194.499 127.114 196.728C127.637 197.011 128.104 196.217 127.581 195.928C123.335 193.618 118.486 192.66 113.681 193.182C113.066 193.243 113.066 194.173 113.681 194.105Z" fill="white"/>
<path d="M107.518 188.029L123.448 191.723C124.02 191.858 124.272 190.966 123.688 190.836L107.758 187.142C107.186 187.013 106.934 187.9 107.518 188.035V188.029Z" fill="white"/>
<path d="M102.413 182.488C107.348 182.804 112.214 183.815 116.867 185.492C117.427 185.689 117.667 184.803 117.113 184.599C112.379 182.903 107.431 181.881 102.413 181.564C101.798 181.527 101.798 182.451 102.413 182.488Z" fill="white"/>
<path d="M100.365 178.486L115.028 181.527C115.606 181.644 115.852 180.758 115.274 180.635L100.611 177.593C100.033 177.476 99.7869 178.369 100.365 178.486Z" fill="white"/>
<path d="M95.2048 172.742C101.089 173.813 106.917 175.157 112.691 176.774C112.749 176.791 112.811 176.795 112.871 176.787C112.931 176.78 112.989 176.761 113.042 176.731C113.095 176.701 113.141 176.661 113.179 176.613C113.216 176.565 113.244 176.51 113.26 176.451C113.276 176.393 113.28 176.331 113.273 176.271C113.265 176.211 113.246 176.152 113.216 176.099C113.186 176.047 113.146 176 113.098 175.963C113.05 175.925 112.995 175.898 112.937 175.882C107.176 174.269 101.347 172.924 95.4508 171.849C94.8726 171.744 94.6205 172.631 95.2048 172.742Z" fill="white"/>
<path d="M86.2865 166.443C93.0767 167.835 99.8013 169.514 106.46 171.48C106.574 171.501 106.691 171.479 106.789 171.418C106.887 171.357 106.959 171.261 106.99 171.149C107.021 171.038 107.009 170.919 106.956 170.816C106.904 170.713 106.815 170.633 106.706 170.593C100.056 168.623 93.3309 166.942 86.5324 165.551C85.9543 165.434 85.7022 166.326 86.2865 166.443V166.443Z" fill="white"/>
<path d="M80.6894 160.071C90.6041 162.353 100.486 164.773 110.335 167.33C110.453 167.362 110.58 167.347 110.687 167.286C110.793 167.226 110.871 167.125 110.904 167.007C110.937 166.888 110.921 166.762 110.86 166.655C110.8 166.548 110.7 166.47 110.581 166.437C100.74 163.888 90.8584 161.471 80.9355 159.184C80.3573 159.049 80.1113 159.942 80.6894 160.071Z" fill="white"/>
<path d="M76.8453 155.219C86.5939 156.832 96.2046 159.191 105.593 162.275C106.153 162.46 106.399 161.567 105.833 161.382C96.446 158.301 86.8375 155.942 77.0913 154.326C76.5132 154.228 76.261 155.121 76.8453 155.219V155.219Z" fill="white"/>
<path d="M70.3688 151.47H76.0273C76.1496 151.47 76.2669 151.421 76.3534 151.335C76.4399 151.248 76.4886 151.131 76.4886 151.008C76.4886 150.886 76.4399 150.768 76.3534 150.682C76.2669 150.595 76.1496 150.546 76.0273 150.546H70.3688C70.2464 150.546 70.129 150.595 70.0425 150.682C69.956 150.768 69.9075 150.886 69.9075 151.008C69.9075 151.131 69.956 151.248 70.0425 151.335C70.129 151.421 70.2464 151.47 70.3688 151.47Z" fill="white"/>
<path d="M68.0254 145.652C80.0636 146.322 92.0096 148.149 103.699 151.107C103.757 151.123 103.818 151.127 103.879 151.12C103.939 151.112 103.997 151.093 104.05 151.063C104.103 151.033 104.149 150.993 104.187 150.945C104.224 150.897 104.251 150.842 104.268 150.784C104.284 150.725 104.288 150.664 104.281 150.603C104.273 150.543 104.254 150.485 104.224 150.432C104.194 150.379 104.154 150.332 104.106 150.295C104.058 150.258 104.003 150.23 103.945 150.214C92.1851 147.238 80.167 145.401 68.0561 144.728C67.4411 144.698 67.4411 145.621 68.0561 145.652H68.0254Z" fill="white"/>
<path d="M63.2894 141.447C67.496 140.882 71.7694 141.07 75.9104 142.001C76.4886 142.13 76.7345 141.237 76.1502 141.108C71.9333 140.144 67.579 139.935 63.2894 140.492C62.6744 140.572 62.6744 141.496 63.2894 141.416V141.447Z" fill="white"/>
<path d="M62.8404 137.229L70.3749 137.765C70.99 137.808 70.99 136.884 70.3749 136.841L62.8404 136.306C62.2254 136.263 62.2254 137.186 62.8404 137.229Z" fill="white"/>
<path d="M58.6027 132.938L69.44 133.88C70.055 133.929 70.055 133.005 69.44 132.956L58.6027 132.002C57.9876 131.953 57.9876 132.876 58.6027 132.925V132.938Z" fill="white"/>
<path d="M51.5295 128.357C55.748 128.261 59.9665 128.552 64.1321 129.225C64.7164 129.324 64.9624 128.431 64.3781 128.339C60.1323 127.641 55.8311 127.338 51.5295 127.434C51.4072 127.434 51.2898 127.482 51.2033 127.569C51.1168 127.656 51.0682 127.773 51.0682 127.896C51.0682 128.018 51.1168 128.135 51.2033 128.222C51.2898 128.309 51.4072 128.357 51.5295 128.357V128.357Z" fill="white"/>
<path d="M50.1088 124.848C54.2023 124.935 58.2772 125.426 62.2746 126.313C62.8528 126.436 63.0988 125.55 62.5206 125.42C58.4422 124.517 54.285 124.015 50.1088 123.924C49.9864 123.924 49.8691 123.973 49.7826 124.06C49.6961 124.146 49.6475 124.264 49.6475 124.386C49.6475 124.509 49.6961 124.626 49.7826 124.713C49.8691 124.799 49.9864 124.848 50.1088 124.848V124.848Z" fill="white"/>
<path d="M47.7593 120.335C51.3776 120.267 54.9964 120.446 58.5904 120.871C59.1747 120.938 59.1686 120.015 58.5904 119.947C54.9964 119.523 51.3776 119.344 47.7593 119.411C47.6369 119.411 47.5196 119.46 47.433 119.547C47.3465 119.633 47.298 119.751 47.298 119.873C47.298 119.996 47.3465 120.113 47.433 120.2C47.5196 120.286 47.6369 120.335 47.7593 120.335V120.335Z" fill="white"/>
<path d="M45.0345 117.423C53.4222 115.106 62.2634 114.981 70.7132 117.06C70.8314 117.092 70.9579 117.077 71.0646 117.016C71.1712 116.955 71.2495 116.855 71.2821 116.736C71.3148 116.618 71.2991 116.491 71.2385 116.385C71.178 116.278 71.0775 116.199 70.9592 116.167C62.3477 114.047 53.3368 114.174 44.7885 116.536C44.6802 116.577 44.591 116.656 44.5385 116.759C44.486 116.862 44.4741 116.981 44.505 117.093C44.5359 117.204 44.6075 117.3 44.7055 117.361C44.8036 117.422 44.921 117.444 45.0345 117.423Z" fill="white"/>
<path d="M42.6481 112.916C53.1881 111.327 63.8309 110.521 74.4896 110.502C77.5198 110.502 80.5459 110.562 83.5679 110.681C84.1829 110.681 84.1829 109.782 83.5679 109.757C72.8269 109.328 62.0689 109.694 51.3819 110.853C48.3805 111.177 45.3871 111.567 42.402 112.023C41.8177 112.109 42.0699 113.002 42.6481 112.916V112.916Z" fill="white"/>
<path d="M37.4508 107.375C49.7732 104.112 62.4693 102.479 75.2154 102.517C78.7827 102.517 82.35 102.661 85.9173 102.948C86.5324 102.997 86.5324 102.074 85.9173 102.025C73.1704 101.051 60.351 101.746 47.7838 104.093C44.2246 104.758 40.6942 105.554 37.1925 106.482C37.0742 106.515 36.9737 106.593 36.9132 106.7C36.8526 106.807 36.8369 106.933 36.8696 107.052C36.9022 107.17 36.9805 107.271 37.0871 107.331C37.1938 107.392 37.3203 107.407 37.4385 107.375H37.4508Z" fill="white"/>
<path d="M34.3264 104.198C44.043 101.392 54.1424 100.145 64.2489 100.504C64.864 100.504 64.864 99.5985 64.2489 99.58C54.068 99.2328 43.8963 100.5 34.1111 103.336C34.0029 103.376 33.9137 103.456 33.8612 103.559C33.8087 103.662 33.7967 103.781 33.8276 103.892C33.8585 104.003 33.9301 104.099 34.0282 104.16C34.1262 104.221 34.2436 104.244 34.3572 104.222L34.3264 104.198Z" fill="white"/>
<path d="M32.7702 98.5396C38.051 96.8124 43.6383 96.2289 49.1615 96.828C49.7765 96.8957 49.7765 95.966 49.1615 95.9045C43.5651 95.3063 37.9057 95.9001 32.5549 97.6468C31.9891 97.8316 32.2289 98.7243 32.7948 98.5396H32.7702Z" fill="white"/>
<path d="M30.5621 95.1347C34.9473 93.2893 39.7208 92.5596 44.4563 93.0107C45.0714 93.0661 45.0714 92.1425 44.4563 92.0871C39.6356 91.6285 34.7763 92.3687 30.31 94.242C29.7687 94.4698 30.0025 95.3625 30.5499 95.1347H30.5621Z" fill="white"/>
<path d="M28.5633 90.6222C32.738 90.0664 36.9576 89.9282 41.1597 90.2097C41.7748 90.2528 41.7748 89.3293 41.1597 89.2862C36.8767 89.0045 32.5762 89.1551 28.3234 89.7356C27.7083 89.8157 27.9851 90.7022 28.5633 90.6222V90.6222Z" fill="white"/>
<path d="M24.2025 87.3714C28.7607 87.1269 33.3311 87.2525 37.8691 87.7469C38.4841 87.8146 38.4841 86.8911 37.8691 86.8234C33.3311 86.3289 28.7607 86.2034 24.2025 86.4478C23.5874 86.4786 23.5874 87.4021 24.2025 87.3714Z" fill="white"/>
<path d="M25.5925 83.8371C29.3621 84.1243 33.1458 84.1778 36.9219 83.9972C37.537 83.9972 37.537 83.0429 36.9219 83.0737C33.1458 83.2543 29.3621 83.2008 25.5925 82.9136C24.9775 82.8705 24.9775 83.794 25.5925 83.8371Z" fill="white"/>
<path d="M21.8591 79.4045C25.7596 78.8999 29.6946 78.7146 33.6252 78.8504C34.2402 78.8504 34.2402 77.9453 33.6252 77.9269C29.6946 77.7911 25.7596 77.9764 21.8591 78.481C21.2441 78.5549 21.2441 79.4784 21.8591 79.4045Z" fill="white"/>
<path d="M18.0828 74.1588L28.8954 73.0383C29.5105 72.9767 29.5105 72.0532 28.8954 72.1148L18.0828 73.2353C17.4677 73.2969 17.4677 74.2204 18.0828 74.1588Z" fill="white"/>
<path d="M16.7665 70.7233C20.9122 69.8586 25.1604 69.5932 29.3813 69.9352C29.9964 69.9844 29.9964 69.0609 29.3813 69.0117C25.0773 68.6707 20.7467 68.9464 16.5205 69.8305C15.9423 69.9537 16.1884 70.8402 16.7665 70.7233Z" fill="white"/>
<path d="M17.2401 66.0378C20.1235 65.2805 23.1097 64.9916 26.0846 65.182C26.6996 65.2189 26.6996 64.2954 26.0846 64.2585C23.0286 64.0655 19.9614 64.3648 17.0002 65.1451C16.8819 65.1769 16.7811 65.2545 16.72 65.3607C16.6588 65.4669 16.6424 65.5931 16.6742 65.7115C16.706 65.8299 16.7835 65.9308 16.8896 65.992C16.9957 66.0532 17.1218 66.0696 17.2401 66.0378Z" fill="white"/>
<path d="M18.8823 61.4448L20.7644 61.925C20.8825 61.9537 21.0072 61.9359 21.1125 61.8751C21.2178 61.8144 21.2958 61.7154 21.3302 61.5987C21.3624 61.4812 21.3468 61.3557 21.2869 61.2496C21.227 61.1434 21.1277 61.0654 21.0105 61.0323L19.1345 60.5829C19.0759 60.567 19.0148 60.5629 18.9547 60.5708C18.8945 60.5786 18.8365 60.5982 18.7839 60.6285C18.7314 60.6588 18.6853 60.6992 18.6484 60.7474C18.6114 60.7956 18.5843 60.8505 18.5686 60.9092C18.5381 61.0267 18.5544 61.1515 18.6141 61.2571C18.6738 61.3628 18.7722 61.4412 18.8885 61.4756L18.8823 61.4448Z" fill="white"/>
<path d="M16.379 67.848C13.2267 72.9136 10.5756 78.2748 8.46317 83.8557C8.25405 84.4159 9.14585 84.6561 9.35497 84.102C11.4404 78.6022 14.0608 73.3209 17.1785 68.3344C17.4922 67.8295 16.6926 67.3616 16.379 67.8664V67.848Z" fill="white"/>
<path d="M14.9519 65.8287C12.4306 68.4963 10.367 71.5626 8.84445 74.9038C8.60457 75.4395 9.39795 75.9135 9.64398 75.3717C11.1238 72.0961 13.1404 69.0912 15.6101 66.4813C16.016 66.0442 15.364 65.3915 14.9519 65.8287Z" fill="white"/>
<path d="M12.4058 61.7465C11.9026 63.5918 11.016 65.31 9.804 66.7889C9.71909 66.8762 9.67163 66.9933 9.67163 67.1152C9.67163 67.2371 9.71909 67.3541 9.804 67.4415C9.89049 67.528 10.0078 67.5765 10.13 67.5765C10.2522 67.5765 10.3695 67.528 10.456 67.4415C11.7748 65.846 12.7412 63.989 13.2914 61.9927C13.3127 61.8791 13.2906 61.7615 13.2295 61.6634C13.1684 61.5652 13.0728 61.4936 12.9615 61.4626C12.8502 61.4317 12.7313 61.4437 12.6284 61.4962C12.5255 61.5488 12.4461 61.6381 12.4058 61.7465V61.7465Z" fill="white"/>
</g>
<defs>
<clipPath id="clip0_107_472">
<rect width="162" height="256" fill="white"/>
</clipPath>
</defs>
</svg>
