<svg width="289" height="240" viewBox="0 0 289 240" fill="none" xmlns="http://www.w3.org/2000/svg">
<g clip-path="url(#clip0_106_31)">
<path d="M119.619 166.835C116.425 156.382 120.395 145.616 126.853 137.262C133.724 128.345 143.379 122.001 153.672 117.693C155.246 116.955 156.891 116.379 158.582 115.974C159.973 115.664 161.307 115.141 162.537 114.422C165.036 113.05 167.434 111.211 170.418 111.225C170.563 111.215 170.699 111.151 170.799 111.045C170.899 110.94 170.956 110.801 170.959 110.656C170.961 110.511 170.909 110.37 170.813 110.261C170.717 110.153 170.583 110.084 170.438 110.069C167.778 110.051 165.488 111.348 163.25 112.679C162.116 113.398 160.912 114.002 159.658 114.482C159.082 114.684 158.491 114.837 157.89 114.939C157.007 115.138 156.147 115.429 155.325 115.808C149.41 118.083 143.783 121.044 138.56 124.63C130.092 130.53 122.699 138.802 119.205 148.639C117.088 154.589 116.656 161.062 118.512 167.136C118.728 167.849 119.85 167.565 119.633 166.847L119.619 166.835Z" fill="white"/>
<path d="M115.68 169.825C113.708 170.553 111.809 171.466 110.009 172.552C108.077 173.645 106.088 174.625 104.098 175.6C99.8182 177.745 95.5389 179.887 91.2605 182.024C88.7957 183.258 86.3309 184.492 83.8661 185.726C83.1975 186.058 83.7749 187.06 84.4423 186.723C88.6859 184.601 92.9324 182.478 97.1818 180.351C101.303 178.29 105.508 176.35 109.547 174.134C111.65 172.981 113.704 171.719 115.973 170.942C116.673 170.708 116.389 169.589 115.685 169.824L115.68 169.825Z" fill="white"/>
<path d="M89.0348 182.641L104.657 154.301C105.019 153.645 104.018 153.061 103.661 153.715L88.0337 182.036C87.6718 182.691 88.6677 183.277 89.0309 182.626L89.0348 182.641Z" fill="white"/>
<path d="M104.975 154.298C110.443 153.89 115.639 151.751 119.807 148.192C120.374 147.711 119.557 146.894 118.99 147.374C115.053 150.729 110.15 152.75 104.99 153.143C104.255 153.196 104.239 154.35 104.975 154.298Z" fill="white"/>
<path d="M47.4426 234.759C46.1926 233.889 45.3914 232.988 45.4468 231.372C45.5082 229.554 46.6965 227.985 47.7968 226.651C50.1768 223.793 52.6485 221.002 55.0686 218.176L69.5431 201.33C70.3619 200.387 71.3076 199.564 71.4603 198.284C71.4957 198.01 71.4912 197.746 71.5053 197.451C71.5843 196.768 71.8708 196.126 72.3261 195.611C74.3286 192.807 76.263 189.958 78.1293 187.065C81.787 181.401 85.1817 175.576 88.3132 169.588C91.3957 163.713 93.9351 157.606 96.8548 151.656C97.3046 150.744 97.8731 149.696 97.9066 148.653C97.9487 147.439 96.7809 146.558 96.1182 145.658C94.3857 143.315 92.9348 140.777 91.7951 138.096C86.9932 126.829 87.6634 113.713 91.4866 102.254C93.5977 96.035 96.5727 90.1423 100.324 84.7481C102.23 81.9814 104.291 79.3247 106.497 76.7908C108.583 74.3963 110.156 71.5192 112.139 69.0185C116.044 63.9713 120.743 59.5897 126.052 56.0447C129.039 54.096 132.255 52.5015 135.398 50.8255C138.54 49.1495 141.673 47.5022 144.823 45.8772C151.153 42.6194 157.695 39.7895 163.988 36.4723C166.94 35.002 169.743 33.2497 172.358 31.2401C173.745 30.1253 175.111 28.9858 176.458 27.8215C177.789 26.6823 178.848 25.3747 180.103 24.1651C182.571 21.8042 185.38 19.8272 188.437 18.3006C191.401 16.8403 194.621 16.0029 197.68 14.7622C199.143 14.1929 200.549 13.4853 201.877 12.6491C202.56 12.2076 203.238 11.5606 204.098 12.0753C205.152 12.6991 204.64 14.1728 204.55 15.1398C204.17 18.6845 203.98 22.2487 203.778 25.8056C203.576 29.3625 203.456 32.7817 203.179 36.257C202.903 39.7323 202.63 43.2599 201.766 46.6591C200.96 49.5575 200.316 52.4978 199.834 55.4666C199.478 57.9551 199.132 60.4198 198.758 62.9184C197.236 72.8021 195.155 83.1488 189.224 91.4465C187.786 93.4588 186.124 95.3009 184.268 96.9368C182.105 98.8475 179.597 100.264 177.446 102.22C176.095 103.444 174.19 105.017 175.724 106.944C175.949 107.23 176.235 107.464 176.561 107.628C176.887 107.792 177.245 107.882 177.61 107.893C178.298 107.842 178.978 107.714 179.637 107.513C180.509 107.33 181.391 107.187 182.276 107.075C189.128 106.19 196.068 107.122 202.894 107.798C206.492 108.157 210.097 108.312 213.709 108.535C217.084 108.819 220.471 108.934 223.858 108.877C237.607 108.363 250.869 104.12 263.95 100.221C264.591 100.029 265.505 99.5969 266.181 99.6448C267.51 99.7309 267.459 101.011 267.312 101.967C267.108 103.48 266.798 104.978 266.382 106.448C265.526 109.439 264.336 112.325 262.836 115.053C259.863 120.529 255.842 125.115 251.97 129.949C249.797 132.663 247.92 135.576 245.76 138.297C243.714 140.873 241.516 143.325 239.178 145.639C236.639 148.151 233.992 150.59 231.238 152.865C228.485 155.141 225.626 157.03 222.965 159.292C220.176 161.674 217.26 163.903 214.23 165.971C211.366 167.919 208.885 170.347 206.149 172.485C200.592 176.821 194.228 181.037 187.183 182.391C185.447 182.722 183.619 182.744 181.858 182.939C180.211 183.121 178.571 183.332 176.928 183.555C173.256 184.064 169.596 184.66 165.927 185.22C162.519 185.746 159.055 186.465 155.605 186.535C152.407 186.56 149.22 186.177 146.12 185.396C139.639 183.767 133.367 181.404 127.424 178.355C126.201 177.732 125.016 176.972 123.66 176.639C122.475 176.37 121.252 176.313 120.047 176.469C117.286 176.785 114.678 177.856 112.114 178.869C105.961 181.333 99.8187 183.588 93.9672 186.765C89.6626 189.147 85.5204 191.812 81.5676 194.74C81.031 195.128 80.5668 195.607 80.196 196.155C79.1851 197.609 78.1956 199.084 77.1874 200.548C75.0869 203.604 72.974 206.652 70.8485 209.693C66.6822 215.637 62.4704 221.548 58.2129 227.427C56.1336 230.297 54.092 233.211 51.9337 236.022C50.4758 237.925 48.8492 235.885 47.5642 234.839C46.992 234.372 46.1649 235.2 46.7133 235.658C47.6922 236.465 48.8725 237.846 50.1911 238.036C50.6509 238.099 51.1193 238.036 51.5466 237.855C51.974 237.674 52.3443 237.38 52.6183 237.006C53.8749 235.557 54.9264 233.87 56.0576 232.326C60.4381 226.334 64.7667 220.306 69.0436 214.242C71.1766 211.217 73.3021 208.176 75.42 205.119C76.4781 203.594 77.5304 202.068 78.5768 200.539L80.0811 198.342C80.5489 197.516 81.1067 196.745 81.7443 196.041C82.8852 195.105 84.0799 194.237 85.3225 193.441C87.8975 191.634 90.5684 189.967 93.3235 188.447C96.4288 186.703 99.6235 185.122 102.894 183.711C105.963 182.388 109.121 181.307 112.22 180.061C114.964 178.96 117.861 177.713 120.854 177.56C124.169 177.393 126.918 179.482 129.822 180.789C135.68 183.438 141.894 185.857 148.239 187.038C151.26 187.631 154.346 187.825 157.419 187.615C160.905 187.334 164.41 186.63 167.868 186.092C171.607 185.513 175.346 184.913 179.099 184.431C182.627 183.981 186.233 183.956 189.661 182.954C196.363 180.994 202.265 177.047 207.669 172.734C209.026 171.652 210.349 170.542 211.652 169.399C213.22 168.096 214.856 166.875 216.551 165.742C219.489 163.647 222.159 161.271 224.99 159.05C227.821 156.829 230.74 154.823 233.456 152.483C236.171 150.143 238.749 147.743 241.205 145.179C243.534 142.776 245.716 140.234 247.739 137.569C249.95 134.654 251.927 131.593 254.34 128.822C258.328 124.25 262.028 119.328 264.708 113.869C266.021 111.234 267.044 108.465 267.76 105.61C268.226 103.692 269.488 100.127 267.31 98.8335C266.242 98.1923 265.136 98.6423 264.041 98.9677C262.291 99.494 260.545 100.014 258.795 100.54C255.273 101.588 251.746 102.621 248.192 103.566C241.373 105.381 234.436 106.908 227.391 107.498C223.959 107.809 220.509 107.847 217.072 107.613C213.394 107.339 209.699 107.243 206.028 106.935C198.969 106.341 191.87 105.206 184.751 105.677C183.215 105.775 181.686 105.957 180.17 106.224C179.038 106.427 176.669 107.457 176.299 105.634C176.06 104.38 178.156 103.097 178.937 102.397C180.177 101.386 181.468 100.439 182.804 99.5577C191.086 93.4309 195.379 83.9339 197.739 74.1727C198.942 69.2066 199.708 64.152 200.433 59.1027C200.772 56.2394 201.263 53.3959 201.903 50.5842C202.831 47.2372 203.5 43.8241 203.903 40.3753C204.582 33.3389 204.767 26.2818 205.295 19.2368C205.428 17.4686 205.617 15.7125 205.795 13.954C205.906 12.8012 205.717 11.7206 204.636 11.0721C204.194 10.8208 203.687 10.7063 203.179 10.7431C202.671 10.7799 202.186 10.9664 201.784 11.2788C200.309 12.2484 198.742 13.069 197.104 13.7284C194.02 14.9706 190.783 15.828 187.789 17.2961C184.776 18.8219 181.992 20.7637 179.521 23.0642C178.385 24.1158 177.462 25.3775 176.31 26.3857C174.842 27.6556 173.358 28.9015 171.857 30.1235C169.005 32.4509 165.769 34.236 162.511 35.9155C159.253 37.5949 156.009 39.0638 152.734 40.594C149.458 42.1242 146.147 43.8863 142.891 45.5545C139.636 47.2227 136.341 48.9859 133.076 50.7414C129.998 52.4007 126.897 53.9867 124.031 55.9942C118.893 59.6688 114.346 64.1048 110.547 69.1487C108.431 71.8959 106.591 74.8101 104.372 77.4672C102.294 79.9505 100.352 82.5443 98.5544 85.2372C91.5917 95.7102 87.1913 108.061 87.2286 120.708C87.1901 126.605 88.283 132.455 90.4481 137.94C91.5835 140.762 93.0557 143.436 94.8328 145.906C95.255 146.491 95.7045 147.059 96.149 147.628C96.6489 148.268 96.7843 148.524 96.5792 149.293C96.1863 150.651 95.3695 151.87 94.8165 153.163C89.273 166.112 82.5153 178.51 74.6336 190.19C73.7115 191.556 72.7743 192.911 71.8221 194.257C71.0827 195.301 70.4076 196.101 70.3236 197.401C70.3478 197.891 70.2659 198.38 70.0835 198.836C69.6602 199.624 68.8025 200.355 68.2188 201.036L64.2007 205.716C59.2662 211.456 54.3355 217.196 49.4084 222.936C47.5793 225.068 45.0826 227.331 44.4175 230.164C44.1508 231.26 44.2365 232.413 44.6626 233.457C45.1274 234.578 45.8831 235.056 46.8397 235.715C47.4643 236.179 48.0507 235.18 47.4426 234.759Z" fill="white"/>
<path d="M51.8083 234.384C55.5232 229.133 59.244 223.884 62.9705 218.637C63.2545 218.235 62.5905 217.845 62.3065 218.247C58.5841 223.496 54.8634 228.745 51.1443 233.993C50.8567 234.402 51.5194 234.787 51.8083 234.384Z" fill="white"/>
<path d="M72.3371 198.408C76.6365 193.259 80.4789 187.746 83.8207 181.931C87.3661 175.751 90.2042 169.217 93.0937 162.718L98.2066 151.233C98.4041 150.784 97.745 150.392 97.5426 150.842C94.5549 157.558 91.6273 164.3 88.5495 170.975C85.7551 177.134 82.4654 183.057 78.7128 188.686C76.5683 191.852 74.2659 194.908 71.814 197.843C71.5025 198.221 72.0528 198.768 72.3594 198.392L72.3371 198.408Z" fill="white"/>
<path d="M87.9691 180.388C91.4498 172.612 95.3672 165.037 99.7024 157.701C100.934 155.616 102.21 153.536 103.531 151.463C103.794 151.045 103.13 150.655 102.862 151.074C98.2956 158.272 94.1363 165.719 90.4032 173.38C89.3343 175.576 88.3111 177.784 87.3338 180.006C87.1301 180.451 87.7954 180.846 87.9978 180.396L87.9691 180.388Z" fill="white"/>
<path d="M99.2621 153.796L103.138 146.714C103.375 146.276 102.711 145.885 102.474 146.323L98.5981 153.406C98.3593 153.839 99.0246 154.234 99.2621 153.796Z" fill="white"/>
<path d="M106.625 139.895C108.225 138.24 109.551 136.34 110.552 134.268C111.754 131.948 112.844 129.567 113.976 127.206L121.047 112.506L125.082 104.126C125.404 103.459 124.411 102.867 124.086 103.54C119.447 113.222 114.869 122.888 110.146 132.512C108.982 134.875 107.705 137.209 105.807 139.073C105.703 139.182 105.646 139.328 105.648 139.478C105.65 139.629 105.71 139.773 105.817 139.88C105.923 139.986 106.067 140.048 106.217 140.051C106.368 140.054 106.514 139.998 106.625 139.895V139.895Z" fill="white"/>
<path d="M133.052 95.5185C136.427 90.1982 139.828 84.8764 143.713 79.9068C147.649 74.9144 152.133 70.3771 157.079 66.3796C159.891 64.0625 162.825 61.8889 165.72 59.7094C166.308 59.2711 165.745 58.2609 165.148 58.7067C159.913 62.6253 154.656 66.5603 149.973 71.1368C145.414 75.5915 141.519 80.6696 137.933 85.912C135.91 88.8738 133.977 91.9021 132.056 94.9327C131.657 95.5662 132.657 96.1456 133.052 95.5185V95.5185Z" fill="white"/>
<path d="M171.284 56.2412C183.915 50.8255 191.608 38.6155 196.885 26.5102C198.488 22.8247 199.941 19.0719 201.389 15.3204C201.66 14.6245 200.545 14.3187 200.277 15.0083C195.462 27.4821 190.324 40.575 179.87 49.5004C177.128 51.8598 174.046 53.793 170.727 55.2347C170.043 55.528 170.624 56.5231 171.304 56.236L171.284 56.2412Z" fill="white"/>
<path d="M128.775 168.86C142.783 162.204 156.857 155.68 170.997 149.288C174.962 147.497 178.929 145.717 182.899 143.949C183.58 143.646 182.998 142.646 182.321 142.948C168.154 149.263 154.048 155.71 140.002 162.29C136.066 164.134 132.134 165.989 128.207 167.856C127.535 168.173 128.112 169.174 128.784 168.857L128.775 168.86Z" fill="white"/>
<path d="M192.492 139.832C201.999 137.233 211.505 134.592 220.786 131.261C229.959 127.968 238.947 123.997 247.177 118.738C251.776 115.818 256.085 112.464 260.043 108.723C260.586 108.211 259.772 107.387 259.231 107.904C252.227 114.554 244.031 119.784 235.352 123.982C226.576 128.217 217.341 131.414 208.021 134.225C202.773 135.808 197.487 137.269 192.183 138.719C192.047 138.768 191.934 138.866 191.867 138.994C191.799 139.122 191.782 139.27 191.818 139.41C191.854 139.55 191.941 139.671 192.062 139.75C192.183 139.829 192.329 139.86 192.472 139.838L192.492 139.832Z" fill="white"/>
<path d="M245.764 118.779C250.126 114.279 254.088 109.409 257.606 104.225C258.027 103.613 257.031 103.027 256.61 103.639C253.145 108.738 249.244 113.528 244.951 117.955C244.431 118.493 245.244 119.317 245.764 118.779Z" fill="white"/>
<path d="M234 127.487C240.459 127.895 246.94 127.119 253.122 125.198C253.83 124.978 253.546 123.858 252.833 124.079C246.751 125.969 240.374 126.73 234.019 126.326C233.274 126.28 233.243 127.438 233.998 127.482L234 127.487Z" fill="white"/>
<path d="M216.869 131.255C220.471 124.303 225.059 117.907 230.492 112.264C231.007 111.728 230.194 110.904 229.675 111.446C224.171 117.157 219.523 123.632 215.873 130.669C215.514 131.334 216.53 131.915 216.869 131.255V131.255Z" fill="white"/>
<path d="M197.771 140.033C201.992 141.445 206.262 142.696 210.581 143.786C214.819 144.915 219.116 145.808 223.454 146.462C225.804 146.831 228.201 146.796 230.541 146.36C231.27 146.203 230.981 145.085 230.252 145.241C226.078 146.113 221.749 145.084 217.666 144.251C213.464 143.368 209.299 142.323 205.169 141.117C202.794 140.437 200.437 139.703 198.098 138.914C197.394 138.677 197.082 139.792 197.786 140.029L197.771 140.033Z" fill="white"/>
<path d="M182.694 140.545C186.7 132.6 191.595 125.133 197.285 118.287C198.907 116.341 200.586 114.453 202.323 112.622C202.832 112.082 202.019 111.258 201.505 111.799C195.342 118.307 189.934 125.486 185.382 133.202C184.079 135.412 182.849 137.663 181.692 139.956C181.333 140.621 182.355 141.205 182.693 140.54L182.694 140.545Z" fill="white"/>
<path d="M162.216 154.839C165.408 159.38 170.636 161.645 175.539 163.846C180.796 166.199 186.122 168.535 191.737 169.873C194.886 170.655 198.12 171.045 201.365 171.033C202.106 171.022 202.126 169.867 201.381 169.879C195.76 169.942 190.279 168.505 185.045 166.586C182.365 165.592 179.716 164.469 177.142 163.326C174.737 162.24 172.265 161.187 169.937 159.885C167.364 158.461 164.929 156.704 163.222 154.271C162.796 153.671 161.79 154.238 162.219 154.848L162.216 154.839Z" fill="white"/>
<path d="M141.456 161.4C140.998 155.103 142.487 148.939 144.728 143.058C145.853 140.09 147.16 137.191 148.516 134.317C149.871 131.443 151.179 128.629 152.718 125.909C154.36 122.85 156.56 120.124 159.205 117.871C159.78 117.404 158.963 116.586 158.388 117.053C153.402 121.093 150.666 127.097 147.975 132.76C145.215 138.526 142.572 144.416 141.175 150.667C140.355 154.177 140.056 157.788 140.288 161.384C140.341 162.123 141.496 162.132 141.446 161.403L141.456 161.4Z" fill="white"/>
<path d="M129.689 170.691C132.029 174.474 135.329 177.573 139.255 179.673C143.178 181.782 147.502 182.993 151.791 184.133C152.51 184.323 152.829 183.212 152.11 183.022C147.986 181.924 143.822 180.778 140.033 178.777C136.197 176.778 132.971 173.786 130.692 170.114C130.301 169.483 129.296 170.056 129.689 170.691V170.691Z" fill="white"/>
<path d="M195.447 34.5801L202.894 26.7393C203.402 26.1996 202.59 25.3807 202.077 25.9217L194.629 33.7575C194.121 34.2972 194.934 35.121 195.454 34.6049L195.447 34.5801Z" fill="white"/>
<path d="M195.96 24.1669C195.57 21.3139 195.898 18.408 196.916 15.7124C197.176 15.0141 196.061 14.7083 195.775 15.4081C194.706 18.3005 194.377 21.4125 194.815 24.4628C194.855 24.6101 194.95 24.7363 195.081 24.8143C195.213 24.8923 195.369 24.916 195.518 24.8803C195.665 24.8383 195.79 24.7415 195.868 24.6099C195.946 24.4784 195.97 24.322 195.936 24.1733L195.96 24.1669Z" fill="white"/>
<path d="M179.966 27.4824L183.546 41.5839C183.595 41.7197 183.693 41.8323 183.821 41.8996C183.949 41.967 184.097 41.9842 184.237 41.948C184.378 41.9118 184.499 41.8248 184.578 41.7039C184.658 41.5831 184.689 41.437 184.666 41.2944L181.087 27.193C181.038 27.0572 180.94 26.9446 180.812 26.8772C180.684 26.8099 180.535 26.7926 180.395 26.8288C180.255 26.865 180.134 26.9521 180.054 27.073C179.975 27.1938 179.944 27.3398 179.966 27.4824V27.4824Z" fill="white"/>
<path d="M174.683 56.3813C182.625 57.1371 190.63 55.8324 197.923 52.5936C198.606 52.2953 198.023 51.2952 197.351 51.591C190.239 54.73 182.438 55.982 174.703 55.2256C173.957 55.1533 173.923 56.3179 174.683 56.3813Z" fill="white"/>
<path d="M155.691 62.3427C155.905 54.6618 158.046 47.1553 161.919 40.5116C161.997 40.3797 162.019 40.2223 161.981 40.0741C161.942 39.9259 161.847 39.799 161.715 39.7213C161.582 39.6437 161.425 39.6216 161.276 39.6599C161.128 39.6983 161.001 39.794 160.923 39.9259C156.949 46.7419 154.752 54.4432 154.533 62.3237C154.544 62.4684 154.608 62.6041 154.713 62.7039C154.819 62.8037 154.958 62.8604 155.103 62.8628C155.248 62.8652 155.389 62.8131 155.498 62.7168C155.607 62.6206 155.676 62.4871 155.691 62.3427V62.3427Z" fill="white"/>
<path d="M149.677 74.9672C160.054 78.4069 171.117 79.2687 181.908 77.4781C184.988 76.9667 188.029 76.2378 191.007 75.297C191.714 75.0719 191.43 73.9523 190.718 74.1786C180.405 77.4316 169.453 78.1074 158.822 76.1466C155.825 75.5922 152.871 74.8282 149.981 73.8601C149.272 73.6244 148.96 74.739 149.663 74.971L149.677 74.9672Z" fill="white"/>
<path d="M132.189 85.9273C131.097 83.7546 130.997 81.3098 131.177 78.9249C131.358 76.54 131.699 74.0765 131.994 71.662L132.864 64.4386C133.067 62.4741 133.399 60.5249 133.859 58.6038C134.355 56.4445 135.338 54.4262 136.733 52.7023C137.209 52.1393 136.4 51.3142 135.916 51.8848C133.199 55.0628 132.379 59.2088 131.853 63.2415C131.534 65.7048 131.251 68.169 130.955 70.642C130.646 73.2298 130.27 75.8242 130.055 78.4249C129.832 81.1812 129.945 83.9833 131.185 86.4997C131.516 87.1669 132.52 86.5895 132.189 85.9273Z" fill="white"/>
<path d="M126.762 109.418C133.159 110.73 139.734 110.944 146.205 110.053C149.439 109.604 152.627 108.874 155.734 107.872C159.046 106.75 162.294 105.451 165.465 103.979C169.071 102.291 172.76 100.784 176.517 99.4645C177.222 99.2345 176.938 98.1148 176.228 98.3461C169.643 100.514 163.552 103.895 157.013 106.221C147.411 109.639 137.057 110.366 127.075 108.325C126.352 108.177 126.033 109.288 126.769 109.464L126.762 109.418Z" fill="white"/>
<path d="M107.907 77.0844C107.739 82.1913 107.76 87.3129 108.02 92.4312C108.286 97.5016 108.921 102.546 109.922 107.523C110.499 110.417 111.157 113.291 111.809 116.165C111.858 116.301 111.956 116.414 112.084 116.481C112.212 116.549 112.361 116.566 112.501 116.53C112.641 116.493 112.763 116.406 112.842 116.285C112.921 116.165 112.952 116.019 112.93 115.876C111.795 110.909 110.66 105.938 109.95 100.888C109.299 95.8463 108.974 90.7679 108.976 85.684C108.946 82.8284 108.977 79.9732 109.068 77.1183C109.058 76.9736 108.994 76.8379 108.889 76.7381C108.783 76.6383 108.644 76.5816 108.499 76.5792C108.353 76.5768 108.212 76.6289 108.104 76.7252C107.995 76.8215 107.926 76.9549 107.911 77.0993L107.907 77.0844Z" fill="white"/>
<path d="M107.244 138.983C108.607 139.569 110.039 139.395 111.479 139.294C113.232 139.17 114.981 139.031 116.725 138.813C120.187 138.467 123.57 137.562 126.743 136.135C127.414 135.813 126.838 134.817 126.166 135.134C123.237 136.446 120.121 137.29 116.931 137.636C115.332 137.842 113.726 137.976 112.12 138.094C110.78 138.191 109.112 138.542 107.842 137.985C107.171 137.692 106.572 138.684 107.254 138.98L107.244 138.983Z" fill="white"/>
<path d="M87.5032 123.251C89.2045 130.257 92.6678 136.713 97.5657 142.008C98.0687 142.557 98.8898 141.745 98.3868 141.197C93.6334 136.046 90.2734 129.77 88.6237 122.961C88.5746 122.825 88.4765 122.713 88.3486 122.645C88.2207 122.578 88.0721 122.561 87.932 122.597C87.7919 122.633 87.6704 122.72 87.5911 122.841C87.5118 122.962 87.4804 123.108 87.5032 123.251V123.251Z" fill="white"/>
<path d="M240.757 125.614C243.913 124.528 247.304 124.495 250.53 123.698C253.662 122.916 256.666 121.688 259.448 120.053C259.537 120.002 259.602 119.918 259.629 119.819C259.656 119.72 259.642 119.614 259.591 119.526C259.54 119.437 259.455 119.372 259.356 119.345C259.257 119.319 259.152 119.333 259.063 119.384C256.271 121.027 253.252 122.248 250.102 123.008C246.951 123.764 243.643 123.813 240.564 124.868C240.076 125.036 240.269 125.782 240.757 125.614V125.614Z" fill="white"/>
<path d="M250.075 121.732C252.349 120.936 254.607 120.079 256.848 119.16C257.968 118.702 259.082 118.223 260.198 117.733C260.812 117.458 262.037 117.141 261.814 116.255C261.788 116.156 261.724 116.072 261.636 116.02C261.548 115.968 261.443 115.953 261.344 115.979C261.245 116.005 261.16 116.068 261.108 116.156C261.056 116.244 261.041 116.349 261.067 116.448C261.119 116.652 258.754 117.55 258.481 117.646C257.526 118.063 256.551 118.469 255.555 118.864C253.683 119.618 251.788 120.319 249.883 120.986C249.395 121.155 249.588 121.9 250.075 121.732Z" fill="white"/>
<path d="M255.049 116.885C257.743 116.181 260.326 115.107 262.724 113.693C262.813 113.642 262.878 113.557 262.905 113.459C262.932 113.36 262.918 113.254 262.867 113.166C262.816 113.077 262.731 113.012 262.632 112.985C262.533 112.959 262.428 112.972 262.339 113.024C259.997 114.407 257.474 115.457 254.842 116.143C254.742 116.168 254.658 116.232 254.606 116.32C254.554 116.408 254.539 116.513 254.564 116.612C254.59 116.711 254.654 116.796 254.742 116.847C254.83 116.899 254.935 116.914 255.034 116.888L255.049 116.885Z" fill="white"/>
<path d="M258.004 113.125L264.443 109.755C264.882 109.524 264.498 108.86 264.058 109.09C261.911 110.211 259.767 111.334 257.625 112.46C257.185 112.69 257.564 113.356 258.004 113.125Z" fill="white"/>
<path d="M260.275 108.737C262.621 107.836 264.726 106.404 266.425 104.556C266.755 104.189 266.19 103.646 265.88 104.007C264.28 105.763 262.296 107.126 260.083 107.991C259.629 108.167 259.791 108.92 260.275 108.737Z" fill="white"/>
<path d="M260.942 106.115C263.018 104.2 265.004 102.196 266.899 100.101C267.235 99.7335 266.689 99.1851 266.359 99.5515C264.464 101.649 262.477 103.654 260.396 105.567C260.032 105.905 260.577 106.453 260.942 106.115Z" fill="white"/>
<path d="M257.9 106.965L261.413 101.503C261.682 101.083 261.013 100.694 260.749 101.112L257.236 106.574C256.967 106.994 257.631 107.384 257.9 106.965Z" fill="white"/>
<path d="M216.42 124.971C220.496 119.132 225.034 113.628 229.99 108.512C230.063 108.44 230.104 108.342 230.105 108.239C230.105 108.137 230.065 108.038 229.992 107.966C229.92 107.893 229.822 107.852 229.719 107.852C229.616 107.851 229.518 107.892 229.445 107.964C224.447 113.131 219.87 118.688 215.756 124.581C215.468 124.989 216.136 125.373 216.42 124.971Z" fill="white"/>
<path d="M219.191 116.493C220.841 114.015 222.737 111.71 224.85 109.612C224.923 109.54 224.965 109.442 224.965 109.339C224.965 109.237 224.925 109.138 224.853 109.065C224.78 108.993 224.682 108.952 224.579 108.951C224.477 108.951 224.378 108.991 224.305 109.064C222.138 111.211 220.194 113.572 218.502 116.109C218.226 116.52 218.89 116.91 219.166 116.499L219.191 116.493Z" fill="white"/>
<path d="M216.285 114.783C217.648 112.87 219.127 111.041 220.713 109.307C221.05 108.945 220.51 108.395 220.174 108.763C218.541 110.543 217.02 112.424 215.621 114.393C215.332 114.796 216.001 115.186 216.285 114.783V114.783Z" fill="white"/>
<path d="M211.741 115.332C213.26 113.228 214.924 111.232 216.721 109.358C217.064 108.999 216.523 108.45 216.176 108.81C214.331 110.733 212.622 112.781 211.061 114.94C210.772 115.344 211.441 115.733 211.726 115.336L211.741 115.332Z" fill="white"/>
<path d="M207.943 115.375C209.512 113.495 211.083 111.614 212.657 109.729C212.969 109.352 212.419 108.805 212.112 109.181C210.544 111.063 208.973 112.945 207.398 114.826C207.086 115.204 207.636 115.751 207.943 115.375Z" fill="white"/>
<path d="M201.694 122.339C203.598 117.979 206.202 113.957 209.402 110.432C209.737 110.065 209.197 109.515 208.861 109.883C205.613 113.455 202.968 117.53 201.03 121.948C200.832 122.397 201.498 122.792 201.694 122.339Z" fill="white"/>
<path d="M195.777 125.097C199.2 119.998 202.897 115.088 206.851 110.386C207.167 110.008 206.612 109.462 206.305 109.838C202.311 114.584 198.573 119.539 195.107 124.682C194.826 125.099 195.495 125.488 195.772 125.077L195.777 125.097Z" fill="white"/>
<path d="M185.905 127.887L199.905 109.699C200.207 109.303 199.539 108.919 199.241 109.309L185.241 127.496C184.938 127.887 185.607 128.276 185.905 127.887Z" fill="white"/>
<path d="M189.288 117.416C191.249 114.402 193.485 111.575 195.967 108.972C196.31 108.613 195.765 108.065 195.422 108.424C192.895 111.079 190.616 113.959 188.614 117.028C188.344 117.442 189.008 117.833 189.278 117.418L189.288 117.416Z" fill="white"/>
<path d="M185.768 116.952L192.105 108.846C192.409 108.46 191.862 107.907 191.559 108.298L185.223 116.403C184.924 116.788 185.465 117.343 185.768 116.952Z" fill="white"/>
<path d="M181.533 117.256C183.938 114.678 186.105 111.887 188.006 108.919C188.275 108.499 187.606 108.11 187.342 108.528C185.473 111.44 183.347 114.179 180.989 116.713C180.652 117.075 181.193 117.625 181.533 117.256Z" fill="white"/>
<path d="M177.041 118.602L183.588 108.04C183.845 107.618 183.181 107.228 182.923 107.645C180.742 111.17 178.559 114.694 176.374 118.218C176.116 118.639 176.78 119.03 177.043 118.607L177.041 118.602Z" fill="white"/>
<path d="M171.691 119.544C173.259 115.997 175.267 112.661 177.667 109.612C177.966 109.227 177.426 108.678 177.122 109.064C174.675 112.159 172.627 115.549 171.027 119.154C170.824 119.604 171.49 119.999 171.691 119.544V119.544Z" fill="white"/>
<path d="M164.36 124.481L167.861 117.469C168.425 116.342 168.983 115.212 169.559 114.087C170.059 113.014 170.717 112.022 171.513 111.144C171.578 111.07 171.613 110.975 171.61 110.877C171.607 110.779 171.567 110.686 171.497 110.616C171.428 110.547 171.334 110.507 171.236 110.504C171.138 110.501 171.042 110.535 170.969 110.6C169.29 112.328 168.365 114.751 167.279 116.882L163.662 124.1C163.442 124.544 164.106 124.934 164.326 124.49L164.36 124.481Z" fill="white"/>
<path d="M159.725 127.164L165.455 114.385C165.657 113.935 164.997 113.538 164.789 113.989L159.061 126.773C158.862 127.217 159.523 127.614 159.725 127.164Z" fill="white"/>
<path d="M150.547 138.129C154.235 130.422 158.364 122.932 162.915 115.698C163.182 115.274 162.513 114.885 162.251 115.308C157.697 122.544 153.562 130.034 149.868 137.743C149.658 138.184 150.319 138.581 150.537 138.132L150.547 138.129Z" fill="white"/>
<path d="M144.197 135.613C146.146 129.511 149.131 123.788 153.022 118.694C153.324 118.303 152.655 117.914 152.358 118.304C148.431 123.455 145.419 129.24 143.453 135.408C143.305 135.881 144.043 136.088 144.197 135.613Z" fill="white"/>
<path d="M141.544 134.225C143.173 129.527 145.062 124.921 147.202 120.431C147.417 119.988 146.752 119.593 146.538 120.04C144.368 124.588 142.453 129.253 140.804 134.013C140.639 134.486 141.382 134.691 141.544 134.225Z" fill="white"/>
<path d="M137.092 135.911L141.091 124.66C141.256 124.188 140.512 123.983 140.346 124.45L136.348 135.705C136.182 136.172 136.925 136.378 137.092 135.911V135.911Z" fill="white"/>
<path d="M133.798 138.851C134.003 135.739 134.678 132.676 135.801 129.765C135.979 129.3 135.235 129.095 135.061 129.553C133.919 132.529 133.232 135.659 133.025 138.839C132.993 139.335 133.765 139.342 133.798 138.851V138.851Z" fill="white"/>
<path d="M128.101 148.26C128.409 142.931 129.423 137.667 131.116 132.603C131.271 132.134 130.532 131.927 130.373 132.398C128.663 137.525 127.639 142.854 127.328 148.247C127.303 148.747 128.07 148.756 128.101 148.26Z" fill="white"/>
<path d="M123.871 156.871C124.359 149.979 125.402 143.137 126.989 136.411C127.099 135.932 126.359 135.72 126.244 136.2C124.637 142.992 123.58 149.902 123.083 156.863C123.047 157.36 123.819 157.367 123.856 156.875L123.871 156.871Z" fill="white"/>
<path d="M121.411 158.615C121.684 154.26 122.158 149.926 122.833 145.613C122.909 145.126 122.169 144.914 122.088 145.402C121.384 149.78 120.894 154.183 120.619 158.613C120.587 159.109 121.359 159.116 121.386 158.621L121.411 158.615Z" fill="white"/>
<path d="M177.454 167.863C185.67 171.305 194.446 173.224 203.353 173.526C203.456 173.528 203.555 173.489 203.629 173.418C203.702 173.346 203.745 173.249 203.747 173.146C203.748 173.044 203.709 172.945 203.638 172.872C203.567 172.798 203.469 172.756 203.366 172.754C194.521 172.455 185.806 170.547 177.65 167.123C177.193 166.934 176.986 167.677 177.439 167.867L177.454 167.863Z" fill="white"/>
<path d="M185.855 173.879C188.577 174.236 191.238 174.954 193.953 175.366C196.592 175.77 199.255 176.002 201.925 176.058C202.027 176.06 202.127 176.021 202.2 175.949C202.274 175.878 202.316 175.781 202.318 175.678C202.32 175.576 202.281 175.477 202.21 175.403C202.138 175.33 202.041 175.288 201.938 175.286C199.175 175.235 196.419 174.99 193.69 174.554C191.072 174.127 188.497 173.451 185.878 173.104C185.384 173.041 185.376 173.812 185.865 173.876L185.855 173.879Z" fill="white"/>
<path d="M176.057 172.736C182.796 175.211 189.75 177.06 196.831 178.26C197.314 178.342 197.532 177.602 197.044 177.521C189.962 176.32 183.006 174.471 176.265 171.999C175.801 171.827 175.593 172.565 176.057 172.736Z" fill="white"/>
<path d="M176.955 176.788C181.43 178.245 186.003 179.387 190.64 180.204C191.124 180.291 191.341 179.546 190.851 179.46C186.215 178.644 181.642 177.502 177.166 176.044C176.691 175.891 176.485 176.634 176.955 176.788Z" fill="white"/>
<path d="M175.772 179.077C178.915 180.276 182.121 181.33 185.391 182.239C185.44 182.253 185.491 182.257 185.542 182.251C185.592 182.245 185.641 182.229 185.685 182.204C185.775 182.154 185.841 182.071 185.869 181.972C185.897 181.873 185.885 181.768 185.835 181.678C185.785 181.589 185.701 181.523 185.603 181.495C182.346 180.569 179.138 179.515 175.978 178.334C175.513 178.158 175.306 178.9 175.772 179.077Z" fill="white"/>
<path d="M166.286 180.154C169.179 180.976 172.017 181.98 174.782 183.161C175.229 183.353 175.626 182.688 175.172 182.493C172.35 181.29 169.455 180.267 166.503 179.43C166.407 179.409 166.306 179.425 166.222 179.475C166.137 179.525 166.075 179.606 166.048 179.7C166.021 179.794 166.031 179.895 166.076 179.982C166.121 180.07 166.197 180.136 166.29 180.169L166.286 180.154Z" fill="white"/>
<path d="M159.837 181.614C163.331 182.439 166.746 183.568 170.043 184.99C170.492 185.186 170.889 184.522 170.434 184.326C167.08 182.875 163.605 181.718 160.048 180.87C159.567 180.755 159.354 181.494 159.837 181.614Z" fill="white"/>
<path d="M149.286 180.686C153.478 182.789 157.972 184.229 162.607 184.954C163.089 185.031 163.307 184.291 162.815 184.217C158.249 183.505 153.822 182.089 149.693 180.019C149.248 179.8 148.855 180.458 149.296 180.684L149.286 180.686Z" fill="white"/>
<path d="M128.729 176.517C136.363 182.122 145.409 185.499 154.857 186.272C155.351 186.314 155.364 185.542 154.871 185.505C147.641 184.893 140.628 182.742 134.303 179.197C132.511 178.186 130.78 177.069 129.121 175.854C128.72 175.56 128.334 176.221 128.729 176.517Z" fill="white"/>
<path d="M160.381 155.61C163.081 159.531 166.647 162.782 170.804 165.112C171.233 165.356 171.625 164.693 171.196 164.448C167.15 162.186 163.678 159.03 161.045 155.22C160.77 154.814 160.098 155.195 160.379 155.605L160.381 155.61Z" fill="white"/>
<path d="M156.999 156.542C158.783 158.533 160.71 160.392 162.765 162.104C163.139 162.421 163.691 161.865 163.31 161.56C161.255 159.848 159.328 157.989 157.543 155.998C157.215 155.632 156.665 156.177 156.999 156.542Z" fill="white"/>
<path d="M155.006 158.287L158.195 162.654C158.248 162.739 158.332 162.802 158.429 162.828C158.527 162.854 158.631 162.842 158.72 162.794C158.764 162.769 158.803 162.735 158.834 162.695C158.865 162.656 158.887 162.61 158.9 162.561C158.914 162.512 158.917 162.461 158.91 162.411C158.903 162.361 158.886 162.313 158.861 162.27L155.671 157.903C155.618 157.817 155.534 157.755 155.437 157.729C155.339 157.702 155.235 157.715 155.146 157.763C155.058 157.814 154.994 157.898 154.968 157.996C154.941 158.094 154.955 158.199 155.006 158.287V158.287Z" fill="white"/>
<path d="M151.678 159.284L155.162 163.251C155.487 163.623 156.036 163.078 155.707 162.708L152.229 158.744C151.903 158.367 151.353 158.912 151.678 159.284V159.284Z" fill="white"/>
<path d="M148.85 160.492L152.902 164.456C152.974 164.528 153.073 164.569 153.175 164.57C153.278 164.57 153.377 164.53 153.45 164.457C153.522 164.385 153.564 164.287 153.564 164.184C153.565 164.082 153.524 163.983 153.452 163.911L149.401 159.952C149.329 159.879 149.232 159.838 149.129 159.837C149.027 159.836 148.928 159.875 148.855 159.947C148.782 160.019 148.741 160.116 148.74 160.219C148.739 160.321 148.778 160.419 148.85 160.492V160.492Z" fill="white"/>
<path d="M146.662 161.625C148.632 163.252 150.459 165.046 152.121 166.985C152.442 167.363 152.992 166.818 152.666 166.441C151.005 164.5 149.178 162.707 147.207 161.081C146.829 160.77 146.28 161.32 146.662 161.625Z" fill="white"/>
<path d="M143.963 162.571L150.847 169.806C151.189 170.163 151.735 169.625 151.392 169.263L144.508 162.027C144.165 161.665 143.62 162.209 143.962 162.566L143.963 162.571Z" fill="white"/>
<path d="M140.943 163.648C144.044 166.994 147.545 169.946 151.368 172.439C151.784 172.713 152.176 172.05 151.76 171.776C147.993 169.318 144.544 166.405 141.492 163.103C141.154 162.74 140.609 163.284 140.943 163.648Z" fill="white"/>
<path d="M138.181 165.109C141.407 168.489 144.991 171.51 148.87 174.118C149.282 174.399 149.673 173.731 149.261 173.455C145.437 170.881 141.905 167.901 138.725 164.565C138.384 164.208 137.839 164.752 138.181 165.109Z" fill="white"/>
<path d="M134.637 166.629C136.602 168.681 138.709 170.593 140.943 172.349C141.325 172.653 141.88 172.107 141.488 171.805C139.258 170.047 137.153 168.138 135.188 166.089C135.116 166.016 135.019 165.975 134.916 165.974C134.814 165.973 134.715 166.013 134.642 166.084C134.569 166.156 134.527 166.254 134.526 166.356C134.525 166.458 134.565 166.556 134.637 166.629V166.629Z" fill="white"/>
<path d="M131.475 168.782C134.568 172.035 138.045 174.902 141.83 177.321C142.244 177.59 142.635 176.922 142.221 176.658C138.494 174.274 135.071 171.449 132.026 168.242C131.682 167.88 131.133 168.425 131.475 168.782Z" fill="white"/>
<path d="M126.511 170.134L131.351 175.871C131.667 176.251 132.217 175.706 131.896 175.328L127.056 169.59C126.735 169.211 126.191 169.755 126.511 170.134Z" fill="white"/>
<path d="M121.041 168.514C122.856 170.141 124.471 171.977 125.854 173.983C126.134 174.388 126.806 174.008 126.524 173.598C125.108 171.537 123.451 169.651 121.588 167.98C121.222 167.651 120.671 168.191 121.042 168.519L121.041 168.514Z" fill="white"/>
<path d="M118.846 170.237C120.772 171.707 122.396 173.534 123.631 175.618C123.682 175.707 123.766 175.771 123.865 175.798C123.964 175.825 124.07 175.811 124.159 175.76C124.248 175.709 124.313 175.624 124.339 175.526C124.366 175.427 124.352 175.321 124.301 175.233C122.995 173.038 121.275 171.116 119.238 169.574C118.841 169.273 118.456 169.94 118.846 170.237V170.237Z" fill="white"/>
<path d="M116.232 171.469L120.072 175.249C120.107 175.285 120.15 175.314 120.197 175.333C120.244 175.353 120.294 175.363 120.345 175.363C120.396 175.363 120.446 175.353 120.493 175.334C120.54 175.315 120.583 175.286 120.619 175.251C120.655 175.215 120.684 175.172 120.704 175.125C120.723 175.079 120.733 175.028 120.734 174.978C120.734 174.927 120.724 174.877 120.705 174.83C120.685 174.783 120.657 174.74 120.621 174.704L116.782 170.924C116.71 170.851 116.612 170.81 116.51 170.809C116.407 170.808 116.309 170.848 116.236 170.919C116.163 170.991 116.121 171.088 116.12 171.191C116.119 171.293 116.159 171.391 116.23 171.464L116.232 171.469Z" fill="white"/>
<path d="M113.53 173.185L115.532 175.319C115.604 175.392 115.702 175.433 115.805 175.433C115.908 175.433 116.006 175.393 116.079 175.321C116.152 175.248 116.193 175.15 116.194 175.048C116.194 174.945 116.154 174.847 116.082 174.774L114.075 172.641C114.041 172.599 113.999 172.565 113.951 172.54C113.903 172.516 113.85 172.501 113.797 172.498C113.743 172.495 113.689 172.504 113.638 172.523C113.588 172.542 113.542 172.571 113.503 172.609C113.465 172.647 113.435 172.692 113.415 172.743C113.396 172.793 113.387 172.846 113.389 172.9C113.391 172.954 113.405 173.007 113.429 173.055C113.453 173.103 113.487 173.146 113.529 173.18L113.53 173.185Z" fill="white"/>
<path d="M109.994 175.35C110.18 175.612 110.42 175.832 110.697 175.996C110.975 176.159 111.284 176.261 111.604 176.297C111.655 176.298 111.707 176.288 111.755 176.268C111.803 176.249 111.846 176.219 111.882 176.182C111.952 176.111 111.992 176.015 111.994 175.915C111.993 175.813 111.953 175.715 111.881 175.642L111.805 175.577C111.747 175.546 111.683 175.529 111.617 175.525L111.587 175.532L111.685 175.544C111.529 175.52 111.375 175.478 111.228 175.418L111.317 175.454C111.162 175.388 111.017 175.303 110.885 175.199L110.959 175.26C110.836 175.159 110.725 175.046 110.627 174.921L110.685 175.002L110.677 174.972C110.624 174.888 110.544 174.825 110.45 174.792C110.349 174.767 110.243 174.781 110.152 174.832C110.066 174.882 110.001 174.963 109.972 175.059C109.957 175.108 109.952 175.16 109.958 175.212C109.964 175.263 109.981 175.313 110.006 175.357L109.994 175.35Z" fill="white"/>
<path d="M138.072 162.306C137.493 158.376 138.005 154.361 139.552 150.699C139.742 150.242 138.998 150.036 138.807 150.488C137.215 154.278 136.698 158.43 137.313 162.491C137.392 163.001 138.132 162.783 138.06 162.298L138.072 162.306Z" fill="white"/>
<path d="M135.439 165.229L135.546 155.753C135.547 155.651 135.507 155.553 135.435 155.48C135.364 155.407 135.266 155.365 135.164 155.364C135.061 155.363 134.963 155.403 134.889 155.475C134.816 155.546 134.775 155.644 134.774 155.746L134.665 165.217C134.663 165.32 134.703 165.418 134.774 165.492C134.845 165.566 134.943 165.608 135.045 165.609C135.148 165.611 135.247 165.572 135.321 165.501C135.394 165.429 135.437 165.332 135.439 165.229V165.229Z" fill="white"/>
<path d="M132.541 165.448C132.447 163.341 132.52 161.23 132.759 159.135C132.817 158.637 132.044 158.63 131.986 159.123C131.746 161.217 131.675 163.328 131.773 165.434C131.795 165.932 132.564 165.945 132.541 165.448Z" fill="white"/>
<path d="M129.956 167.017C129.092 165.341 128.802 163.43 129.129 161.573C129.216 161.089 128.476 160.877 128.384 161.362C128.014 163.421 128.331 165.542 129.285 167.402C129.516 167.841 130.183 167.462 129.956 167.017Z" fill="white"/>
<path d="M126.264 168.167C126.108 164.356 126.316 160.539 126.883 156.767C126.954 156.282 126.213 156.065 126.138 156.556C125.559 160.394 125.342 164.277 125.49 168.155C125.511 168.648 126.286 168.665 126.264 168.167V168.167Z" fill="white"/>
<path d="M123.467 165.65C123.468 164.105 123.592 162.562 123.837 161.037C123.858 160.941 123.842 160.841 123.794 160.756C123.745 160.671 123.667 160.606 123.574 160.575C123.478 160.553 123.377 160.568 123.292 160.617C123.206 160.665 123.142 160.744 123.111 160.837C122.844 162.43 122.706 164.042 122.699 165.657C122.705 165.754 122.748 165.844 122.818 165.91C122.887 165.977 122.98 166.015 123.076 166.016C123.173 166.018 123.267 165.983 123.339 165.92C123.411 165.856 123.457 165.767 123.467 165.671L123.467 165.65Z" fill="white"/>
<path d="M120.999 164.548C120.776 163.267 120.785 161.955 121.024 160.676C121.045 160.581 121.029 160.481 120.981 160.395C120.932 160.31 120.854 160.246 120.761 160.214C120.665 160.191 120.564 160.206 120.478 160.255C120.392 160.303 120.328 160.383 120.298 160.477C120.034 161.889 120.025 163.337 120.271 164.752C120.297 164.851 120.361 164.936 120.449 164.988C120.537 165.039 120.642 165.054 120.741 165.029C120.839 165.001 120.922 164.936 120.973 164.849C121.025 164.762 121.041 164.658 121.018 164.559L120.999 164.548Z" fill="white"/>
<path d="M177.975 145.719C179.046 140.97 181.045 136.478 183.856 132.498C184.14 132.096 183.476 131.706 183.192 132.108C180.343 136.141 178.319 140.694 177.235 145.508C177.126 145.992 177.866 146.204 177.975 145.719Z" fill="white"/>
<path d="M173.991 147.035C175.262 143.621 176.699 140.273 178.302 136.992C178.522 136.548 177.858 136.158 177.638 136.602C176.021 139.936 174.562 143.344 173.262 146.826C173.09 147.289 173.833 147.495 174.006 147.031L173.991 147.035Z" fill="white"/>
<path d="M170.801 146.698L172.316 141.991C172.469 141.516 171.726 141.311 171.576 141.779L170.058 146.492C169.908 146.961 170.648 147.172 170.801 146.698Z" fill="white"/>
<path d="M165.539 149.42C166.323 145.86 167.501 142.398 169.05 139.097C169.26 138.655 168.595 138.26 168.386 138.706C166.803 142.066 165.598 145.59 164.795 149.215C164.69 149.692 165.43 149.904 165.539 149.42V149.42Z" fill="white"/>
<path d="M160.919 151.669L163.071 143.033C163.19 142.551 162.447 142.346 162.327 142.827L160.163 151.477C160.042 151.954 160.787 152.164 160.907 151.683L160.919 151.669Z" fill="white"/>
<path d="M156.392 153.867C156.338 151.877 156.481 149.887 156.817 147.925C156.899 147.437 156.159 147.225 156.077 147.713C155.725 149.741 155.571 151.798 155.619 153.855C155.63 154.35 156.403 154.362 156.392 153.867V153.867Z" fill="white"/>
<path d="M151.683 156.531L153.272 149.912C153.387 149.431 152.647 149.219 152.529 149.706L150.943 156.319C150.828 156.799 151.568 157.011 151.683 156.531Z" fill="white"/>
<path d="M148.764 157.237C148.798 152.856 149.66 148.519 151.305 144.455C151.489 143.994 150.745 143.789 150.56 144.245C148.906 148.374 148.041 152.775 148.01 157.22C148.008 157.322 148.047 157.421 148.119 157.495C148.19 157.568 148.288 157.611 148.39 157.612C148.493 157.614 148.592 157.575 148.666 157.504C148.739 157.432 148.782 157.335 148.784 157.232L148.764 157.237Z" fill="white"/>
<path d="M144.013 158.979C145.259 153.684 146.563 148.398 147.927 143.122C148.053 142.644 147.308 142.434 147.184 142.917C145.815 148.173 144.507 153.449 143.262 158.744C143.147 159.224 143.892 159.435 144.007 158.954L144.013 158.979Z" fill="white"/>
<path d="M216.546 147.955C221.534 149.272 226.707 149.758 231.855 149.392C232.351 149.359 232.365 148.587 231.87 148.625C226.78 148.983 221.668 148.5 216.737 147.195C216.259 147.069 216.046 147.808 216.525 147.934L216.546 147.955Z" fill="white"/>
<path d="M216.749 152.011C221.234 152.816 225.794 153.124 230.347 152.931C230.842 152.915 230.855 152.142 230.362 152.164C225.875 152.357 221.382 152.058 216.962 151.273C216.478 151.186 216.26 151.926 216.749 152.011V152.011Z" fill="white"/>
<path d="M217.304 155.002C220.043 155.256 222.772 155.579 225.491 155.973C225.982 156.042 225.99 155.271 225.504 155.201C222.785 154.804 220.056 154.482 217.318 154.235C216.823 154.188 216.815 154.959 217.304 155.002Z" fill="white"/>
<path d="M216.387 157.211C217.611 157.814 218.964 158.11 220.329 158.075C220.825 158.064 220.84 157.296 220.343 157.308C219.114 157.341 217.895 157.08 216.789 156.545C216.701 156.495 216.596 156.481 216.497 156.507C216.399 156.532 216.314 156.595 216.261 156.682C216.209 156.77 216.194 156.875 216.22 156.973C216.246 157.072 216.309 157.157 216.397 157.209L216.387 157.211Z" fill="white"/>
<path d="M213.992 160.38L216.93 161.244C217.026 161.265 217.126 161.249 217.21 161.199C217.295 161.149 217.357 161.068 217.384 160.974C217.411 160.88 217.402 160.778 217.357 160.691C217.312 160.604 217.235 160.537 217.143 160.505L214.205 159.641C214.109 159.618 214.007 159.633 213.921 159.682C213.835 159.73 213.771 159.81 213.742 159.904C213.717 160 213.731 160.102 213.78 160.188C213.829 160.274 213.909 160.338 214.004 160.366L213.992 160.38Z" fill="white"/>
<path d="M211.876 163.477L214.781 163.824C214.883 163.826 214.981 163.787 215.054 163.716C215.128 163.646 215.17 163.549 215.172 163.448C215.172 163.346 215.133 163.248 215.063 163.174C214.992 163.1 214.896 163.057 214.794 163.052L211.89 162.71C211.837 162.705 211.783 162.71 211.732 162.727C211.681 162.743 211.634 162.77 211.594 162.805C211.554 162.84 211.522 162.884 211.5 162.932C211.477 162.98 211.465 163.033 211.464 163.086C211.463 163.14 211.473 163.193 211.494 163.242C211.515 163.291 211.545 163.335 211.584 163.372C211.623 163.409 211.668 163.437 211.719 163.455C211.769 163.473 211.822 163.481 211.876 163.477V163.477Z" fill="white"/>
<path d="M209.619 165.762C210.5 166.191 211.487 166.354 212.46 166.232C212.558 166.205 212.642 166.141 212.694 166.054C212.746 165.966 212.761 165.862 212.737 165.763C212.709 165.665 212.645 165.582 212.557 165.531C212.47 165.479 212.366 165.464 212.267 165.486C212.332 165.47 212.188 165.507 212.178 165.51C212.168 165.512 212.073 165.537 212.017 165.525L211.699 165.527C211.596 165.522 211.489 165.518 211.385 165.507C211.282 165.497 211.276 165.493 211.227 165.49C211.178 165.487 211.177 165.503 211.227 165.49L211.177 165.503C210.974 165.47 210.774 165.423 210.577 165.361L210.278 165.253L210.207 165.223L210.068 165.159C210.025 165.131 209.976 165.112 209.925 165.103C209.874 165.095 209.821 165.097 209.771 165.109C209.721 165.121 209.673 165.143 209.631 165.174C209.59 165.204 209.555 165.243 209.528 165.288C209.502 165.332 209.485 165.382 209.478 165.433C209.471 165.484 209.475 165.536 209.489 165.586C209.503 165.636 209.526 165.683 209.559 165.723C209.591 165.764 209.631 165.797 209.676 165.822L209.619 165.762Z" fill="white"/>
<path d="M205.653 167.911L208.859 168.641C208.909 168.661 208.963 168.67 209.017 168.668C209.071 168.666 209.124 168.652 209.172 168.628C209.221 168.604 209.263 168.57 209.298 168.529C209.332 168.487 209.358 168.439 209.372 168.387C209.387 168.335 209.39 168.281 209.383 168.228C209.375 168.174 209.356 168.123 209.327 168.078C209.299 168.032 209.261 167.993 209.216 167.963C209.171 167.933 209.12 167.913 209.067 167.904L205.86 167.168C205.761 167.141 205.656 167.154 205.566 167.204C205.477 167.255 205.412 167.338 205.385 167.437C205.357 167.535 205.37 167.64 205.42 167.729C205.471 167.818 205.554 167.884 205.653 167.911Z" fill="white"/>
<path d="M202.954 169.759C204.095 169.846 205.218 170.091 206.292 170.487C206.388 170.512 206.489 170.499 206.576 170.451C206.662 170.403 206.727 170.324 206.756 170.229C206.779 170.134 206.765 170.034 206.717 169.948C206.669 169.862 206.592 169.797 206.499 169.766C205.361 169.347 204.169 169.089 202.959 168.999C202.857 169 202.759 169.04 202.686 169.111C202.613 169.182 202.571 169.279 202.569 169.381C202.57 169.482 202.61 169.579 202.68 169.651C202.75 169.724 202.845 169.767 202.946 169.772L202.954 169.759Z" fill="white"/>
<path d="M204.122 171.774C204.64 172.052 205.24 172.137 205.816 172.015C205.914 171.988 205.998 171.924 206.05 171.837C206.102 171.749 206.117 171.645 206.093 171.546C206.065 171.449 206.001 171.366 205.913 171.314C205.826 171.263 205.722 171.247 205.623 171.27C205.57 171.289 205.515 171.303 205.459 171.312L205.558 171.286C205.381 171.305 205.201 171.302 205.024 171.276L205.123 171.288C205.01 171.272 204.898 171.245 204.789 171.209C204.732 171.192 204.678 171.169 204.626 171.151C204.736 171.186 204.626 171.151 204.626 171.151L204.547 171.113C204.458 171.064 204.354 171.051 204.256 171.076C204.157 171.101 204.073 171.163 204.019 171.249C203.968 171.338 203.954 171.442 203.98 171.54C204.005 171.639 204.068 171.723 204.155 171.776L204.122 171.774Z" fill="white"/>
<path d="M225.314 144.449C227.561 145.131 229.909 144.943 232.212 144.788L240.281 144.294C240.772 144.263 240.79 143.489 240.294 143.522L232.481 144.003C230.16 144.146 227.797 144.375 225.494 143.687C225.395 143.659 225.289 143.672 225.2 143.722C225.11 143.772 225.044 143.855 225.016 143.954C224.988 144.052 225 144.158 225.05 144.248C225.1 144.337 225.184 144.403 225.282 144.431L225.314 144.449Z" fill="white"/>
<path d="M232.828 142.423C235.884 142.724 238.968 142.524 241.96 141.83C242.059 141.804 242.144 141.74 242.196 141.652C242.248 141.564 242.263 141.459 242.237 141.36C242.212 141.261 242.148 141.177 242.06 141.125C241.972 141.073 241.867 141.058 241.768 141.084C238.841 141.759 235.825 141.953 232.837 141.657C232.345 141.604 232.332 142.376 232.823 142.425L232.828 142.423Z" fill="white"/>
<path d="M237.341 139.884C239.596 140.183 241.886 140.129 244.125 139.722C244.632 139.628 244.439 138.882 243.932 138.976C241.76 139.365 239.541 139.413 237.355 139.117C236.865 139.052 236.857 139.823 237.342 139.889L237.341 139.884Z" fill="white"/>
<path d="M236.835 137.332C239.673 137.934 242.628 137.666 245.312 136.563C245.793 136.369 245.383 135.707 244.926 135.893C242.429 136.909 239.684 137.153 237.048 136.593C236.565 136.49 236.352 137.228 236.835 137.332V137.332Z" fill="white"/>
<path d="M236.397 135.451C239.894 135.494 243.378 135.035 246.744 134.088C246.843 134.062 246.928 133.999 246.98 133.911C247.032 133.823 247.047 133.718 247.021 133.619C246.996 133.52 246.932 133.435 246.844 133.383C246.756 133.332 246.651 133.317 246.552 133.342C243.251 134.271 239.834 134.721 236.405 134.681C236.303 134.68 236.204 134.719 236.131 134.791C236.058 134.862 236.016 134.96 236.015 135.062C236.014 135.165 236.054 135.263 236.126 135.336C236.197 135.409 236.295 135.45 236.397 135.451Z" fill="white"/>
<path d="M233.392 132.988C238.658 133.082 243.921 132.652 249.103 131.702C249.61 131.608 249.417 130.863 248.91 130.957C243.796 131.889 238.602 132.311 233.405 132.216C233.302 132.214 233.203 132.253 233.13 132.325C233.056 132.396 233.013 132.493 233.012 132.596C233.01 132.698 233.049 132.797 233.12 132.871C233.192 132.944 233.289 132.986 233.392 132.988V132.988Z" fill="white"/>
<path d="M234.005 130.12C240.419 130.209 246.823 129.596 253.104 128.293C253.608 128.189 253.416 127.444 252.911 127.548C246.698 128.834 240.362 129.438 234.018 129.348C233.916 129.346 233.817 129.386 233.743 129.457C233.669 129.528 233.627 129.626 233.625 129.728C233.624 129.83 233.663 129.929 233.734 130.003C233.805 130.076 233.903 130.119 234.005 130.12V130.12Z" fill="white"/>
<path d="M243.455 117.123L254.511 103.779C254.822 103.402 254.27 102.85 253.965 103.231L242.91 116.574C242.598 116.952 243.149 117.499 243.455 117.123Z" fill="white"/>
<path d="M245.327 110.181C246.797 109.046 247.861 107.47 248.363 105.685C248.391 105.586 248.378 105.481 248.328 105.391C248.278 105.302 248.195 105.236 248.096 105.208C247.997 105.18 247.891 105.192 247.802 105.242C247.712 105.292 247.646 105.376 247.618 105.474C247.146 107.124 246.151 108.577 244.783 109.616C244.714 109.687 244.675 109.782 244.673 109.881C244.672 109.98 244.709 110.075 244.777 110.148C244.85 110.214 244.944 110.251 245.042 110.252C245.14 110.253 245.236 110.218 245.31 110.153L245.327 110.181Z" fill="white"/>
<path d="M240.561 112.271C241.292 110.66 242.27 109.172 243.458 107.859C243.788 107.493 243.223 106.949 242.913 107.311C241.678 108.67 240.66 110.212 239.897 111.881C239.849 111.97 239.836 112.073 239.861 112.171C239.887 112.269 239.948 112.353 240.033 112.408C240.121 112.459 240.226 112.474 240.325 112.449C240.424 112.423 240.509 112.359 240.561 112.271V112.271Z" fill="white"/>
<path d="M234.388 114.762L239.26 108.572C239.325 108.499 239.361 108.405 239.361 108.307C239.361 108.21 239.325 108.115 239.261 108.042C239.19 107.973 239.095 107.934 238.996 107.933C238.897 107.932 238.801 107.969 238.728 108.036L233.857 114.226C233.792 114.299 233.756 114.393 233.756 114.491C233.755 114.589 233.791 114.683 233.856 114.756C233.927 114.825 234.022 114.865 234.121 114.866C234.22 114.867 234.316 114.83 234.388 114.762V114.762Z" fill="white"/>
<path d="M228.795 118.71L236.501 107.949C236.79 107.546 236.121 107.156 235.837 107.558L228.131 118.319C227.842 118.722 228.506 119.113 228.795 118.71Z" fill="white"/>
<path d="M194.154 140.304L206.449 145.187C206.911 145.37 207.117 144.628 206.662 144.448L194.367 139.565C193.905 139.382 193.699 140.125 194.154 140.304Z" fill="white"/>
<path d="M190.315 141.153C193.601 142.906 196.876 144.659 200.142 146.414C200.58 146.65 200.972 145.987 200.533 145.75C197.248 144.001 193.973 142.247 190.707 140.49C190.27 140.258 189.878 140.921 190.315 141.153Z" fill="white"/>
<path d="M187.397 142.464C190.211 143.566 192.78 145.212 194.954 147.309C195.314 147.651 195.865 147.11 195.504 146.764C193.232 144.58 190.549 142.868 187.61 141.725C187.143 141.543 186.937 142.286 187.397 142.464V142.464Z" fill="white"/>
<path d="M185.322 144.177C188.444 145.816 191.478 147.609 194.425 149.555C194.836 149.831 195.228 149.168 194.816 148.892C191.871 146.949 188.836 145.156 185.713 143.513C185.271 143.283 184.88 143.946 185.322 144.177Z" fill="white"/>
<path d="M182.213 145.51C185.922 148.311 189.924 150.703 194.15 152.643C194.595 152.846 194.993 152.187 194.541 151.98C190.316 150.04 186.314 147.648 182.605 144.847C182.209 144.546 181.818 145.214 182.213 145.51Z" fill="white"/>
<path d="M178.406 147.655L192.774 155.607C193.208 155.845 193.599 155.182 193.166 154.944L178.798 146.991C178.364 146.753 177.973 147.417 178.407 147.66L178.406 147.655Z" fill="white"/>
<path d="M174.57 148.662L185.315 155.112C185.742 155.367 186.134 154.704 185.707 154.448L174.972 147.996C174.545 147.741 174.153 148.404 174.58 148.659L174.57 148.662Z" fill="white"/>
<path d="M169.508 150.123L179.847 156.153C179.935 156.201 180.038 156.212 180.134 156.186C180.23 156.159 180.313 156.096 180.363 156.01C180.414 155.924 180.43 155.822 180.406 155.725C180.383 155.628 180.323 155.544 180.239 155.49L169.9 149.46C169.469 149.211 169.077 149.874 169.508 150.123Z" fill="white"/>
<path d="M166.754 151.307C172.253 156.296 178.963 159.764 186.22 161.368C186.704 161.476 186.917 160.737 186.432 160.629C179.302 159.061 172.708 155.66 167.304 150.762C166.937 150.432 166.386 150.972 166.754 151.307Z" fill="white"/>
<path d="M164.665 155.043C172.191 159.557 180.317 162.991 188.804 165.244C188.898 165.26 188.995 165.241 189.076 165.19C189.157 165.139 189.216 165.06 189.241 164.968C189.267 164.876 189.258 164.778 189.216 164.693C189.173 164.608 189.101 164.541 189.012 164.506C180.587 162.262 172.522 158.847 165.051 154.36C164.629 154.104 164.239 154.772 164.661 155.029L164.665 155.043Z" fill="white"/>
<path d="M198.213 138.27C203.466 139.563 208.681 140.989 213.858 142.547C213.957 142.575 214.062 142.562 214.152 142.512C214.242 142.462 214.308 142.379 214.336 142.28C214.364 142.181 214.352 142.076 214.302 141.986C214.252 141.897 214.168 141.831 214.069 141.803C208.89 140.246 203.675 138.822 198.426 137.531C197.944 137.411 197.731 138.15 198.213 138.27Z" fill="white"/>
<path d="M204.836 137.545L212.942 140.132C213.416 140.28 213.624 139.543 213.149 139.39C210.447 138.529 207.745 137.666 205.043 136.802C204.569 136.654 204.362 137.397 204.831 137.546L204.836 137.545Z" fill="white"/>
<path d="M209.323 135.993C211.618 136.468 213.848 137.217 215.965 138.222C216.408 138.436 216.806 137.777 216.357 137.559C214.183 136.523 211.893 135.749 209.535 135.254C209.052 135.151 208.839 135.89 209.323 135.993Z" fill="white"/>
<path d="M214.296 134.661L220.67 136.015C221.153 136.118 221.366 135.379 220.878 135.277L214.503 133.918C214.019 133.815 213.808 134.559 214.296 134.661Z" fill="white"/>
<path d="M219.517 132.973L224.325 134.085C224.81 134.193 225.023 133.454 224.537 133.341L219.73 132.234C219.249 132.119 219.038 132.863 219.517 132.973Z" fill="white"/>
<path d="M224.968 131.575L227.83 131.695C227.927 131.688 228.017 131.646 228.084 131.576C228.15 131.506 228.188 131.414 228.19 131.317C228.192 131.221 228.157 131.127 228.093 131.055C228.029 130.983 227.941 130.937 227.844 130.927C226.889 130.888 225.934 130.847 224.981 130.803C224.879 130.805 224.781 130.845 224.707 130.916C224.634 130.988 224.59 131.084 224.586 131.186C224.586 131.288 224.626 131.386 224.697 131.458C224.769 131.531 224.866 131.573 224.968 131.575V131.575Z" fill="white"/>
<path d="M229.721 128.629C230.031 128.791 230.377 128.872 230.727 128.866C231.078 128.86 231.421 128.766 231.725 128.594C231.814 128.542 231.879 128.458 231.906 128.359C231.933 128.26 231.919 128.155 231.868 128.066C231.817 127.978 231.732 127.913 231.633 127.886C231.534 127.859 231.429 127.873 231.34 127.924C231.286 127.957 231.229 127.986 231.171 128.01C231.116 128.025 231.171 128.01 231.201 128.003C231.18 128.003 231.159 128.008 231.141 128.018C231.109 128.024 231.077 128.032 231.046 128.043C230.987 128.058 230.922 128.075 230.862 128.09C230.802 128.106 230.792 128.108 230.862 128.09C230.932 128.072 230.862 128.09 230.862 128.09C230.828 128.096 230.795 128.105 230.762 128.116C230.703 128.131 230.634 128.112 230.569 128.108L230.524 128.119C230.474 128.132 230.524 128.119 230.524 128.119C230.524 128.119 230.458 128.11 230.429 128.101C230.363 128.086 230.298 128.068 230.234 128.046L230.187 128.026C230.187 128.026 230.122 128 230.187 128.026C230.252 128.052 230.187 128.026 230.187 128.026L230.132 127.998C230.043 127.948 229.939 127.934 229.84 127.959C229.742 127.985 229.657 128.047 229.604 128.134C229.552 128.222 229.537 128.327 229.563 128.426C229.588 128.525 229.652 128.609 229.74 128.661L229.721 128.629Z" fill="white"/>
<path d="M211.809 133.055C212.636 131.106 213.707 129.27 214.999 127.592C215.05 127.504 215.065 127.399 215.04 127.3C215.014 127.201 214.95 127.117 214.862 127.065C214.774 127.016 214.67 127.003 214.571 127.028C214.473 127.053 214.388 127.115 214.335 127.201C213.008 128.934 211.911 130.831 211.07 132.843C211.044 132.939 211.057 133.042 211.106 133.128C211.155 133.214 211.237 133.278 211.332 133.306C211.428 133.329 211.529 133.315 211.615 133.267C211.701 133.22 211.766 133.141 211.797 133.048L211.809 133.055Z" fill="white"/>
<path d="M208.343 132.593C208.741 132.368 209.075 132.047 209.317 131.659C209.558 131.272 209.699 130.83 209.725 130.375C209.727 130.273 209.688 130.175 209.617 130.102C209.547 130.029 209.45 129.987 209.348 129.985C209.246 129.984 209.148 130.024 209.074 130.094C209 130.165 208.956 130.261 208.952 130.363L208.94 130.503C208.94 130.503 208.919 130.605 208.94 130.503C208.934 130.527 208.929 130.551 208.927 130.576C208.911 130.665 208.887 130.752 208.857 130.838C208.843 130.884 208.827 130.929 208.807 130.973C208.798 130.991 208.792 131.01 208.79 131.03C208.803 130.937 208.782 131 208.79 131.03C208.748 131.115 208.702 131.198 208.652 131.278L208.572 131.399L208.536 131.446C208.542 131.471 208.593 131.378 208.536 131.446C208.479 131.513 208.412 131.584 208.349 131.648L208.246 131.743L208.189 131.79C208.123 131.844 208.26 131.734 208.189 131.79C208.112 131.847 208.032 131.9 207.948 131.947C207.869 132.003 207.813 132.086 207.792 132.18C207.771 132.274 207.786 132.372 207.835 132.456C207.883 132.539 207.961 132.602 208.053 132.631C208.145 132.659 208.245 132.653 208.332 132.612L208.343 132.593Z" fill="white"/>
<path d="M203.557 134.588C204.082 134.279 204.512 133.832 204.799 133.296C205.086 132.76 205.219 132.155 205.183 131.548C205.182 131.447 205.143 131.351 205.073 131.278C205.003 131.206 204.907 131.163 204.806 131.158C204.705 131.158 204.607 131.197 204.534 131.267C204.461 131.338 204.419 131.433 204.415 131.535C204.423 131.665 204.423 131.796 204.415 131.927L204.397 132.123L204.403 132.147L204.382 132.248C204.354 132.37 204.319 132.491 204.278 132.609L204.243 132.698L204.253 132.738L204.166 132.914C204.106 133.025 204.04 133.132 203.967 133.236L203.908 133.315L203.781 133.459C203.69 133.553 203.594 133.642 203.493 133.724C203.427 133.778 203.548 133.71 203.463 133.732L203.396 133.781C203.339 133.822 203.28 133.858 203.217 133.891C203.173 133.916 203.135 133.95 203.104 133.99C203.073 134.03 203.05 134.076 203.037 134.125C203.024 134.174 203.02 134.225 203.027 134.275C203.033 134.325 203.049 134.374 203.075 134.418C203.1 134.462 203.134 134.5 203.174 134.531C203.214 134.562 203.26 134.585 203.309 134.598C203.358 134.611 203.409 134.615 203.46 134.608C203.51 134.602 203.559 134.585 203.603 134.56L203.557 134.588Z" fill="white"/>
<path d="M198.509 137.234L201.195 131.429C201.244 131.34 201.257 131.236 201.232 131.138C201.207 131.04 201.145 130.955 201.059 130.902C200.971 130.85 200.866 130.835 200.767 130.861C200.668 130.886 200.583 130.95 200.531 131.038L197.845 136.843C197.795 136.932 197.782 137.036 197.807 137.134C197.833 137.232 197.895 137.316 197.981 137.37C198.069 137.422 198.174 137.437 198.273 137.411C198.372 137.385 198.457 137.322 198.509 137.234V137.234Z" fill="white"/>
<path d="M193.938 138.478C195.616 136.199 196.936 133.677 197.849 130.999C198.009 130.529 197.265 130.323 197.104 130.789C196.205 133.407 194.906 135.871 193.254 138.093C192.958 138.493 193.626 138.877 193.918 138.483L193.938 138.478Z" fill="white"/>
<path d="M190.026 140.014C191.361 137.955 192.46 135.754 193.303 133.451C193.474 132.983 192.73 132.777 192.563 133.239C191.739 135.48 190.665 137.621 189.362 139.623C189.093 140.042 189.757 140.433 190.026 140.014V140.014Z" fill="white"/>
<path d="M186.474 141.811L190.339 133.432C190.543 132.987 189.882 132.591 189.675 133.042L185.805 141.401C185.603 141.851 186.262 142.243 186.47 141.796L186.474 141.811Z" fill="white"/>
<path d="M195.828 29.9273C197.937 27.638 200.236 25.531 202.701 23.6291C203.09 23.327 202.546 22.7836 202.157 23.0857C199.691 24.9866 197.392 27.0936 195.284 29.3839C194.948 29.7466 195.488 30.2962 195.823 29.9286L195.828 29.9273Z" fill="white"/>
<path d="M198.607 23.7592C200.146 22.3966 201.683 21.0311 203.217 19.6628C203.589 19.3334 203.045 18.79 202.673 19.1193L198.068 23.2146C197.696 23.5439 198.24 24.0873 198.607 23.7592Z" fill="white"/>
<path d="M200.323 19.0315C201.407 18.1595 202.367 17.1444 203.177 16.0143C203.229 15.9263 203.244 15.8214 203.219 15.7226C203.193 15.6238 203.129 15.5392 203.041 15.4874C202.953 15.4371 202.848 15.4231 202.75 15.4486C202.651 15.4741 202.566 15.5369 202.513 15.6238C201.737 16.6974 200.816 17.6595 199.778 18.4832C199.71 18.5547 199.671 18.6493 199.67 18.748C199.669 18.8466 199.705 18.942 199.772 19.0149C199.845 19.0808 199.939 19.1177 200.037 19.1187C200.135 19.1197 200.23 19.0848 200.305 19.0205L200.323 19.0315Z" fill="white"/>
<path d="M197.993 20.4978L198.192 16.3955C198.212 15.8973 197.445 15.8887 197.419 16.3833L197.224 20.4843C197.198 20.9789 197.972 20.9911 197.993 20.4978Z" fill="white"/>
<path d="M192.439 24.3556L193.585 16.3292C193.655 15.8392 192.883 15.8319 192.812 16.3169L191.696 24.3356C191.626 24.8256 192.398 24.8329 192.464 24.3492L192.439 24.3556Z" fill="white"/>
<path d="M189.517 23.9016L189.466 19.4241C189.467 19.3217 189.428 19.2228 189.357 19.1493C189.286 19.0757 189.188 19.0335 189.085 19.0318C188.983 19.0302 188.884 19.0693 188.81 19.1406C188.736 19.2119 188.694 19.3094 188.692 19.4118L188.745 23.8943C188.744 23.9965 188.784 24.0949 188.855 24.1679C188.927 24.2409 189.025 24.2824 189.127 24.2834C189.23 24.2843 189.328 24.2447 189.401 24.1731C189.475 24.1015 189.516 24.0038 189.517 23.9016V23.9016Z" fill="white"/>
<path d="M185.785 26.7902L184.703 22.6002C184.677 22.5013 184.613 22.4167 184.525 22.3649C184.437 22.313 184.332 22.2983 184.233 22.3239C184.134 22.3495 184.049 22.4133 183.997 22.5013C183.945 22.5893 183.93 22.6943 183.956 22.7932L185.038 26.9832C185.064 27.082 185.128 27.1667 185.216 27.2185C185.304 27.2703 185.409 27.2851 185.508 27.2595C185.607 27.2339 185.692 27.1701 185.744 27.0821C185.796 26.9941 185.811 26.8891 185.785 26.7902Z" fill="white"/>
<path d="M182.934 28.3381C182.465 27.126 182.39 25.7974 182.718 24.5394C182.844 24.0614 182.104 23.8496 181.978 24.3276C181.61 25.7117 181.682 27.1753 182.183 28.5161C182.212 28.6129 182.277 28.6951 182.364 28.7463C182.451 28.7976 182.554 28.814 182.653 28.7924C182.751 28.7657 182.835 28.7016 182.887 28.614C182.939 28.5263 182.954 28.422 182.93 28.3232L182.934 28.3381Z" fill="white"/>
<path d="M167.832 74.9962C177.695 75.9367 187.485 73.8159 197.065 71.6855C197.563 71.5569 197.376 70.8312 196.873 70.94C187.352 73.0337 177.643 75.139 167.838 74.1992C167.343 74.1522 167.335 74.9231 167.824 74.9663L167.832 74.9962Z" fill="white"/>
<path d="M180.487 71.3022C186.443 70.7973 192.325 69.6335 198.024 67.832C198.516 67.6785 198.323 66.9329 197.832 67.0864C192.196 68.8661 186.379 70.0132 180.489 70.5064C180 70.5478 179.982 71.3213 180.481 71.2773L180.487 71.3022Z" fill="white"/>
<path d="M188.49 67.1991C191.753 66.7473 194.97 66.0085 198.103 64.9913C198.594 64.8328 198.401 64.0873 197.911 64.2457C194.777 65.263 191.56 66.0018 188.297 66.4536C187.787 66.5325 187.979 67.2781 188.49 67.1991Z" fill="white"/>
<path d="M189.588 63.5111L197.719 61.9406C198.225 61.8418 198.032 61.0962 197.526 61.1951L189.395 62.7655C188.89 62.8643 189.082 63.6099 189.588 63.5111Z" fill="white"/>
<path d="M190.535 60.8859L198.179 58.9111C198.278 58.8855 198.363 58.8216 198.415 58.7336C198.467 58.6456 198.482 58.5407 198.457 58.4418C198.431 58.3429 198.367 58.2583 198.279 58.2065C198.191 58.1546 198.086 58.1399 197.987 58.1655L190.358 60.1365C190.259 60.1621 190.174 60.2259 190.122 60.3139C190.07 60.4019 190.055 60.5069 190.08 60.6057C190.106 60.7046 190.17 60.7893 190.258 60.8411C190.346 60.8929 190.451 60.9076 190.55 60.882L190.535 60.8859Z" fill="white"/>
<path d="M175.975 58.688C184.18 59.2561 192.403 57.8163 199.928 54.4934C200.407 54.2902 199.991 53.6286 199.544 53.8291C192.139 57.0818 184.054 58.4846 175.988 57.9158C175.495 57.8788 175.482 58.6509 175.975 58.688Z" fill="white"/>
<path d="M187.81 53.7322C192.93 53.1628 197.844 51.3991 202.157 48.5837C202.565 48.3138 202.185 47.6433 201.771 47.9144C197.583 50.6676 192.805 52.3978 187.825 52.965C187.339 53.0163 187.321 53.7898 187.81 53.7322V53.7322Z" fill="white"/>
<path d="M193.142 48.9136L202.162 46.0532C202.66 45.9246 202.461 45.1542 201.969 45.3077L192.95 48.1681C192.458 48.3216 192.651 49.0671 193.142 48.9136Z" fill="white"/>
<path d="M196.184 44.4849C198.134 43.6702 200.088 42.8562 202.045 42.043C202.134 41.9919 202.199 41.9076 202.226 41.8087C202.252 41.7098 202.239 41.6044 202.188 41.5157C202.137 41.4269 202.052 41.3621 201.953 41.3355C201.854 41.3089 201.749 41.3227 201.66 41.3738C199.706 42.1861 197.752 43.0001 195.799 43.8157C195.711 43.867 195.646 43.9507 195.619 44.0489C195.592 44.1471 195.604 44.252 195.653 44.3412C195.707 44.4273 195.792 44.49 195.89 44.5166C195.989 44.5432 196.094 44.5319 196.184 44.4849V44.4849Z" fill="white"/>
<path d="M196.493 41.4256C198.498 40.9327 200.412 40.1285 202.167 39.0425C202.588 38.78 202.208 38.1095 201.782 38.3733C200.087 39.4241 198.237 40.2026 196.301 40.6801C196.202 40.7057 196.117 40.7695 196.065 40.8575C196.013 40.9455 195.998 41.0505 196.023 41.1494C196.049 41.2482 196.113 41.3329 196.201 41.3847C196.289 41.4365 196.394 41.4512 196.493 41.4256V41.4256Z" fill="white"/>
<path d="M197.144 37.6518C198.815 37.2326 200.362 36.4258 201.662 35.2969C202.035 34.9725 201.49 34.4242 201.117 34.7485C199.913 35.7764 198.484 36.5086 196.946 36.8863C196.847 36.9119 196.762 36.9758 196.711 37.0638C196.659 37.1518 196.644 37.2567 196.669 37.3556C196.695 37.4545 196.759 37.5391 196.847 37.591C196.935 37.6428 197.04 37.6575 197.139 37.6319L197.144 37.6518Z" fill="white"/>
<path d="M199.963 34.0234L202.052 32.6724C202.138 32.6182 202.201 32.5335 202.228 32.4353C202.255 32.337 202.243 32.2323 202.196 32.142C202.143 32.0551 202.058 31.9922 201.96 31.9663C201.861 31.9404 201.756 31.9536 201.667 32.0032L199.577 33.3542C199.49 33.4076 199.426 33.4922 199.399 33.5908C199.373 33.6894 199.384 33.7945 199.433 33.8846C199.486 33.9715 199.571 34.0345 199.67 34.0603C199.768 34.0862 199.873 34.073 199.963 34.0234V34.0234Z" fill="white"/>
<path d="M140.343 113.56C152.415 112.213 163.851 107.911 174.897 103.043C178.038 101.653 181.157 100.217 184.274 98.77C184.75 98.5569 184.341 97.899 183.89 98.1057C173.051 103.117 162.101 108.167 150.446 110.987C147.124 111.806 143.753 112.411 140.354 112.8C139.867 112.851 139.85 113.624 140.344 113.565L140.343 113.56Z" fill="white"/>
<path d="M148.15 115.753C157.546 113.289 166.686 109.935 175.444 105.738C175.889 105.528 175.504 104.858 175.06 105.074C166.361 109.235 157.286 112.561 147.958 115.008C147.859 115.033 147.774 115.097 147.722 115.185C147.67 115.273 147.655 115.378 147.681 115.477C147.706 115.576 147.77 115.66 147.858 115.712C147.946 115.764 148.051 115.779 148.15 115.753V115.753Z" fill="white"/>
<path d="M136.798 120.627L149.505 117.874C149.605 117.848 149.689 117.785 149.741 117.697C149.793 117.609 149.808 117.504 149.783 117.405C149.757 117.306 149.693 117.221 149.605 117.169C149.517 117.118 149.412 117.103 149.313 117.128L136.605 119.881C136.107 120.01 136.296 120.74 136.798 120.627Z" fill="white"/>
<path d="M126.978 124.256C133.021 124.378 139.048 123.574 144.849 121.871C145.347 121.743 145.15 120.982 144.656 121.126C138.923 122.812 132.965 123.607 126.991 123.484C126.889 123.482 126.79 123.521 126.716 123.593C126.642 123.664 126.6 123.761 126.598 123.864C126.596 123.966 126.635 124.065 126.707 124.139C126.778 124.212 126.876 124.254 126.978 124.256V124.256Z" fill="white"/>
<path d="M124.047 128.475C128.224 128.805 132.425 128.24 136.368 126.819C136.856 126.651 136.662 125.9 136.176 126.073C132.303 127.473 128.174 128.028 124.07 127.7C123.572 127.665 123.563 128.431 124.057 128.473L124.047 128.475Z" fill="white"/>
<path d="M117.963 131.574C123.458 131.997 128.981 131.249 134.167 129.381C134.653 129.208 134.461 128.462 133.974 128.636C128.855 130.485 123.401 131.223 117.976 130.802C117.478 130.766 117.47 131.537 117.963 131.574V131.574Z" fill="white"/>
<path d="M121.138 134.508C123.557 134.425 125.959 134.061 128.294 133.423C128.393 133.397 128.478 133.333 128.53 133.245C128.582 133.157 128.597 133.052 128.572 132.953C128.546 132.854 128.482 132.77 128.394 132.718C128.306 132.666 128.201 132.651 128.102 132.677C125.833 133.302 123.498 133.658 121.146 133.737C120.646 133.755 120.633 134.527 121.133 134.509L121.138 134.508Z" fill="white"/>
<path d="M111.26 143.035C115.968 142.439 120.596 141.323 125.058 139.709C125.543 139.531 125.35 138.785 124.865 138.964C120.403 140.578 115.776 141.693 111.068 142.289C110.554 142.358 110.777 143.096 111.26 143.035Z" fill="white"/>
<path d="M112.207 145.876C115.101 146.249 118.043 145.814 120.706 144.619C121.183 144.411 120.773 143.748 120.321 143.95C117.779 145.077 114.975 145.476 112.22 145.104C111.731 145.04 111.723 145.81 112.207 145.876V145.876Z" fill="white"/>
<path d="M114.26 148.331L118.563 147.697C118.662 147.671 118.747 147.607 118.799 147.519C118.851 147.431 118.866 147.326 118.84 147.227C118.812 147.131 118.747 147.048 118.66 146.997C118.573 146.946 118.47 146.929 118.371 146.951L114.067 147.586C114.018 147.598 113.971 147.619 113.93 147.65C113.889 147.68 113.855 147.718 113.829 147.762C113.803 147.806 113.787 147.854 113.78 147.904C113.773 147.955 113.777 148.006 113.79 148.055C113.818 148.152 113.882 148.235 113.969 148.287C114.057 148.338 114.161 148.354 114.26 148.331Z" fill="white"/>
<path d="M122.514 111.624C126.408 112.489 130.355 113.096 134.33 113.438C134.824 113.48 134.837 112.708 134.343 112.666C130.436 112.333 126.557 111.741 122.729 110.895C122.245 110.787 122.032 111.525 122.517 111.634L122.514 111.624Z" fill="white"/>
<path d="M121.71 114.535C122.422 115.565 123.625 115.78 124.812 115.892C126.617 116.072 128.433 116.234 130.24 116.34C133.767 116.615 137.315 116.411 140.788 115.736C141.286 115.607 141.099 114.881 140.596 114.99C137.433 115.62 134.201 115.831 130.983 115.618C129.408 115.547 127.84 115.417 126.267 115.272C125.07 115.162 123.152 115.287 122.377 114.156C122.097 113.751 121.425 114.132 121.706 114.542L121.71 114.535Z" fill="white"/>
<path d="M120.406 118.043C123.962 118.992 127.593 119.638 131.259 119.974C131.754 120.021 131.762 119.25 131.273 119.207C127.672 118.87 124.106 118.232 120.613 117.3C120.514 117.273 120.409 117.286 120.319 117.336C120.23 117.387 120.165 117.47 120.138 117.569C120.11 117.667 120.123 117.772 120.173 117.861C120.224 117.95 120.307 118.015 120.406 118.043V118.043Z" fill="white"/>
<path d="M118.14 119.471C120.216 120.479 122.415 121.208 124.682 121.641C125.163 121.734 125.38 120.989 124.889 120.898C122.681 120.493 120.537 119.799 118.512 118.834C118.069 118.62 117.672 119.285 118.12 119.498L118.14 119.471Z" fill="white"/>
<path d="M115.9 123.55C118.381 123.789 120.859 124.032 123.335 124.28C123.83 124.327 123.838 123.556 123.348 123.508C120.874 123.267 118.396 123.023 115.913 122.777C115.418 122.73 115.41 123.501 115.9 123.55Z" fill="white"/>
<path d="M113.82 128.185C116.241 128.139 118.663 128.088 121.085 128.032C121.583 128.025 121.596 127.253 121.099 127.264C118.672 127.315 116.251 127.366 113.835 127.418C113.338 127.43 113.324 128.197 113.82 128.185Z" fill="white"/>
<path d="M111.495 133.086C113.646 133.323 115.814 133.367 117.972 133.215C118.464 133.184 118.482 132.41 117.987 132.448C115.827 132.598 113.659 132.553 111.508 132.314C111.016 132.26 111.008 133.031 111.495 133.086V133.086Z" fill="white"/>
<path d="M110.367 136.903C113.39 136.554 116.415 136.198 119.441 135.837C119.926 135.781 119.944 135.007 119.454 135.065L110.377 136.137C109.892 136.194 109.872 136.962 110.367 136.903V136.903Z" fill="white"/>
<path d="M102.76 143.238C104.704 142.734 106.746 142.755 108.678 143.299C108.727 143.313 108.778 143.317 108.829 143.311C108.879 143.306 108.928 143.29 108.972 143.265C109.062 143.215 109.128 143.131 109.156 143.033C109.184 142.934 109.172 142.828 109.122 142.739C109.072 142.649 108.988 142.583 108.89 142.556C106.825 141.979 104.644 141.957 102.568 142.492C102.469 142.518 102.384 142.582 102.332 142.67C102.28 142.758 102.265 142.863 102.29 142.961C102.316 143.06 102.38 143.145 102.468 143.197C102.556 143.249 102.661 143.263 102.76 143.238Z" fill="white"/>
<path d="M102.576 146.286C104.909 146.449 107.254 146.316 109.554 145.888C110.06 145.79 109.867 145.044 109.361 145.143C107.129 145.552 104.854 145.679 102.59 145.519C102.097 145.482 102.083 146.249 102.576 146.286V146.286Z" fill="white"/>
<path d="M102.416 150.315C105.128 150.669 107.886 150.343 110.442 149.365C110.926 149.182 110.733 148.436 110.249 148.62C107.76 149.575 105.071 149.892 102.429 149.543C101.939 149.478 101.931 150.249 102.416 150.315V150.315Z" fill="white"/>
<path d="M112.423 124.464C110.581 121.652 110.085 118.292 109.614 115.03L108.09 104.523C108.011 104.013 107.264 104.206 107.343 104.716L108.899 115.449C109.373 118.703 109.92 122.035 111.753 124.833C112.025 125.245 112.697 124.865 112.419 124.449L112.423 124.464Z" fill="white"/>
<path d="M111.367 130.781C109.536 126.876 108.199 122.758 107.387 118.522C107.289 118.017 106.542 118.21 106.64 118.715C107.47 123.018 108.833 127.2 110.697 131.166C110.907 131.61 111.578 131.225 111.367 130.781Z" fill="white"/>
<path d="M109.724 134.806C107.48 130.961 106.22 126.623 106.057 122.174C106.041 121.68 105.267 121.668 105.284 122.162C105.451 126.749 106.745 131.223 109.053 135.191C109.104 135.28 109.189 135.345 109.288 135.371C109.387 135.398 109.492 135.384 109.581 135.333C109.67 135.282 109.735 135.198 109.762 135.099C109.789 135 109.775 134.894 109.724 134.806V134.806Z" fill="white"/>
<path d="M106.686 136.163C105.624 132.602 104.388 129.1 102.978 125.658C102.791 125.202 102.122 125.592 102.307 126.043C103.69 129.419 104.9 132.856 105.939 136.356C106.067 136.853 106.829 136.656 106.686 136.163V136.163Z" fill="white"/>
<path d="M103.947 139.113C102.88 138.397 102.389 137.194 102.081 136.001C101.682 134.624 101.363 133.222 101.006 131.841L98.825 123.173C98.7994 123.074 98.7356 122.989 98.6475 122.938C98.5594 122.886 98.4542 122.871 98.3552 122.897C98.2561 122.922 98.1713 122.986 98.1193 123.074C98.0673 123.162 98.0524 123.267 98.078 123.366L100.443 132.765C101.052 135.126 101.34 138.297 103.555 139.777C103.972 140.051 104.358 139.389 103.952 139.112L103.947 139.113Z" fill="white"/>
<path d="M101.17 141.957C98.3008 135.612 96.3483 128.892 95.3712 121.997C95.2926 121.487 94.552 121.705 94.6242 122.19C95.6191 129.152 97.5973 135.936 100.5 142.342C100.713 142.817 101.372 142.408 101.17 141.957V141.957Z" fill="white"/>
<path d="M95.6607 135.374C93.2621 128.932 92.0791 122.101 92.1715 115.226C92.1732 115.124 92.1341 115.025 92.0628 114.951C91.9915 114.878 91.8938 114.835 91.7913 114.834C91.6887 114.832 91.5896 114.871 91.5159 114.943C91.4421 115.014 91.3997 115.111 91.398 115.214C91.3064 122.157 92.4982 129.057 94.9137 135.567C95.087 136.052 95.8389 135.858 95.6607 135.374V135.374Z" fill="white"/>
<path d="M107.291 96.209C105.496 89.6667 105.319 82.7859 106.775 76.1572C106.879 75.6744 106.139 75.4626 106.03 75.9467C104.538 82.7078 104.711 89.7279 106.534 96.4045C106.56 96.5034 106.623 96.588 106.712 96.6399C106.8 96.6917 106.905 96.7064 107.004 96.6808C107.103 96.6552 107.188 96.5914 107.24 96.5034C107.292 96.4154 107.307 96.3104 107.281 96.2115L107.291 96.209Z" fill="white"/>
<path d="M103.326 91.1625C102.936 88.4252 102.725 85.6654 102.695 82.9005C102.695 82.4074 101.921 82.3951 101.926 82.8869C101.959 85.7211 102.177 88.55 102.579 91.3555C102.653 91.8667 103.393 91.6488 103.326 91.1625V91.1625Z" fill="white"/>
<path d="M101.436 95.691C100.77 93.1703 100.402 90.58 100.34 87.9733C100.329 87.4777 99.5551 87.4655 99.5663 87.961C99.6293 90.637 100.006 93.296 100.689 95.8839C100.714 95.9828 100.778 96.0675 100.866 96.1193C100.954 96.1711 101.06 96.1858 101.159 96.1602C101.258 96.1346 101.342 96.0708 101.394 95.9828C101.446 95.8948 101.461 95.7898 101.436 95.691V95.691Z" fill="white"/>
<path d="M99.5579 97.7985L97.9849 91.7098C97.9594 91.6109 97.8956 91.5263 97.8075 91.4745C97.7193 91.4226 97.6142 91.4079 97.5151 91.4335C97.4161 91.4591 97.3312 91.5229 97.2792 91.6109C97.2273 91.6989 97.2124 91.8039 97.2379 91.9028L98.8109 97.9915C98.8365 98.0903 98.9003 98.175 98.9884 98.2268C99.0765 98.2786 99.1817 98.2934 99.2807 98.2678C99.3798 98.2422 99.4647 98.1784 99.5166 98.0903C99.5686 98.0023 99.5834 97.8974 99.5579 97.7985Z" fill="white"/>
<path d="M97.5532 101.985C97.1392 99.6152 96.4437 97.303 95.4815 95.0976C95.2848 94.6447 94.6154 95.0351 94.8108 95.483C95.7415 97.6233 96.4106 99.8679 96.8036 102.168C96.8922 102.676 97.6392 102.483 97.5506 101.975L97.5532 101.985Z" fill="white"/>
<path d="M93.1773 98.2274L95.8306 104.838C96.0124 105.294 96.7658 105.126 96.5776 104.645L93.9392 98.0306C93.7588 97.5788 93.0105 97.7668 93.1922 98.2236L93.1773 98.2274Z" fill="white"/>
<path d="M92.1162 101.852C92.94 103.471 93.507 105.208 93.797 107.001C93.8806 107.51 94.6276 107.317 94.544 106.808C94.2359 104.948 93.6433 103.147 92.787 101.467C92.5617 101.027 91.8959 101.411 92.1162 101.852V101.852Z" fill="white"/>
<path d="M91.1334 106.067L93.0031 113.304C93.0286 113.403 93.0924 113.488 93.1805 113.539C93.2686 113.591 93.3738 113.606 93.4729 113.58C93.5719 113.555 93.6567 113.491 93.7087 113.403C93.7607 113.315 93.7756 113.21 93.75 113.111L91.8804 105.874C91.8549 105.775 91.791 105.691 91.7029 105.639C91.6148 105.587 91.5097 105.572 91.4106 105.598C91.3116 105.623 91.2267 105.687 91.1747 105.775C91.1227 105.863 91.1079 105.968 91.1334 106.067V106.067Z" fill="white"/>
<path d="M89.7794 135.351C92.9597 139.618 96.9131 143.253 101.435 146.067C101.854 146.33 102.246 145.666 101.827 145.403C97.4149 142.664 93.5562 139.123 90.4501 134.965C90.1578 134.574 89.4846 134.95 89.7794 135.351V135.351Z" fill="white"/>
<path d="M93.5644 143.36C95.2563 144.871 97.0909 146.216 99.0425 147.374C99.4697 147.63 99.8615 146.966 99.4343 146.711C97.536 145.589 95.7525 144.285 94.1093 142.816C93.7426 142.487 93.1915 143.027 93.5644 143.36V143.36Z" fill="white"/>
<path d="M164.967 80.6245C175.127 80.7523 185.26 79.5322 195.101 76.9963C195.2 76.9707 195.285 76.9069 195.337 76.8189C195.389 76.7309 195.404 76.6259 195.378 76.527C195.353 76.4282 195.289 76.3435 195.201 76.2917C195.113 76.2399 195.008 76.2251 194.908 76.2507C185.135 78.7699 175.071 79.981 164.98 79.8523C164.877 79.8507 164.778 79.8898 164.705 79.9611C164.631 80.0323 164.588 80.1299 164.587 80.2323C164.585 80.3347 164.624 80.4335 164.695 80.5071C164.767 80.5806 164.864 80.6229 164.967 80.6245V80.6245Z" fill="white"/>
<path d="M172.565 83.4494C180.258 83.1684 187.884 81.9109 195.26 79.7073C195.758 79.5787 195.56 78.8132 195.067 78.9618C187.758 81.1477 180.202 82.3979 172.58 82.6822C172.085 82.6988 172.072 83.4709 172.567 83.4544L172.565 83.4494Z" fill="white"/>
<path d="M175.145 86.2985C181.384 85.6375 187.529 84.2689 193.46 82.2191C193.947 82.0507 193.755 81.3052 193.267 81.4736C187.404 83.506 181.329 84.8673 175.159 85.5313C174.673 85.5827 174.654 86.3512 175.145 86.2985Z" fill="white"/>
<path d="M172.043 88.9925C178.914 88.4489 185.707 87.1702 192.306 85.1784C192.804 85.0497 192.607 84.2843 192.114 84.4328C185.576 86.4104 178.845 87.6836 172.037 88.2304C171.547 88.2669 171.529 89.0403 172.023 88.9976L172.043 88.9925Z" fill="white"/>
<path d="M175.305 91.1348C180.033 91.1399 184.727 90.3379 189.184 88.7633C189.671 88.5899 189.478 87.8444 188.992 88.0177C184.599 89.5725 179.974 90.3676 175.315 90.3689C175.22 90.3777 175.131 90.4213 175.067 90.4913C175.002 90.5613 174.965 90.6528 174.964 90.748C174.963 90.8432 174.997 90.9353 175.06 91.0068C175.123 91.0782 175.211 91.1238 175.305 91.1348V91.1348Z" fill="white"/>
<path d="M169.727 94.628C176.231 94.8582 182.715 93.7411 188.768 91.3471C189.221 91.1665 189.058 90.4132 188.576 90.6015C182.598 92.9782 176.193 94.0914 169.765 93.8706C169.266 93.8511 169.258 94.6219 169.752 94.6428L169.727 94.628Z" fill="white"/>
<path d="M162.304 99.4352C170.088 99.133 177.796 97.7802 185.218 95.4136C185.709 95.2551 185.516 94.5096 185.026 94.668C177.67 97.0156 170.032 98.3595 162.317 98.663C161.823 98.6845 161.809 99.4517 162.304 99.4352V99.4352Z" fill="white"/>
<path d="M177.533 99.695C179.146 99.5679 180.738 99.2508 182.277 98.7504C182.767 98.592 182.574 97.8464 182.084 98.0049C180.611 98.4895 179.086 98.7981 177.541 98.9242C177.44 98.9253 177.343 98.965 177.27 99.035C177.197 99.1051 177.154 99.2002 177.149 99.301C177.148 99.4033 177.187 99.5021 177.257 99.576C177.328 99.65 177.425 99.6932 177.528 99.6963L177.533 99.695Z" fill="white"/>
<path d="M123.956 105.997C128.162 107.133 132.48 107.809 136.833 108.014C137.329 108.04 137.342 107.268 136.847 107.247C132.56 107.042 128.309 106.373 124.167 105.253C124.068 105.225 123.962 105.237 123.873 105.287C123.783 105.337 123.717 105.421 123.689 105.519C123.661 105.618 123.673 105.724 123.723 105.813C123.773 105.903 123.857 105.969 123.956 105.997V105.997Z" fill="white"/>
<path d="M126.527 104.086L136.987 105.812C137.475 105.892 137.688 105.153 137.199 105.073C133.72 104.49 130.24 103.914 126.76 103.342C126.272 103.262 126.059 104.001 126.547 104.081L126.527 104.086Z" fill="white"/>
<path d="M127.972 101.269C131.213 101.845 134.433 102.509 137.634 103.258C138.12 103.371 138.328 102.634 137.847 102.519C134.644 101.76 131.423 101.096 128.185 100.53C127.7 100.443 127.482 101.183 127.972 101.269Z" fill="white"/>
<path d="M129.907 98.4362C134.772 99.9567 139.786 100.954 144.865 101.412C145.364 101.452 145.372 100.681 144.878 100.639C139.862 100.191 134.911 99.2034 130.109 97.6949C129.63 97.5482 129.423 98.2908 129.897 98.4388L129.907 98.4362Z" fill="white"/>
<path d="M132.955 96.5403C137.761 97.6636 142.611 98.5544 147.505 99.2128C148 99.276 148.008 98.5051 147.519 98.4407C142.696 97.7883 137.912 96.9035 133.164 95.7865C132.683 95.6722 132.472 96.4161 132.953 96.5304L132.955 96.5403Z" fill="white"/>
<path d="M135.077 93.3834C138.391 93.9836 141.705 94.5874 145.017 95.195C145.502 95.2819 145.72 94.5417 145.229 94.4511L135.289 92.6395C134.804 92.5526 134.591 93.2916 135.077 93.3834Z" fill="white"/>
<path d="M136.529 88.9472C141.172 90.3457 145.866 91.5649 150.611 92.6048C151.096 92.7129 151.309 91.9739 150.824 91.8658C146.083 90.8284 141.387 89.608 136.735 88.2046C136.263 88.0615 136.051 88.8055 136.529 88.9472Z" fill="white"/>
<path d="M138.583 86.5767L152.621 89.9594C153.102 90.0737 153.315 89.3348 152.832 89.2155L138.796 85.8377C138.309 85.7197 138.102 86.4623 138.583 86.5767V86.5767Z" fill="white"/>
<path d="M140.606 84.3732L156.155 88.6276C156.249 88.6439 156.346 88.6247 156.427 88.5738C156.507 88.5229 156.566 88.4439 156.592 88.3521C156.618 88.2604 156.609 88.1623 156.567 88.0769C156.524 87.9915 156.451 87.9249 156.363 87.89L140.819 83.6343C140.723 83.613 140.623 83.6291 140.538 83.6793C140.454 83.7294 140.392 83.8098 140.365 83.9041C140.337 83.9984 140.347 84.0994 140.392 84.1866C140.437 84.2738 140.514 84.3405 140.606 84.3732V84.3732Z" fill="white"/>
<path d="M142.265 81.8079C146.949 83.35 151.768 84.4483 156.659 85.0881C157.148 85.1526 157.156 84.3817 156.667 84.3173C151.848 83.6862 147.099 82.6054 142.483 81.0889C142.007 80.9309 141.8 81.6735 142.27 81.8278L142.265 81.8079Z" fill="white"/>
<path d="M142.665 79.3242C147.87 80.7753 153.128 82.0098 158.437 83.0276C158.923 83.1194 159.136 82.3805 158.649 82.2836C153.34 81.2692 148.083 80.0364 142.877 78.5852C142.781 78.564 142.681 78.5801 142.597 78.6302C142.512 78.6804 142.45 78.7608 142.423 78.8551C142.396 78.9494 142.406 79.0504 142.45 79.1376C142.495 79.2247 142.572 79.2915 142.665 79.3242V79.3242Z" fill="white"/>
<path d="M146.536 76.0283L155.285 79.298C157.777 80.2449 160.334 81.3818 163.053 81.0292C163.566 80.9602 163.373 80.2147 162.86 80.2837C160.167 80.6348 157.473 79.2948 155.016 78.3812L146.754 75.3092C146.288 75.1325 146.082 75.8751 146.541 76.0481L146.536 76.0283Z" fill="white"/>
<path d="M183.288 47.2069L181.23 36.074C181.131 35.5692 180.391 35.787 180.483 36.2669L182.541 47.3999C182.635 47.9059 183.382 47.7129 183.288 47.2069Z" fill="white"/>
<path d="M181.035 49.4064C180.116 46.063 179.448 42.6559 179.034 39.2132C178.966 38.7007 178.202 38.707 178.261 39.2009C178.675 42.713 179.353 46.1889 180.288 49.5994C180.314 49.6983 180.378 49.7829 180.466 49.8347C180.554 49.8865 180.659 49.9013 180.758 49.8757C180.857 49.8501 180.942 49.7863 180.994 49.6982C181.046 49.6102 181.061 49.5053 181.035 49.4064V49.4064Z" fill="white"/>
<path d="M177.811 51.321C177.245 49.0506 176.929 46.7248 176.869 44.3853C176.86 43.8947 176.085 43.8775 176.097 44.3779C176.159 46.7848 176.483 49.1776 177.064 51.5139C177.09 51.6128 177.154 51.6975 177.242 51.7493C177.33 51.8011 177.435 51.8158 177.534 51.7902C177.633 51.7646 177.718 51.7008 177.77 51.6128C177.822 51.5248 177.837 51.4198 177.811 51.321V51.321Z" fill="white"/>
<path d="M173.746 54.3803L173.696 46.4933C173.689 46.3971 173.647 46.3068 173.577 46.2404C173.507 46.1739 173.415 46.1361 173.318 46.1344C173.221 46.1327 173.128 46.1672 173.055 46.2312C172.983 46.2951 172.937 46.3838 172.927 46.4797L172.973 54.368C172.971 54.4704 173.01 54.5693 173.082 54.6428C173.153 54.7164 173.251 54.7586 173.353 54.7602C173.456 54.7619 173.555 54.7228 173.629 54.6515C173.702 54.5802 173.745 54.4827 173.746 54.3803V54.3803Z" fill="white"/>
<path d="M169.725 56.2095C169.761 53.2489 170.112 50.3002 170.772 47.4131C170.881 46.929 170.142 46.7222 170.027 47.2026C169.354 50.1546 168.995 53.1692 168.956 56.196C168.963 56.2922 169.005 56.3825 169.075 56.4489C169.145 56.5154 169.237 56.5532 169.334 56.5549C169.431 56.5566 169.524 56.5221 169.597 56.4581C169.669 56.3942 169.715 56.3055 169.725 56.2095V56.2095Z" fill="white"/>
<path d="M166.675 58.0789C166.85 53.7518 167.466 49.4534 168.514 45.25C168.634 44.7684 167.89 44.5628 167.77 45.0445C166.709 49.3118 166.084 53.6746 165.902 58.0667C165.881 58.5649 166.654 58.5722 166.675 58.0789V58.0789Z" fill="white"/>
<path d="M162.417 59.9586C162.977 54.5322 164.033 49.1678 165.57 43.9322C165.598 43.8335 165.586 43.7278 165.536 43.6383C165.486 43.5488 165.402 43.4829 165.303 43.455C165.205 43.427 165.099 43.4395 165.009 43.4895C164.919 43.5395 164.853 43.623 164.825 43.7217C163.275 49.023 162.21 54.4535 161.643 59.9463C161.591 60.4424 162.363 60.4496 162.417 59.9586Z" fill="white"/>
<path d="M159.387 62.9734C159.556 56.9215 160.625 50.9273 162.558 45.1873C162.718 44.7166 161.974 44.511 161.818 44.9756C159.866 50.785 158.789 56.8509 158.622 62.9748C158.629 63.071 158.671 63.1613 158.741 63.2277C158.811 63.2942 158.903 63.332 159 63.3337C159.096 63.3354 159.19 63.3009 159.262 63.2369C159.335 63.173 159.38 63.0843 159.391 62.9883L159.387 62.9734Z" fill="white"/>
<path d="M152.095 66.209C151.901 62.4434 152.08 58.6675 152.63 54.9363C152.7 54.4463 151.928 54.439 151.857 54.924C151.306 58.6547 151.129 62.4304 151.326 66.1955C151.354 66.6921 152.122 66.7057 152.095 66.209Z" fill="white"/>
<path d="M149.096 72.1006C148.617 67.7652 148.822 63.381 149.703 59.1076C149.801 58.6261 149.061 58.4143 148.958 58.8971C148.058 63.2345 147.846 67.6852 148.328 72.0871C148.379 72.5723 149.154 72.5895 149.096 72.1006V72.1006Z" fill="white"/>
<path d="M146.265 74.3641C145.489 71.6531 145.197 68.8262 145.404 66.0131C145.44 65.516 144.668 65.5087 144.631 66.0009C144.42 68.8834 144.72 71.7799 145.518 74.5571C145.647 75.0541 146.409 74.8573 146.265 74.3641Z" fill="white"/>
<path d="M142.187 78.44C142.32 78.358 142.348 78.2606 142.269 78.1429L142.217 77.9392L142.146 77.3159L142.053 76.2793C141.986 75.5228 141.931 74.7574 141.894 73.9981C141.82 72.4745 141.807 70.9455 141.843 69.4197C141.834 69.325 141.791 69.2368 141.721 69.1723C141.651 69.1078 141.559 69.0715 141.464 69.0704C141.368 69.0694 141.276 69.1036 141.204 69.1665C141.133 69.2294 141.087 69.3166 141.076 69.4111C141.018 71.6395 141.081 73.8692 141.266 76.0904C141.305 76.6106 141.354 77.1282 141.419 77.6681C141.404 78.0681 141.506 78.4637 141.713 78.8063C142.141 79.3108 143.096 78.9791 142.908 78.2696C142.882 78.1708 142.818 78.0861 142.73 78.0343C142.642 77.9825 142.537 77.9678 142.438 77.9934C142.339 78.0189 142.254 78.0828 142.202 78.1708C142.15 78.2588 142.135 78.3638 142.161 78.4626L142.187 78.44Z" fill="white"/>
<path d="M139.594 83.3515C139.18 83.7875 138.949 84.3653 138.948 84.9658L139.67 84.7792C138.523 82.7851 138.54 80.4053 138.453 78.1745C138.365 75.9438 138.309 73.6305 138.286 71.3619C138.28 70.8651 137.507 70.8528 137.513 71.3496C137.531 73.791 137.593 76.2299 137.698 78.6664C137.793 80.8847 137.857 83.1904 138.995 85.1659C139.038 85.2363 139.104 85.2909 139.181 85.3217C139.258 85.3525 139.343 85.3578 139.424 85.337C139.504 85.3162 139.576 85.2703 139.629 85.206C139.682 85.1416 139.712 85.0622 139.717 84.9793C139.71 84.5796 139.86 84.193 140.134 83.9012C140.464 83.5348 139.924 82.9852 139.589 83.3528L139.594 83.3515Z" fill="white"/>
<path d="M135.393 87.4484C134.294 81.6643 134.212 75.7325 135.151 69.9185C135.227 69.4322 134.487 69.2204 134.406 69.708C133.436 75.6559 133.51 81.726 134.626 87.6465C134.724 88.1513 135.471 87.9583 135.373 87.4535L135.393 87.4484Z" fill="white"/>
<path d="M133.744 92.2116L132.996 87.2617C132.984 87.2124 132.963 87.166 132.932 87.1252C132.902 87.0845 132.864 87.0502 132.82 87.0245C132.776 86.9987 132.728 86.982 132.677 86.9753C132.627 86.9686 132.576 86.972 132.527 86.9854C132.429 87.0133 132.346 87.0776 132.294 87.1649C132.243 87.2522 132.227 87.3559 132.249 87.4547L132.997 92.4046C133.022 92.5034 133.086 92.5881 133.174 92.6399C133.263 92.6917 133.368 92.7064 133.467 92.6809C133.566 92.6553 133.651 92.5915 133.703 92.5034C133.755 92.4154 133.769 92.3105 133.744 92.2116V92.2116Z" fill="white"/>
<path d="M132.22 93.8778C130.679 90.8768 129.709 87.6166 129.358 84.262C129.312 83.7755 128.537 83.7582 128.59 84.2484C128.945 87.7417 129.951 91.1376 131.554 94.2618C131.779 94.702 132.45 94.3167 132.22 93.8778V93.8778Z" fill="white"/>
<path d="M129.472 97.1011C127.636 91.9532 126.868 86.4853 127.216 81.0299C127.253 80.5328 126.48 80.5255 126.448 81.0164C126.089 86.5415 126.864 92.0805 128.725 97.2941C128.892 97.7547 129.645 97.5866 129.472 97.1011V97.1011Z" fill="white"/>
<path d="M126.073 101.24C124.707 96.3295 124.022 91.2546 124.036 86.157C124.038 86.0546 123.999 85.9557 123.927 85.8822C123.856 85.8086 123.758 85.7664 123.656 85.7648C123.553 85.7631 123.454 85.8023 123.381 85.8735C123.307 85.9448 123.264 86.0423 123.263 86.1447C123.249 91.3115 123.944 96.4553 125.327 101.433C125.352 101.532 125.416 101.617 125.504 101.668C125.592 101.72 125.697 101.735 125.796 101.709C125.895 101.684 125.98 101.62 126.032 101.532C126.084 101.444 126.099 101.339 126.073 101.24V101.24Z" fill="white"/>
<path d="M122.34 102.21C121.899 99.5356 121.626 96.8367 121.522 94.1285C121.505 93.6342 120.732 93.622 120.753 94.1149C120.859 96.8856 121.137 99.6469 121.588 102.383C121.676 102.89 122.423 102.697 122.335 102.19L122.34 102.21Z" fill="white"/>
<path d="M120.575 110.534C119.393 106.042 118.769 101.422 118.716 96.7779C118.71 96.2811 117.936 96.2688 117.943 96.7656C117.997 101.479 118.63 106.168 119.828 110.727C119.854 110.826 119.918 110.91 120.006 110.962C120.094 111.014 120.199 111.029 120.298 111.003C120.397 110.977 120.482 110.914 120.534 110.826C120.586 110.738 120.601 110.633 120.575 110.534Z" fill="white"/>
<path d="M118.735 113.692C117.533 109.691 116.722 105.582 116.314 101.423C116.263 100.938 115.494 100.919 115.541 101.411C115.95 105.639 116.77 109.816 117.988 113.885C118.116 114.382 118.883 114.184 118.735 113.692V113.692Z" fill="white"/>
<path d="M115.448 117.791C114.016 113.092 113.301 108.204 113.328 103.292C113.322 103.195 113.279 103.105 113.209 103.039C113.139 102.972 113.047 102.934 112.95 102.933C112.854 102.931 112.76 102.966 112.688 103.03C112.615 103.093 112.57 103.182 112.56 103.278C112.53 108.26 113.252 113.218 114.701 117.984C114.83 118.481 115.597 118.283 115.448 117.791V117.791Z" fill="white"/>
<path d="M111.626 88.4562C110.62 83.8786 110.228 79.1872 110.46 74.5053C110.486 74.0107 109.713 73.9985 109.691 74.4918C109.456 79.2432 109.856 84.0041 110.879 88.6492C111.007 89.1462 111.739 88.9571 111.626 88.4562Z" fill="white"/>
<path d="M112.339 75.6316L112.714 70.1743C112.75 69.6771 111.978 69.6699 111.946 70.1608L111.566 75.6194C111.534 76.1152 112.302 76.1238 112.339 75.6316Z" fill="white"/>
<path d="M114.267 74.6032L114.824 66.9092C114.861 66.412 114.088 66.4047 114.051 66.8969L113.514 74.5858C113.476 75.078 114.25 75.0903 114.282 74.5994L114.267 74.6032Z" fill="white"/>
<path d="M117.495 74.0609C117.111 70.6971 117.286 67.2924 118.016 63.9849C118.125 63.5009 117.38 63.2904 117.271 63.7745C116.529 67.1459 116.349 70.6158 116.737 74.0447C116.793 74.5287 117.568 74.5459 117.51 74.057L117.495 74.0609Z" fill="white"/>
<path d="M119.639 73.9475C120.362 69.4872 119.59 64.6707 121.462 60.4438C121.66 59.9951 121 59.5983 120.798 60.0533C118.868 64.3853 119.619 69.1808 118.885 73.7445C118.803 74.2271 119.549 74.4426 119.624 73.9513L119.639 73.9475Z" fill="white"/>
<path d="M122.409 69.8437C122.892 65.4808 123.731 61.1642 124.918 56.937C124.946 56.8384 124.934 56.7327 124.884 56.6432C124.834 56.5537 124.75 56.4877 124.651 56.4598C124.552 56.4319 124.446 56.4443 124.357 56.4943C124.267 56.5443 124.201 56.6279 124.173 56.7265C122.962 61.0203 122.105 65.4053 121.61 69.8379C121.557 70.3289 122.33 70.3412 122.384 69.8501L122.409 69.8437Z" fill="white"/>
<path d="M126.051 70.0001C126.311 64.9639 127.392 60.003 129.253 55.3132C129.435 54.8472 128.693 54.6466 128.513 55.1014C126.64 59.8551 125.556 64.881 125.302 69.9814C125.277 70.4809 126.05 70.4882 126.076 69.9937L126.051 70.0001Z" fill="white"/>
<path d="M129.156 68.5512C129.687 63.0751 131.15 57.7287 133.481 52.7417C133.69 52.2955 133.025 51.9 132.817 52.3513C130.43 57.4577 128.93 62.9318 128.383 68.5389C128.335 69.0337 129.107 69.041 129.156 68.5512Z" fill="white"/>
<path d="M135.469 63.6649C135.841 59.3408 136.875 55.0986 138.535 51.0861C138.724 50.6238 137.982 50.4233 137.79 50.8756C136.118 54.9519 135.081 59.2591 134.715 63.6475C134.674 64.146 135.446 64.1533 135.489 63.6598L135.469 63.6649Z" fill="white"/>
<path d="M139.053 57.7974L140.787 49.3962C140.886 48.9148 140.144 48.698 140.042 49.1857L138.313 57.5856C138.21 58.0734 138.955 58.2838 139.053 57.7974Z" fill="white"/>
<path d="M142.697 53.1923C142.505 51.4064 142.754 49.6003 143.421 47.9313C143.435 47.8825 143.439 47.8314 143.433 47.781C143.427 47.7305 143.411 47.6818 143.386 47.6375C143.362 47.5931 143.328 47.5541 143.288 47.5227C143.249 47.4912 143.203 47.4679 143.154 47.4541C143.105 47.4403 143.054 47.4362 143.003 47.4421C142.953 47.4481 142.904 47.4639 142.86 47.4886C142.815 47.5134 142.776 47.5466 142.744 47.5865C142.713 47.6263 142.69 47.672 142.676 47.7208C141.988 49.4538 141.73 51.3268 141.924 53.18C141.925 53.2815 141.966 53.3785 142.037 53.4509C142.108 53.5233 142.204 53.5656 142.306 53.5691C142.408 53.5705 142.506 53.5317 142.579 53.4611C142.653 53.3905 142.695 53.2939 142.697 53.1923V53.1923Z" fill="white"/>
<path d="M145.452 50.4071L146.296 47.2359C146.317 47.1402 146.301 47.0399 146.251 46.9556C146.201 46.8713 146.12 46.8094 146.026 46.7824C145.931 46.7553 145.83 46.7653 145.743 46.8102C145.655 46.8552 145.588 46.9317 145.555 47.0241L144.707 50.1966C144.679 50.2953 144.691 50.4009 144.741 50.4904C144.791 50.5799 144.875 50.6459 144.974 50.6738C145.073 50.7017 145.178 50.6893 145.268 50.6393C145.358 50.5893 145.424 50.5057 145.452 50.4071V50.4071Z" fill="white"/>
<path d="M148.5 49.2699C148.679 47.6285 149.236 46.0505 150.13 44.6602C150.393 44.2421 149.731 43.8566 149.461 44.271C148.505 45.7777 147.911 47.4845 147.726 49.2577C147.725 49.3084 147.734 49.3587 147.753 49.4059C147.772 49.453 147.8 49.496 147.835 49.5325C147.87 49.5689 147.912 49.598 147.959 49.6181C148.006 49.6383 148.056 49.6491 148.106 49.6499C148.157 49.6507 148.208 49.6415 148.255 49.6228C148.302 49.6042 148.345 49.5764 148.382 49.5411C148.418 49.5058 148.448 49.4637 148.468 49.4172C148.488 49.3707 148.499 49.3206 148.5 49.2699Z" fill="white"/>
<path d="M150.757 50.585C150.846 47.6749 151.603 44.8235 152.971 42.2509C153.203 41.8144 152.539 41.4239 152.307 41.8604C150.865 44.5425 150.063 47.5205 149.965 50.5617C149.971 50.6579 150.014 50.7482 150.084 50.8146C150.154 50.8811 150.246 50.9189 150.343 50.9206C150.439 50.9223 150.533 50.8878 150.605 50.8238C150.678 50.7599 150.723 50.6712 150.733 50.5753L150.757 50.585Z" fill="white"/>
<path d="M154.549 49.717C155.928 45.6148 157.67 41.6427 159.754 37.8476C159.988 37.4161 159.327 37.0194 159.085 37.4584C156.972 41.3148 155.207 45.3513 153.813 49.5201C153.653 49.9909 154.397 50.1964 154.552 49.7269L154.549 49.717Z" fill="white"/>
<path d="M163.198 40.7117L164.961 37.0111C165.011 36.9225 165.024 36.8185 164.999 36.7205C164.973 36.6225 164.911 36.5379 164.825 36.4843C164.737 36.4339 164.632 36.42 164.534 36.4454C164.435 36.4709 164.35 36.5337 164.297 36.6206L162.529 40.3225C162.503 40.3663 162.486 40.4148 162.479 40.4651C162.472 40.5155 162.476 40.5666 162.488 40.6157C162.501 40.6648 162.524 40.7109 162.555 40.7513C162.585 40.7917 162.624 40.8256 162.668 40.8512C162.712 40.8767 162.76 40.8934 162.811 40.9002C162.861 40.907 162.912 40.9039 162.961 40.8909C163.011 40.878 163.057 40.8555 163.097 40.8247C163.138 40.794 163.172 40.7556 163.198 40.7117V40.7117Z" fill="white"/>
<path d="M166.118 39.9466C166.61 37.9767 167.473 36.1181 168.661 34.4701C168.955 34.0654 168.287 33.6812 167.997 34.0796C166.772 35.7828 165.882 37.7022 165.373 39.7361C165.253 40.2178 165.998 40.4282 166.118 39.9466Z" fill="white"/>
<path d="M170.136 37.5671L171.206 33.4837C171.222 33.3898 171.203 33.2932 171.152 33.2126C171.101 33.132 171.022 33.0731 170.93 33.0474C170.838 33.0216 170.74 33.0309 170.655 33.0733C170.569 33.1157 170.502 33.1882 170.467 33.2769L169.396 37.3553C169.368 37.4539 169.38 37.5596 169.43 37.6491C169.48 37.7386 169.564 37.8046 169.662 37.8325C169.761 37.8604 169.867 37.848 169.957 37.798C170.047 37.748 170.113 37.6644 170.141 37.5658L170.136 37.5671Z" fill="white"/>
<path d="M173.386 35.8576L174.32 31.8626C174.428 31.3785 173.688 31.1667 173.575 31.6521L172.647 35.6508C172.532 36.1312 173.277 36.3417 173.386 35.8576Z" fill="white"/>
<path d="M176.453 33.2734C176.178 31.319 176.517 29.3269 177.424 27.572C177.65 27.1318 176.985 26.7364 176.76 27.1815C175.767 29.1162 175.405 31.3122 175.726 33.4612C175.752 33.5601 175.815 33.6447 175.903 33.6965C175.992 33.7483 176.097 33.7631 176.196 33.7375C176.295 33.7119 176.38 33.6481 176.432 33.5601C176.484 33.4721 176.498 33.3671 176.473 33.2682L176.453 33.2734Z" fill="white"/>
</g>
<defs>
<clipPath id="clip0_106_31">
<rect width="182" height="250" fill="white" transform="translate(46.1355 239.301) rotate(-104.485)"/>
</clipPath>
</defs>
</svg>
