<svg width="172" height="167" viewBox="0 0 172 167" fill="none" xmlns="http://www.w3.org/2000/svg">
<path fill-rule="evenodd" clip-rule="evenodd" d="M21.5501 119.632C22.1459 119.719 21.4939 119.632 22.1684 119.82C22.6743 119.98 23.7872 120.343 24.4168 119.356C25.2599 116.193 23.1577 115.787 21.3028 115.207C22.3033 112.305 23.9221 110.289 20.4034 105.675C16.6599 100.772 14.6251 99.4949 16.0528 91.8348C16.4516 90.296 16.7893 88.7319 17.0646 87.1487C17.9752 79.329 6.73332 80.1124 2.92233 87.0617C-1.57442 95.4472 -0.98984 107.735 5.42927 114.061C5.5996 114.258 5.7931 114.42 6.0026 114.54C6.20917 114.702 6.43831 114.81 6.67711 114.859C-6.88058 92.9519 10.1059 79.9093 13.4784 87.1923C14.6026 89.7166 13.4222 93.9384 13.0737 96.1146C12.2531 101.25 12.4442 100.873 15.6481 104.979C16.605 106.171 17.2863 107.682 17.6158 109.345C17.9454 111.008 17.9102 112.756 17.5143 114.394C16.2439 118.834 13.692 119.052 10.6905 119.008C12.7028 121.561 14.389 120.459 16.8735 120.038C17.5705 121.271 18.8521 124.956 20.4147 124.39C21.9773 123.825 21.9998 121.068 21.5389 119.675M34.5907 28.2758C32.3423 29.4655 30.982 31.279 28.0142 31.4966C24.0008 31.8012 25.3161 27.8841 25.5185 25.0551C25.3241 25.1579 25.1482 25.311 25.0014 25.5048C24.4684 26.1517 24.0768 26.9681 23.8656 27.8721C23.6545 28.7761 23.6313 29.7359 23.7985 30.6551C25.3161 36.6033 31.9713 34.8334 34.6019 28.2758H34.5907ZM0.831342 69.9859C1.11239 65.445 0.572779 66.4605 1.75318 60.7734C3.09096 54.3174 7.22797 46.2656 13.1187 44.5246C14.7825 44.0023 19.4254 43.6687 20.1561 47.4262C20.8081 50.705 16.9747 54.5931 14.8724 57.0594C11.7135 60.7734 12.6241 62.8626 12.8377 66.1849C13.1412 70.4357 10.2408 77.3269 5.71031 77.4865C3.92286 77.4865 3.36076 76.7031 1.77566 75.644C2.33775 80.8668 6.50849 80.4896 9.81359 79.4015C13.8382 78.0813 16.2552 75.8906 16.1765 70.5807C16.1765 67.2004 14.7937 63.3268 16.806 59.076C18.6722 55.1154 23.9783 51.1257 24.2032 47.6438C24.473 43.2915 19.5041 40.8977 16.3339 41.0863C13.1637 41.2749 10.342 42.8997 7.14927 46.4397C0.15683 54.2014 -1.05729 63.7621 0.831342 69.9859ZM4.77724 96.6224C4.66482 99.0887 3.19213 101.889 5.40678 107.793C6.36834 109.888 7.64252 111.716 9.15545 113.17C10.6684 114.624 12.39 115.677 14.2204 116.266C9.93726 111.594 6.86823 109.012 5.36181 101.599C5.02456 99.9447 5.09201 97.783 4.77724 96.6224ZM8.39712 51.8511C8.20758 52.0132 8.02725 52.1926 7.85751 52.3879C5.5002 55.1113 3.98338 58.8409 3.5856 62.8916C3.36076 65.4595 4.03527 71.1756 5.36181 73.2212C4.79972 71.1611 4.9009 65.9672 5.21567 62.8916C5.52134 58.5534 6.9373 54.47 9.24026 51.2853L8.39712 51.8511ZM93.0147 34.6593C90.058 37.3287 90.2941 37.5609 86.663 36.7629C84.5608 36.2842 81.2669 35.1816 79.3895 37.909C78.6588 38.9826 77.8156 41.8697 78.8836 43.3205L79.6143 44.1764C80.4687 45.134 82.5934 46.1495 83.178 47.2231C83.5378 47.8759 83.178 48.4127 83.0544 48.8915C81.056 48.947 79.058 48.7673 77.0849 48.3547L76.3542 48.2096C71.509 47.6148 66.0904 46.4397 61.6161 49.5443L60.8179 50.1392C60.3702 50.4544 59.9418 50.8134 59.5364 51.2128L58.4122 52.533C57.6886 53.368 57.0737 54.3477 56.591 55.4345C55.9015 57.038 55.491 58.8161 55.3881 60.6451C55.2852 62.4741 55.4924 64.3101 55.9952 66.0253C56.5837 67.8048 57.4887 69.3803 58.637 70.6243C59.3564 71.5781 60.2215 72.3286 61.1775 72.8281C62.1335 73.3276 63.1596 73.5652 64.1905 73.5258H66.6637H66.7424L67.8666 73.4533C66.8323 82.7093 67.1134 78.6906 68.5074 82.2741L68.7097 84.0005C68.7097 85.6109 68.024 85.843 67.1808 86.3508C66.3563 86.8602 65.4831 87.226 64.584 87.4389C64.584 89.9197 65.2697 94.0255 64.9437 96.1436C64.7004 97.26 64.2532 98.2849 63.6397 99.1322C63.2687 99.727 62.0208 101.018 62.0883 101.845C62.2007 103.18 63.5722 102.324 62.0883 105.733C60.9641 108.403 63.2125 107.721 65.8318 107.764C67.192 107.934 68.5646 107.801 69.8901 107.373C69.7878 105.786 69.5193 104.224 69.092 102.73C67.7542 97.4348 68.3837 93.5902 72.1835 91.0223C73.5775 90.0793 76.8376 90.2244 78.3777 90.8192C79.3221 91.1674 80.3788 91.7767 81.2219 91.9944C81.0614 90.7139 80.9899 89.4176 81.0083 88.1208C81.2107 86.67 81.9527 86.3508 81.9864 84.5953C80.2837 84.4049 78.6709 83.5267 77.3772 82.0855C76.4278 81.1526 75.5873 80.0484 74.8815 78.8067L74.578 78.1829C74.3307 77.6896 74.3756 77.7041 74.859 77.588C75.881 77.377 76.8758 76.9865 77.8157 76.4274C78.9002 75.6152 80.1369 75.2036 81.3906 75.2378C82.1663 75.2378 82.0426 75.2378 82.5148 75.586L82.9757 75.9922L83.5715 76.4274C83.504 75.2958 83.4703 75.9632 83.2117 74.9766L83.0431 74.0046C82.3911 71.3206 83.5153 69.188 85.1566 67.8243C86.7491 66.6605 88.5015 65.9066 90.3166 65.6045C92.1846 65.3391 94.0695 65.3391 95.9375 65.6045C95.9375 65.7351 96.3422 65.474 95.5778 66.6201C94.4536 68.2885 93.0709 69.7973 92.0703 71.5818C91.4751 72.6018 91.1803 73.8616 91.2384 75.1362C91.209 75.765 91.2762 76.3952 91.4364 76.9903C91.5965 77.5854 91.8464 78.1337 92.1715 78.6036L93.9028 80.6492C94.721 81.1747 95.6172 81.4673 96.5307 81.5074C97.4442 81.5474 98.3536 81.3339 99.1977 80.8813C99.9563 80.3317 100.614 79.5762 101.124 78.667C101.634 77.7578 101.986 76.7165 102.154 75.615C102.39 74.1642 102.581 73.4678 102.795 71.901V71.5673L102.997 70.0149C103.099 69.246 102.997 69.0429 103.245 68.5642L104.178 69.2605C104.919 69.9876 105.587 70.8307 106.168 71.7704L106.46 72.1766L106.617 72.3942C107.369 73.5024 108.001 74.7372 108.495 76.0647C109.506 78.7051 109.731 82.2596 108.214 84.5663L107.708 85.2917C107.089 86.0751 106.786 86.9746 105.752 87.2793C105.909 89.4555 108.225 91.2109 108.349 93.1985C110.833 92.6907 112.452 95.3022 113.003 97.9571C113.823 101.874 111.699 103.049 112.148 106.662C113.767 107.19 115.44 107.386 117.106 107.242C118.455 107.242 120.715 107.474 121.895 106.676C121.81 105.861 121.557 105.09 121.164 104.442L120.04 102.367C119.887 102.054 119.718 101.753 119.534 101.468L116.78 96.3757C116.33 95.6068 116.117 94.9249 115.734 94.1705C115.653 94.0063 115.578 93.8368 115.51 93.6628C115.434 93.4376 115.34 93.2236 115.229 93.0244C115.044 92.6567 114.886 92.2683 114.756 91.8638C114.599 91.3415 114.532 91.0078 114.43 90.5726C114.099 88.8285 114.099 87.0068 114.43 85.2627C114.791 84.1043 115.279 83.0194 115.881 82.042L116.634 80.6782C120.074 74.6865 118.399 68.0999 117.758 60.5558C117.544 57.4511 117.185 47.3537 108.079 46.048C107.224 45.7143 97.2978 46.9619 95.4766 47.6293C93.1158 48.4853 90.8112 49.2832 89.1137 51.2418L84.5945 55.8698C83.9669 56.5891 83.2938 57.2393 82.5822 57.8138L74.1171 65.1548C73.8023 65.3869 73.555 65.4595 73.2852 65.6771C73.054 65.9071 72.8054 66.1063 72.5432 66.2719C71.475 66.9964 70.3752 67.6407 69.2493 68.2015C67.9206 68.8322 66.5 69.075 65.0899 68.9123C63.19 68.9123 61.9534 68.274 61.144 66.5911C60.6841 65.584 60.3828 64.4697 60.2574 63.312C60.132 62.1544 60.1849 60.9761 60.4132 59.8449C61.1894 57.7942 62.3492 56.0253 63.7879 54.6981C65.2266 53.3708 66.8988 52.527 68.6535 52.2428C71.6101 51.9527 74.533 52.4604 77.4447 52.533C79.8279 52.533 84.6732 53.1133 86.4382 51.0822C86.957 50.3805 87.2465 49.4479 87.2465 48.478C87.2465 47.5081 86.957 46.5755 86.4382 45.8739C85.7835 44.8866 84.938 44.1407 83.9874 43.7122C83.6703 43.5686 83.374 43.3577 83.1106 43.0884C81.8065 41.7681 82.3574 39.7225 84.0436 39.7225C88.9001 39.7225 89.6646 41.3474 92.7224 39.3018C93.9477 38.5184 94.1388 37.5028 93.8465 35.7764C93.8332 35.4896 93.7389 35.219 93.5815 35.0159C93.4241 34.8127 93.2144 34.691 92.9922 34.6738L93.0147 34.6593ZM103.975 71.3061C103.99 73.7778 103.666 76.2333 103.02 78.5601C102.684 79.6585 102.166 80.6489 101.502 81.4616C99.2539 84.0005 95.1506 84.1601 93.3182 82.7093C92.1869 81.9518 91.2378 80.8091 90.574 79.4051C89.9101 78.0011 89.5567 76.3893 89.5522 74.7445C89.5522 69.188 92.7224 69.2025 93.4868 66.7217C91.2462 66.6138 89.0235 67.2746 87.0452 68.6367C82.3236 72.2492 85.5838 77.1963 85.6962 79.0243C83.6052 78.2409 83.83 75.1507 78.5689 77.5735C77.8022 78.0446 76.9671 78.3017 76.1181 78.3279C76.579 79.7787 79.3108 81.9404 80.5474 82.4627C81.3042 82.8446 82.0926 83.1124 82.897 83.2606C83.504 83.2606 83.6052 83.1446 84.0212 83.4637L83.6165 85.0596V85.1902C82.4923 88.643 82.6609 88.2223 82.7733 91.443C83.0193 93.3272 82.7448 95.263 81.9976 96.9125L79.9741 100.627C79.1984 103.369 84.1561 107.706 88.1132 107.706C88.6978 107.706 90.058 104.486 90.429 103.702C93.1046 98.1167 94.7122 99.2048 96.9718 97.9861C98.3545 97.2317 99.2202 94.6058 99.8272 94.5042C100.142 94.5042 103.02 97.0141 104.077 97.4058C105.748 97.9427 107.473 98.1433 109.192 98.0006C109.057 97.1592 109.192 97.7395 108.877 97.0866C108.759 96.8558 108.631 96.6331 108.495 96.4193C107.7 95.1022 107.008 93.6883 106.426 92.1975C105.156 89.47 105.223 89.2088 103.38 87.8451C103.02 87.584 103.121 87.7435 102.975 87.3228C103.515 86.67 105.088 85.9591 106.156 84.6824C106.427 84.4329 106.653 84.1113 106.82 83.7394C106.971 83.415 107.11 83.0809 107.236 82.7383C108.112 80.1559 107.236 76.9352 106.348 74.759L104.538 71.6398L104.448 71.5528C104.099 71.2916 104.335 71.4367 103.975 71.3061ZM25.0913 127.887L148.875 114.017L151.214 148.952L27.4296 162.836L25.0913 127.887ZM140.793 134.517C140.783 133.977 140.679 133.446 140.489 132.965C140.412 132.828 140.307 132.723 140.186 132.661C140.064 132.6 139.931 132.584 139.803 132.616C139.676 132.617 139.552 132.662 139.443 132.747C139.335 132.831 139.245 132.951 139.185 133.095C139.053 133.614 139.022 134.167 139.095 134.705L139.354 138.637C139.36 139.277 139.467 139.909 139.668 140.494C139.744 140.629 139.847 140.735 139.966 140.799C140.085 140.863 140.215 140.883 140.343 140.857C140.559 140.815 140.756 140.67 140.894 140.451C141.074 140.209 141.13 139.585 141.062 138.579L140.793 134.517ZM144.514 127.263L140.332 127.727C140.264 126.712 140.219 126.073 140.186 125.812C140.17 125.685 140.135 125.563 140.083 125.454C140.031 125.344 139.963 125.249 139.882 125.174C139.7 125.003 139.475 124.931 139.252 124.971C139.057 124.986 138.873 125.099 138.741 125.286C138.609 125.473 138.538 125.719 138.544 125.972C138.548 126.515 138.575 127.057 138.623 127.597L138.848 131.05C139.004 130.46 139.304 129.951 139.702 129.599C140.162 129.241 140.683 129.036 141.22 129.004C141.943 128.903 142.673 129.106 143.3 129.584C143.873 129.969 144.32 130.608 144.559 131.383C144.804 132.361 144.952 133.375 144.997 134.401L145.109 136.127C145.201 137.26 145.235 138.399 145.211 139.537C145.165 140.302 144.963 141.037 144.626 141.669C144.247 142.383 143.727 142.954 143.12 143.323C142.383 143.781 141.586 144.052 140.77 144.121C139.827 144.267 138.871 144.164 137.96 143.816C137.261 143.537 136.641 143.003 136.172 142.279C135.751 141.609 135.462 140.817 135.329 139.972C135.217 139.145 135.07 137.535 134.913 135.141L134.711 132.123C134.542 129.541 134.452 127.771 134.452 126.929C134.455 126.028 134.649 125.144 135.014 124.376C135.386 123.534 135.947 122.856 136.622 122.432C137.397 121.933 138.242 121.637 139.106 121.561C140.1 121.405 141.108 121.549 142.052 121.982C142.79 122.332 143.41 123.005 143.805 123.883C144.236 124.942 144.478 126.111 144.514 127.306V127.263ZM131.304 132.413C131.901 132.572 132.435 132.999 132.811 133.617C133.313 134.977 133.574 136.464 133.575 137.97C133.712 139.332 133.647 140.715 133.384 142.046C133.151 143.031 132.642 143.869 131.956 144.397C131.094 145.034 130.127 145.397 129.135 145.456C128.062 145.657 126.967 145.482 125.965 144.948C125.256 144.565 124.674 143.872 124.323 142.989C123.936 141.59 123.716 140.122 123.671 138.637L123.559 136.925L127.741 136.446L127.977 139.986C127.986 140.596 128.073 141.199 128.235 141.771C128.297 141.897 128.388 141.995 128.494 142.052C128.601 142.109 128.719 142.122 128.831 142.09C128.968 142.093 129.101 142.039 129.212 141.938C129.323 141.836 129.407 141.691 129.45 141.524C129.538 140.682 129.538 139.828 129.45 138.985L129.348 137.535C129.34 136.91 129.225 136.296 129.011 135.736C128.937 135.569 128.839 135.423 128.721 135.306C128.603 135.189 128.469 135.103 128.325 135.054C127.773 134.965 127.214 134.965 126.662 135.054L126.448 131.891C127.066 131.855 127.68 131.738 128.28 131.543C128.394 131.477 128.494 131.379 128.574 131.256C128.654 131.133 128.711 130.988 128.741 130.832C128.818 130.314 128.818 129.783 128.741 129.265L128.663 128.061C128.656 127.556 128.559 127.06 128.382 126.61C128.312 126.496 128.22 126.408 128.115 126.355C128.011 126.301 127.897 126.284 127.786 126.305C127.668 126.302 127.553 126.343 127.453 126.423C127.353 126.503 127.274 126.618 127.224 126.755C127.13 127.3 127.13 127.864 127.224 128.409L127.336 130.194L123.154 130.658L123.03 128.801C122.901 128.043 122.908 127.256 123.05 126.502C123.192 125.748 123.466 125.045 123.851 124.448C124.828 123.516 126.009 123.008 127.224 122.998C129.225 122.766 130.596 123.128 131.394 124.057C132.226 125.153 132.708 126.614 132.743 128.148C132.855 129.051 132.781 129.977 132.53 130.832C132.24 131.504 131.817 132.064 131.304 132.457V132.413ZM111.811 149.112L123.784 147.763L123.874 149.213L111.901 150.563L111.811 149.112ZM106.595 139.812C106.213 137.36 105.797 134.343 105.313 130.716C105.167 134.952 105.1 137.97 105.111 139.972L106.595 139.812ZM107.978 125.551L111.923 147.023L107.427 147.516L106.966 143.642L105.392 143.816V147.748L100.895 148.256L101.66 126.233L107.978 125.551ZM99.5125 136.055L95.1394 136.548L94.8808 132.776C94.8744 132.08 94.7834 131.39 94.611 130.73C94.5443 130.596 94.4468 130.491 94.3319 130.431C94.2171 130.372 94.0906 130.359 93.9702 130.397C93.8298 130.385 93.6903 130.434 93.5742 130.537C93.458 130.639 93.3719 130.789 93.3294 130.962C93.2458 131.679 93.2458 132.408 93.3294 133.124L94.0039 143.28C94.0137 143.976 94.1086 144.667 94.285 145.325C94.364 145.457 94.4687 145.56 94.5885 145.623C94.7083 145.686 94.8389 145.707 94.967 145.683C95.095 145.659 95.2159 145.592 95.3173 145.489C95.4187 145.385 95.4969 145.249 95.5441 145.093C95.6294 144.333 95.6294 143.561 95.5441 142.801L95.3642 140.059L99.7373 139.58L99.7935 140.422C99.9694 142.024 99.9694 143.65 99.7935 145.253C99.5531 146.33 99.0382 147.27 98.3321 147.922C97.4505 148.775 96.396 149.279 95.2967 149.373C94.2024 149.55 93.0913 149.36 92.0703 148.822C91.2441 148.407 90.5777 147.588 90.2154 146.544C89.7998 145.016 89.5575 143.418 89.496 141.8L89.0688 135.46C88.9771 134.284 88.9433 133.102 88.9676 131.92C89.003 131.085 89.2043 130.275 89.5522 129.57C89.9456 128.77 90.4964 128.119 91.1485 127.684C92.0332 127.12 92.9999 126.804 93.9857 126.754C94.9714 126.704 95.9544 126.922 96.8706 127.394C97.6639 127.823 98.3078 128.613 98.6806 129.613C99.0862 131.039 99.3212 132.536 99.3776 134.053L99.5125 136.055ZM84.0549 142.337C83.6839 139.885 83.2567 136.867 82.7846 133.24C82.6272 137.477 82.5597 140.494 82.571 142.496L84.0549 142.337ZM85.4264 128.075L89.3835 149.547L84.8868 150.04L84.3809 146.167L82.807 146.341V150.272L78.3103 150.78L79.0635 128.786L85.4264 128.075ZM73.0603 145.586L72.8467 142.453C72.8783 141.852 72.7643 141.254 72.5207 140.741C72.1383 140.511 71.709 140.445 71.2954 140.552L71.7675 147.69C72.1634 147.699 72.553 147.563 72.8917 147.298C73.0603 147.139 73.1278 146.544 73.0603 145.586ZM77.4784 145.76C77.6211 146.95 77.5322 148.166 77.2198 149.3C77.0821 149.655 76.8876 149.967 76.6492 150.217C76.4108 150.468 76.134 150.649 75.8371 150.751C74.8084 151.082 73.7586 151.29 72.7006 151.375L67.653 151.941L66.1916 130.179L74.7466 129.222L75.0052 132.979L70.812 133.487L71.0593 137.172L71.7338 137.085C72.754 136.947 73.7826 136.947 74.8028 137.085C75.123 137.129 75.4328 137.258 75.7132 137.462C75.9935 137.667 76.2384 137.943 76.4329 138.274C76.902 139.252 77.1583 140.375 77.1749 141.524L77.4784 145.76ZM65.9105 152.173L61.5374 152.666L60.4132 135.257L59.1429 135.387L59.9636 147.705C60.1099 148.893 60.0249 150.109 59.7162 151.244C59.5803 151.601 59.3864 151.914 59.1477 152.165C58.9091 152.415 58.6313 152.596 58.3335 152.695C57.3137 153.034 56.2708 153.243 55.2195 153.319L54.5337 153.392L54.2864 149.663C54.6826 149.675 55.0729 149.539 55.4106 149.271C55.6017 149.083 55.6579 148.488 55.5905 147.501L54.4663 131.543L64.4828 130.411L65.9105 152.173ZM48.1596 137.839C48.1428 137.188 48.0558 136.544 47.901 135.924C47.8548 135.792 47.7751 135.684 47.675 135.618C47.5748 135.552 47.4603 135.532 47.3502 135.561C47.2499 135.565 47.1521 135.603 47.0671 135.672C46.9821 135.741 46.9129 135.838 46.8668 135.953C46.7564 136.628 46.7564 137.324 46.8668 137.999L47.5413 148.154C47.5651 148.939 47.6594 149.718 47.8223 150.476C47.8652 150.615 47.9456 150.73 48.0488 150.8C48.1521 150.869 48.2713 150.888 48.3844 150.853C48.5103 150.855 48.6327 150.799 48.7295 150.696C48.8264 150.592 48.8914 150.447 48.9128 150.287C48.9831 149.477 48.9831 148.66 48.9128 147.85L48.1596 137.839ZM53.0048 144.498C53.129 146.041 53.1928 147.59 53.196 149.141C53.188 150.052 52.9899 150.944 52.6226 151.723C52.2393 152.536 51.6912 153.198 51.0375 153.638C50.2835 154.157 49.4512 154.459 48.598 154.523C47.7736 154.634 46.9403 154.53 46.1473 154.219C45.4395 153.968 44.8006 153.465 44.3036 152.768C43.833 152.089 43.5075 151.264 43.3593 150.374C43.2244 149.475 43.0783 147.922 42.9209 145.688L42.7073 141.959C42.5612 139.783 42.5049 138.231 42.5162 137.317C42.5335 136.405 42.735 135.515 43.1008 134.735C43.4764 133.919 44.0217 133.256 44.6746 132.819C46.1956 131.846 47.9432 131.639 49.5761 132.239C50.2806 132.49 50.9158 132.993 51.4085 133.69C51.8814 134.366 52.2072 135.192 52.3528 136.084C52.5633 137.635 52.7096 139.199 52.7913 140.77L53.0048 144.498ZM30.8246 134.198L35.1977 133.704L35.8273 142.888C36.6367 142.772 37.0189 142.134 36.9515 140.973L36.7491 136.722C36.605 135.6 36.785 134.449 37.255 133.487L41.2908 133.037C40.8722 134.066 40.745 135.251 40.9311 136.388L41.2009 140.102C41.3695 142.366 40.4702 143.758 38.5141 144.295C40.5151 144.382 41.5831 145.572 41.718 147.864L41.9316 151.332C41.9252 152.562 42.2073 153.765 42.741 154.784L38.7052 155.234C38.4001 154.825 38.1622 154.34 38.0058 153.809C37.8493 153.278 37.7775 152.712 37.7946 152.144L37.5136 147.908C37.4929 147.426 37.3276 146.973 37.0526 146.645C36.7717 146.351 36.4125 146.21 36.0521 146.254L36.6479 155.466L32.2748 155.96L30.8246 134.198ZM93.7791 101.976C94.0264 102.846 93.5767 102.063 94.0377 102.73C94.2063 102.977 94.8021 103.281 95.0944 103.905C95.4411 104.85 95.5958 105.894 95.5441 106.937L96.3535 107.228C95.8856 108.626 95.5351 110.085 95.308 111.58C96.1615 111.509 97.0176 111.509 97.8711 111.58C98.3321 111.58 99.3888 111.74 100.12 111.769C101.33 111.95 102.552 111.95 103.762 111.769C104.152 111.707 104.531 111.565 104.886 111.348C104.518 110.166 103.976 109.087 103.29 108.171C101.39 105.632 99.6249 102.019 99.6249 98.2037C98.2421 98.8566 96.6458 100.119 95.2855 100.975C94.7684 101.284 94.2662 101.618 93.7791 101.976ZM157.183 74.3093C157.125 73.8232 157.156 73.3264 157.273 72.8585C157.375 72.4692 157.567 72.1298 157.824 71.8865C158.113 71.6229 158.45 71.4628 158.802 71.4222L161.871 70.958C162.212 70.8916 162.561 70.9416 162.883 71.103C163.168 71.2673 163.41 71.5343 163.58 71.8719C163.772 72.2819 163.887 72.7438 163.917 73.2212C163.978 73.7061 163.951 74.2027 163.838 74.672C163.736 75.0532 163.548 75.3865 163.299 75.6295C163.015 75.8848 162.687 76.0445 162.343 76.0937L159.207 76.587C158.863 76.6641 158.509 76.619 158.184 76.4564C157.893 76.3051 157.648 76.035 157.487 75.6875C157.302 75.266 157.198 74.7934 157.183 74.3093V74.3093ZM163.029 65.532L163.198 66.7362C163.292 67.266 163.236 67.8217 163.04 68.303C162.943 68.5141 162.809 68.6933 162.649 68.8267C162.489 68.9601 162.308 69.044 162.118 69.0719L161.579 69.2025C161.294 69.2985 160.991 69.2464 160.736 69.0574C160.482 68.8585 160.291 68.5501 160.196 68.187C160.215 68.6073 160.12 69.0232 159.926 69.3621C159.722 69.6887 159.428 69.9016 159.106 69.9569L158.476 70.1165C158.283 70.1668 158.084 70.167 157.891 70.1172C157.698 70.0674 157.515 69.9685 157.352 69.8263C157.015 69.4585 156.799 68.9405 156.745 68.3756L156.565 67.1134L156.475 66.417L156.329 65.3869L162.849 63.8346L162.995 64.8647L163.029 65.532ZM160.556 66.1268L160.668 66.9683C160.691 67.1449 160.763 67.3047 160.871 67.418C161.004 67.4867 161.153 67.4867 161.287 67.418H161.568C161.626 67.4093 161.683 67.384 161.734 67.3439C161.784 67.3038 161.827 67.2499 161.86 67.1859C161.907 67.0372 161.907 66.8703 161.86 66.7217L161.736 65.8367L160.556 66.1268ZM157.757 66.7942L157.903 67.8388C157.908 67.9228 157.929 68.004 157.964 68.0749C157.999 68.1458 158.048 68.2043 158.105 68.245C158.242 68.316 158.395 68.316 158.532 68.245L158.948 68.1579C159.119 68.1228 159.272 68.0031 159.375 67.8243C159.42 67.7323 159.45 67.6298 159.464 67.5226C159.477 67.4155 159.474 67.3059 159.454 67.2004L159.342 66.359L157.757 66.7942ZM160.713 60.5558L155.677 62.703L155.25 60.9475L160.286 58.8004L159.937 57.3496L161.197 56.8128L162.321 61.3973L161.062 61.9341L160.713 60.5558ZM153.968 57.0449C153.82 56.5863 153.755 56.0902 153.777 55.5941C153.797 55.1655 153.918 54.7552 154.125 54.419C154.354 54.0624 154.653 53.7918 154.991 53.6356L157.734 52.1848C158.087 51.9842 158.474 51.9043 158.858 51.9527C159.191 52.0069 159.501 52.1947 159.746 52.4894C160.023 52.8397 160.234 53.2663 160.365 53.7371C160.511 54.1961 160.573 54.6928 160.545 55.1879C160.52 55.6246 160.39 56.0405 160.174 56.3775C159.924 56.7441 159.607 57.0235 159.252 57.19L158.881 57.3931L158.375 55.6957L158.678 55.5361C158.882 55.45 159.057 55.2758 159.173 55.0428C159.215 54.9346 159.236 54.8154 159.236 54.6946C159.236 54.5738 159.215 54.4547 159.173 54.3465C159.147 54.2316 159.099 54.1268 159.035 54.0408C158.97 53.9549 158.89 53.8905 158.802 53.8532C158.611 53.7539 158.397 53.7539 158.206 53.8532L155.587 55.2024C155.497 55.2401 155.414 55.3006 155.343 55.3803C155.271 55.46 155.213 55.5574 155.171 55.6667C155.135 55.7743 155.116 55.8903 155.116 56.0076C155.116 56.1249 155.135 56.2409 155.171 56.3485C155.198 56.4602 155.243 56.5631 155.303 56.6507C155.363 56.7382 155.437 56.8083 155.519 56.8563C155.701 56.9417 155.9 56.9417 156.082 56.8563L156.374 56.7112L156.868 58.4232L156.531 58.5973C156.197 58.7757 155.833 58.8406 155.474 58.7859C155.145 58.7237 154.839 58.5311 154.598 58.2346C154.334 57.8994 154.13 57.4932 154.002 57.0449H153.968ZM156.082 46.6863L153.676 48.4563C153.336 48.733 152.951 48.902 152.552 48.9495L153.192 50.4728L156.632 47.8905L156.082 46.6863ZM151.529 46.6863L151.641 46.9765L151.72 47.1506C151.748 47.2093 151.785 47.2593 151.83 47.297C151.875 47.3346 151.925 47.3589 151.978 47.3682C152.123 47.4086 152.272 47.4086 152.417 47.3682C152.624 47.2773 152.823 47.1607 153.012 47.02L156.599 44.3941L156.981 45.2935L157.239 45.9319L157.768 47.1651L158.128 48.021L158.442 48.7754L153.822 52.1558L153.946 52.4459L154.238 53.1278L151.619 55.0573L150.966 53.5195L152.417 52.4459L151.978 51.4014L151.011 49.1091L149.55 50.1827L148.909 48.6449L151.529 46.6863ZM148.988 44.9889C148.768 44.6081 148.622 44.1656 148.561 43.6977C148.503 43.288 148.55 42.8653 148.696 42.4935C148.852 42.0838 149.088 41.7338 149.381 41.478L151.933 39.1857C152.209 38.9137 152.534 38.7388 152.878 38.678C153.19 38.6299 153.506 38.7167 153.777 38.9246C154.092 39.1583 154.358 39.4868 154.553 39.8821C154.771 40.2657 154.92 40.7066 154.991 41.1733C155.043 41.5783 154.996 41.9942 154.856 42.363C154.701 42.7653 154.469 43.1098 154.182 43.364L151.607 45.7723C151.335 46.0414 151.014 46.2162 150.674 46.2801C150.364 46.3326 150.049 46.2564 149.775 46.0625C149.449 45.7929 149.178 45.4243 148.988 44.9889ZM150.045 43.9878C150.081 44.0764 150.134 44.1518 150.199 44.2075C150.264 44.2632 150.338 44.2974 150.416 44.307C150.587 44.3166 150.755 44.2443 150.888 44.1039L153.316 41.8262C153.456 41.7153 153.557 41.5383 153.597 41.3329C153.621 41.1355 153.585 40.934 153.497 40.7695C153.409 40.605 153.276 40.49 153.125 40.4479C152.962 40.4387 152.803 40.5057 152.675 40.6365L150.247 42.9143C150.099 43.0264 149.99 43.2084 149.943 43.422C149.923 43.5268 149.921 43.6364 149.938 43.7421C149.956 43.8479 149.992 43.9469 150.045 44.0314V43.9878ZM150.359 32.8603L150.708 33.3826L151.337 34.2966C151.632 34.6882 151.807 35.2029 151.832 35.7474C151.829 35.997 151.784 36.2428 151.701 36.4681C151.617 36.6934 151.497 36.8929 151.349 37.0531L150.944 37.5318C150.734 37.8038 150.454 37.9687 150.157 37.9961C149.864 37.9986 149.581 37.8646 149.359 37.6189C149.54 37.9748 149.623 38.3989 149.595 38.823C149.549 39.2378 149.384 39.6154 149.134 39.8821L148.662 40.4624C148.517 40.6546 148.341 40.8045 148.147 40.9021C147.953 40.9996 147.746 41.0427 147.538 41.0282C147.317 40.9951 147.103 40.9048 146.91 40.7627C146.717 40.6206 146.548 40.4296 146.414 40.2013L145.761 39.2438L145.402 38.7215L144.873 37.9526L149.786 32.1494L150.359 32.8603ZM148.842 35.5878L149.28 36.2261C149.322 36.2961 149.374 36.3542 149.434 36.3966C149.494 36.4391 149.561 36.465 149.629 36.4728C149.701 36.4684 149.772 36.4457 149.838 36.4059C149.903 36.366 149.962 36.3099 150.011 36.2406L150.225 35.994C150.268 35.9444 150.303 35.8842 150.328 35.817C150.353 35.7498 150.368 35.6768 150.371 35.6023C150.371 35.4401 150.323 35.284 150.236 35.1671L149.775 34.4852L148.842 35.5878ZM146.728 38.0976L147.268 38.8956C147.307 38.9618 147.359 39.0148 147.417 39.0501C147.476 39.0855 147.54 39.1021 147.605 39.0987C147.755 39.0811 147.895 38.9934 147.999 38.8521L148.302 38.4894C148.435 38.342 148.52 38.1343 148.538 37.909C148.541 37.7994 148.526 37.6901 148.495 37.5879C148.465 37.4856 148.418 37.3926 148.358 37.3142L147.931 36.6759L146.728 38.0976ZM142.726 35.1961C142.475 34.8781 142.276 34.4982 142.142 34.079C142.042 33.7363 142.018 33.3643 142.074 33.0054C142.151 32.633 142.303 32.293 142.513 32.0189L142.951 31.453L143.862 32.6572L143.592 33.0199C143.541 33.0769 143.501 33.1487 143.476 33.2294C143.45 33.3101 143.44 33.3974 143.446 33.4841C143.466 33.6783 143.538 33.8575 143.648 33.9919C143.697 34.0643 143.758 34.1223 143.826 34.1623C143.893 34.2023 143.967 34.2234 144.041 34.224C144.193 34.2122 144.334 34.1235 144.435 33.9774L144.885 33.3826C144.94 33.319 144.983 33.2406 145.013 33.1529C145.042 33.0651 145.056 32.9702 145.053 32.8748C145.032 32.6624 144.952 32.4669 144.828 32.3235L144.311 31.6271L145.121 30.5536L145.649 31.2644C145.728 31.38 145.835 31.4568 145.953 31.4821C146.007 31.4902 146.062 31.4812 146.113 31.456C146.164 31.4307 146.209 31.3899 146.245 31.337L146.627 30.8437C146.673 30.7913 146.709 30.7262 146.732 30.6533C146.755 30.5805 146.766 30.5017 146.762 30.423C146.76 30.3405 146.745 30.2593 146.718 30.1845C146.691 30.1097 146.652 30.0428 146.605 29.9878C146.52 29.8564 146.399 29.7731 146.267 29.7556C146.206 29.7575 146.146 29.7751 146.09 29.8075C146.034 29.8399 145.983 29.8864 145.941 29.9442L145.739 30.2199L144.828 29.0157L145.177 28.5515C145.316 28.3448 145.489 28.1814 145.684 28.0733C145.878 27.9653 146.089 27.9155 146.301 27.9276C146.771 28.0094 147.2 28.3147 147.504 28.7836C147.865 29.1935 148.093 29.7628 148.145 30.3795C148.149 30.6519 148.109 30.9224 148.025 31.1727C147.942 31.423 147.818 31.6473 147.661 31.8303L147.066 32.6137C146.947 32.7699 146.794 32.8761 146.627 32.9183C146.428 32.9614 146.223 32.9208 146.043 32.8023C146.158 33.0725 146.212 33.3791 146.2 33.6873C146.172 33.966 146.068 34.223 145.908 34.4126L145.222 35.3121C145.07 35.5392 144.882 35.7206 144.67 35.8434C144.459 35.9662 144.229 36.0276 143.997 36.023C143.521 35.9563 143.081 35.6673 142.76 35.2106L142.726 35.1961ZM139.972 31.6271L142.468 27.6665L138.769 30.3214L137.937 29.4074L142.153 22.7048L143.108 23.7494L140.601 27.739L144.323 25.0696L145.154 25.9691L140.927 32.6862L139.972 31.6271ZM135.318 26.9411C135.016 26.6667 134.77 26.3037 134.598 25.882C134.456 25.5142 134.405 25.0989 134.452 24.6924C134.503 24.2391 134.643 23.8098 134.857 23.4447L136.734 20.1224C136.929 19.7496 137.197 19.4494 137.51 19.2519C137.791 19.0857 138.106 19.04 138.409 19.1214C138.768 19.214 139.104 19.4182 139.387 19.7162C139.683 19.9894 139.925 20.3469 140.096 20.7608C140.245 21.1257 140.304 21.5409 140.264 21.9504C140.208 22.3956 140.065 22.815 139.848 23.1691L137.971 26.5204C137.773 26.8901 137.506 27.1895 137.195 27.3908C136.911 27.5631 136.592 27.6139 136.285 27.5359C135.931 27.4453 135.599 27.2463 135.318 26.9556V26.9411ZM136.082 25.5629C136.14 25.6281 136.208 25.6752 136.283 25.7004C136.357 25.7255 136.434 25.7281 136.509 25.7079C136.677 25.6449 136.82 25.5057 136.914 25.3162L138.69 22.168C138.797 22.002 138.85 21.7885 138.837 21.5732C138.828 21.4754 138.803 21.381 138.764 21.2961C138.726 21.2112 138.674 21.1376 138.612 21.0799C138.553 21.0165 138.485 20.9706 138.411 20.9456C138.337 20.9205 138.26 20.9168 138.184 20.9348C138.023 20.9875 137.882 21.1171 137.791 21.2975L136.015 24.4603C135.91 24.6395 135.854 24.8592 135.857 25.0841C135.865 25.1824 135.889 25.2775 135.928 25.3626C135.967 25.4478 136.019 25.5211 136.082 25.5774V25.5629ZM133.103 17.598L131.732 20.4996C131.656 20.6712 131.603 20.8574 131.574 21.0509C131.54 21.2075 131.54 21.3731 131.574 21.5297C131.631 21.6721 131.717 21.7923 131.822 21.8779C131.901 21.9313 131.99 21.9592 132.08 21.9592C132.17 21.9592 132.259 21.9313 132.339 21.8779C132.543 21.7459 132.709 21.5322 132.811 21.2685L134.16 18.367C134.279 18.1293 134.341 17.8519 134.34 17.569C134.332 17.4524 134.302 17.3401 134.253 17.2416C134.204 17.1431 134.137 17.0613 134.059 17.0032C133.956 16.9121 133.835 16.8617 133.71 16.8581C133.589 16.8717 133.472 16.9268 133.373 17.0177C133.254 17.1913 133.162 17.3934 133.103 17.6125V17.598ZM132.923 14.5224L134.115 15.4799L133.71 16.3649C133.915 16.1894 134.144 16.0663 134.385 16.0022C134.53 15.9612 134.681 15.958 134.828 15.9929C134.974 16.0278 135.114 16.1 135.239 16.2053C135.481 16.3832 135.67 16.6584 135.779 16.9887C135.854 17.3399 135.854 17.7111 135.779 18.0623C135.704 18.5317 135.563 18.9793 135.363 19.3825L133.879 22.6032C133.7 23.0262 133.459 23.4006 133.171 23.7058C132.945 23.9342 132.678 24.084 132.395 24.1411C132.113 24.1602 131.834 24.0637 131.597 23.8654C131.344 23.6622 131.156 23.348 131.068 22.9805C131.017 22.6697 131.017 22.3482 131.068 22.0374L129.27 25.911L128.078 24.9535L132.923 14.5224ZM130.034 12.4913L130.776 12.9845L131.248 13.3037L128.28 21.0944L127.021 20.3255L129.393 14.0871L128.359 13.4198L125.987 19.6436L124.773 18.7587L127.741 10.9679L128.393 11.3887L128.955 11.7659L130.034 12.4913ZM121.4 11.3451L121.67 10.4166C121.758 10.1408 121.777 9.83689 121.726 9.54617C121.696 9.42774 121.645 9.32012 121.576 9.23194C121.508 9.14375 121.425 9.07747 121.333 9.0384C121.25 8.98125 121.157 8.95135 121.063 8.95135C120.969 8.95135 120.876 8.98125 120.793 9.0384C120.609 9.23586 120.472 9.49778 120.4 9.79281L120.141 10.6488L121.4 11.3451ZM119.377 15.9732C119.012 15.8069 118.687 15.5221 118.433 15.1462C118.209 14.795 118.072 14.3656 118.039 13.913C118.004 13.394 118.066 12.8717 118.219 12.3897L119.152 9.31405C119.285 8.7717 119.512 8.27554 119.815 7.86326C120.059 7.53532 120.379 7.31674 120.726 7.23942C121.107 7.16278 121.497 7.22821 121.85 7.42803C122.211 7.59647 122.532 7.88114 122.783 8.25497C123.008 8.59931 123.146 9.02486 123.177 9.47364C123.201 9.99813 123.136 10.5231 122.985 11.0115L122.333 13.2312L119.827 11.9545L119.534 12.97C119.463 13.2331 119.463 13.5194 119.534 13.7825C119.571 13.9008 119.627 14.0074 119.699 14.0951C119.771 14.1827 119.857 14.2493 119.95 14.2902C120.112 14.3765 120.294 14.3765 120.456 14.2902C120.608 14.1896 120.724 14.0185 120.782 13.8115V13.6374L122.041 14.2757V14.4208C121.958 14.7367 121.827 15.0278 121.655 15.277C121.483 15.5262 121.274 15.7284 121.041 15.8716C120.785 16.039 120.504 16.1346 120.217 16.1522C119.93 16.1697 119.644 16.1087 119.377 15.9732V15.9732ZM114.52 13.797C114.171 13.6701 113.851 13.4362 113.587 13.1151C113.352 12.8328 113.191 12.4625 113.126 12.056C113.065 11.6049 113.092 11.141 113.205 10.7068L114.104 6.74616C114.194 6.3101 114.368 5.91066 114.61 5.58553C114.834 5.30132 115.121 5.11377 115.431 5.04874C115.808 4.96819 116.195 5.01313 116.555 5.17931C116.905 5.30541 117.228 5.53375 117.499 5.84667C117.729 6.1265 117.886 6.49143 117.949 6.89123C118.015 7.33632 117.992 7.79565 117.882 8.22596L116.904 12.1721C116.812 12.607 116.638 13.0057 116.398 13.3327C116.176 13.6238 115.889 13.8169 115.577 13.884C115.222 13.95 114.859 13.9052 114.52 13.7535V13.797ZM114.891 12.1576C114.962 12.1984 115.039 12.2195 115.116 12.2195C115.194 12.2195 115.27 12.1984 115.341 12.1576C115.48 12.0293 115.577 11.8374 115.611 11.6208L116.476 7.86326C116.534 7.65695 116.534 7.43123 116.476 7.22491C116.442 7.13522 116.394 7.05625 116.333 6.99358C116.273 6.93091 116.203 6.88606 116.128 6.86222C116.059 6.82262 115.984 6.80216 115.909 6.80216C115.833 6.80216 115.759 6.82262 115.689 6.86222C115.553 6.98792 115.457 7.17371 115.42 7.3845L114.554 11.142C114.491 11.3471 114.491 11.5753 114.554 11.7804C114.589 11.8637 114.637 11.9365 114.695 11.994C114.753 12.0515 114.82 12.0925 114.891 12.1141V12.1576ZM109.911 2.91608L111.26 3.38033L110.586 6.78968L111.271 7.02181L112.632 3.84458L114.003 4.30884L112.238 8.21145L112.564 12.8395L111.148 12.3462L110.934 8.71923L110.248 8.4871L109.596 11.8239L108.247 11.3597L109.911 2.91608ZM105.201 10.7939C104.821 10.7242 104.459 10.5403 104.144 10.2571C103.876 10.0123 103.672 9.66824 103.56 9.27052C103.464 8.79473 103.464 8.29553 103.56 7.81974L104.043 4.00417C104.094 3.51729 104.237 3.054 104.459 2.65494C104.657 2.30468 104.937 2.0454 105.257 1.91504C105.627 1.80571 106.011 1.80571 106.381 1.91504C106.758 1.99073 107.116 2.17956 107.427 2.46634C107.704 2.72417 107.909 3.09054 108.011 3.5109C108.102 3.98744 108.102 4.48515 108.011 4.96169L107.91 5.48397L106.55 5.17931V4.75858C106.6 4.48582 106.577 4.19887 106.482 3.94614C106.436 3.84228 106.37 3.75406 106.292 3.68855C106.214 3.62304 106.125 3.58207 106.033 3.56893C105.945 3.54437 105.853 3.54598 105.766 3.57362C105.678 3.60127 105.596 3.65423 105.527 3.72852C105.37 3.91248 105.274 4.16674 105.257 4.43941L104.785 8.09539C104.747 8.33857 104.779 8.59145 104.875 8.80627C104.928 8.89864 104.995 8.97591 105.073 9.0333C105.15 9.0907 105.236 9.127 105.324 9.13995C105.411 9.16553 105.501 9.16712 105.588 9.14461C105.675 9.12211 105.758 9.07602 105.83 9.00938C105.979 8.83733 106.071 8.59876 106.089 8.34202V7.95031L107.46 8.26948L107.55 8.71923C107.501 9.18659 107.362 9.63058 107.146 10.0104C106.936 10.3414 106.654 10.5839 106.336 10.7068C105.969 10.8542 105.579 10.8841 105.201 10.7939V10.7939ZM100.704 4.46842L101.896 1.08809L103.323 1.26218L101.772 5.44045L102.896 9.9669L101.424 9.79281L100.535 6.22387H100.153L99.9059 9.64773L98.5119 9.47364L98.7592 6.04978H98.377L97.028 9.24151L95.5441 9.06741L97.3203 4.88915L96.3985 0.40622L97.7924 0.580315L98.4894 4.20728H98.8829L99.1302 0.696377L100.524 0.870472L100.311 4.36687L100.704 4.46842ZM94.1613 3.8736V2.87256C94.1907 2.57863 94.1389 2.28075 94.0152 2.0311C93.9619 1.92872 93.8899 1.84477 93.8057 1.7866C93.7214 1.72843 93.6273 1.69781 93.5318 1.69742C93.4381 1.68755 93.3441 1.70752 93.2578 1.75559C93.1716 1.80365 93.0958 1.87834 93.0371 1.97307C92.8964 2.23227 92.8218 2.54158 92.8235 2.85805V3.77204L94.1613 3.8736ZM93.2957 9.05291C92.8992 9.03986 92.5119 8.89494 92.1715 8.63218C91.8746 8.39641 91.6426 8.04625 91.5082 7.63114C91.3647 7.17128 91.3069 6.67432 91.3396 6.18035L91.5195 2.91608C91.528 2.36634 91.6317 1.82602 91.823 1.33472C91.9841 0.925775 92.2393 0.591266 92.5537 0.377204C92.9028 0.158647 93.2917 0.0683001 93.6779 0.116063C94.0738 0.121369 94.4616 0.261499 94.8021 0.522283C95.0938 0.761804 95.3215 1.11127 95.4541 1.52333C95.568 2.00208 95.5987 2.50732 95.5441 3.00313L95.4541 5.38242L92.7673 5.17931V6.2674C92.7366 6.54305 92.7889 6.82344 92.9135 7.05082C93.0383 7.22729 93.2086 7.33926 93.3926 7.36595C93.5766 7.39263 93.7619 7.33221 93.914 7.1959C93.9756 7.11879 94.0243 7.02625 94.0572 6.92397C94.09 6.82168 94.1064 6.7118 94.1051 6.60108V6.42698L95.4541 6.52854V6.68812C95.456 7.02688 95.4041 7.36256 95.3017 7.67445C95.1992 7.98634 95.0483 8.26784 94.8583 8.50161C94.64 8.72446 94.3891 8.88815 94.1206 8.98288C93.8521 9.07761 93.5715 9.10143 93.2957 9.05291ZM88.5179 0.0145078H89.9231L90.103 8.71923H88.7427L88.6753 5.29537H87.5511L87.6186 8.70472H86.2583L86.0672 0H87.4387L87.5061 3.55443H88.6303L88.5179 0.0145078ZM83.0544 9.35757C82.6714 9.4105 82.2843 9.33556 81.9302 9.13995C81.6431 8.97323 81.4006 8.70066 81.2332 8.35653C81.0515 7.96035 80.9509 7.51101 80.9409 7.05082L80.8172 2.91608C80.7876 2.46477 80.8456 2.01104 80.9859 1.59586C81.1274 1.23446 81.3458 0.932532 81.6154 0.725393C81.9342 0.50425 82.288 0.380184 82.6496 0.362697C83.0315 0.315379 83.4167 0.384966 83.7738 0.565807C84.0605 0.726395 84.3033 0.994235 84.4708 1.33472C84.6472 1.72774 84.7439 2.17186 84.7519 2.62592L84.9317 6.77517C84.9613 7.2312 84.9034 7.68962 84.7631 8.1099C84.6359 8.47914 84.4188 8.78476 84.1448 8.98037C83.8121 9.22374 83.4368 9.35357 83.0544 9.35757ZM82.9644 7.64564C83.0416 7.64429 83.1177 7.62158 83.1875 7.57903C83.2573 7.53648 83.3193 7.47509 83.3691 7.39901C83.4627 7.2094 83.5024 6.98382 83.4815 6.76066L83.3129 2.91608C83.3372 2.67943 83.2888 2.4399 83.178 2.24872C83.0673 2.11299 82.9204 2.03732 82.7677 2.03732C82.615 2.03732 82.4681 2.11299 82.3574 2.24872C82.2586 2.42479 82.2145 2.64214 82.2337 2.85805L82.4136 6.77517C82.4133 6.99738 82.4729 7.2128 82.5822 7.3845C82.628 7.46036 82.6858 7.52285 82.7517 7.56785C82.8175 7.61286 82.89 7.63937 82.9644 7.64564V7.64564ZM76.8488 3.77204L77.2086 7.26844C77.2259 7.45704 77.2717 7.63942 77.3435 7.80523C77.402 7.95088 77.4918 8.07174 77.6021 8.15342C77.7157 8.19737 77.8369 8.19737 77.9505 8.15342C78.0425 8.14415 78.1311 8.10461 78.2079 8.03857C78.2846 7.97254 78.347 7.88221 78.389 7.77621C78.4841 7.50346 78.5116 7.19943 78.4677 6.90574L78.1192 3.62697C78.0954 3.36279 78.0091 3.11452 77.8719 2.91608C77.8099 2.83016 77.7318 2.76631 77.6452 2.73073C77.5585 2.69515 77.4662 2.68903 77.3772 2.71297C77.256 2.73039 77.142 2.79634 77.0512 2.90157C76.9596 3.00316 76.8964 3.1408 76.8713 3.29329C76.8407 3.44966 76.8331 3.61205 76.8488 3.77204ZM75.1963 1.46529L76.579 1.21866L76.6915 2.24872C76.7747 1.96227 76.8965 1.69705 77.0512 1.46529C77.2329 1.17992 77.4851 0.983824 77.7655 0.909867C78.0459 0.835909 78.3375 0.888588 78.5913 1.05907C78.8362 1.25104 79.0348 1.52738 79.1647 1.85701C79.3264 2.28541 79.4291 2.74688 79.4682 3.22075L79.8617 6.94927C79.9304 7.4288 79.9304 7.92052 79.8617 8.40005C79.81 8.76809 79.6728 9.10712 79.4682 9.37208C79.2688 9.62847 79.0065 9.78745 78.7262 9.82182C78.58 9.85456 78.4303 9.84961 78.2856 9.80728C78.1409 9.76495 78.0041 9.68607 77.8831 9.57519C77.6835 9.39886 77.5181 9.16553 77.3997 8.89332L77.8831 13.4343L76.4329 13.6664L75.1963 1.46529ZM72.9479 10.9825C72.5801 11.1134 72.1916 11.1134 71.8237 10.9825C71.5198 10.8724 71.2516 10.6383 71.0593 10.3151C70.8427 9.9516 70.7033 9.5216 70.6546 9.06741L70.0925 4.9907C70.0191 4.54725 70.0385 4.08655 70.1487 3.65598C70.2483 3.26902 70.4364 2.93011 70.6883 2.68395C70.9878 2.4165 71.3295 2.23812 71.6888 2.16167C72.0591 2.05574 72.4428 2.05574 72.813 2.16167C73.1123 2.28444 73.3778 2.51619 73.5775 2.82903C73.7857 3.19174 73.9209 3.61546 73.9709 4.0622L74.533 8.15342C74.6192 8.59629 74.6192 9.05978 74.533 9.50265C74.4334 9.88961 74.2453 10.2285 73.9934 10.4747C73.6827 10.7605 73.3248 10.9492 72.9479 11.026V10.9825ZM72.7118 9.29954C72.7814 9.28656 72.8482 9.25543 72.9081 9.20804C72.968 9.16064 73.0198 9.09799 73.0603 9.02389C73.1152 8.81699 73.1152 8.59245 73.0603 8.38554L72.532 4.52645C72.5139 4.30842 72.4338 4.10679 72.3071 3.96065C72.245 3.90406 72.1746 3.86434 72.1002 3.84389C72.0258 3.82344 71.949 3.82269 71.8744 3.84168C71.7997 3.86067 71.7289 3.89901 71.6661 3.95437C71.6033 4.00973 71.5498 4.08096 71.509 4.16376C71.4277 4.34858 71.4036 4.56627 71.4415 4.77309L72.0598 8.71923C72.0801 8.94054 72.1597 9.14576 72.2846 9.29954C72.349 9.3467 72.4207 9.37504 72.4945 9.38256C72.5683 9.39008 72.6425 9.3766 72.7118 9.34306V9.29954ZM64.3591 0.899487L64.91 0.710885L65.7869 0.40622C66.1567 0.295885 66.5412 0.295885 66.911 0.40622C67.2292 0.489039 67.5198 0.696802 67.7429 1.00104C67.9787 1.35586 68.1445 1.77891 68.2263 2.23421L68.4624 3.49639C68.5232 3.83036 68.5232 4.17798 68.4624 4.51195C68.4278 4.81509 68.3307 5.10067 68.1814 5.33889C68.024 5.59776 67.8192 5.80214 67.5856 5.93372C67.855 5.8877 68.129 5.92755 68.3837 6.04978C68.619 6.16373 68.8253 6.35957 68.9795 6.61559C69.1582 6.89957 69.2849 7.23178 69.3505 7.58761L69.6878 9.09643C69.783 9.57222 69.783 10.0714 69.6878 10.5472C69.6196 10.9584 69.45 11.33 69.2044 11.6063C68.9217 11.9151 68.5866 12.1338 68.2263 12.2446L67.1921 12.5928L66.6525 12.7814L65.8655 13.0716L63.5497 1.16063L64.3591 0.899487ZM65.8543 5.57102L66.6637 5.30988C66.7584 5.28264 66.8471 5.228 66.923 5.15009C66.999 5.07219 67.0602 4.97304 67.1022 4.86013C67.1831 4.57939 67.1831 4.27041 67.1022 3.98966L66.8661 2.75649C66.852 2.63702 66.8174 2.52311 66.7648 2.42307C66.7122 2.32303 66.6431 2.23939 66.5623 2.17823C66.4815 2.11708 66.3912 2.07995 66.2979 2.06955C66.2046 2.05916 66.1106 2.07576 66.0229 2.11815L65.191 2.3938L65.8543 5.57102ZM66.8886 10.8664L67.7542 10.5762C67.9485 10.522 68.1206 10.3774 68.2376 10.17C68.2757 10.058 68.2953 9.93693 68.2953 9.81457C68.2953 9.69221 68.2757 9.57118 68.2376 9.45913L67.934 7.90678C67.9209 7.68107 67.867 7.46246 67.7767 7.26844C67.6939 7.1179 67.5756 7.00594 67.4394 6.94927C67.2952 6.90594 67.1452 6.90594 67.001 6.94927L66.1803 7.23942L66.8886 10.8664ZM147.425 93.6918C146.591 92.6799 145.49 92.1165 144.345 92.1165C143.2 92.1165 142.099 92.6799 141.265 93.6918C140.868 94.1671 140.552 94.7429 140.335 95.3832C140.119 96.0235 140.007 96.7145 140.007 97.413C140.007 98.1116 140.119 98.8026 140.335 99.4429C140.552 100.083 140.868 100.659 141.265 101.134C142.099 102.146 143.2 102.71 144.345 102.71C145.49 102.71 146.591 102.146 147.425 101.134C147.819 100.657 148.133 100.08 148.347 99.4402C148.562 98.8002 148.672 98.1103 148.672 97.413C148.672 96.7158 148.562 96.0258 148.347 95.3858C148.133 94.7458 147.819 94.1693 147.425 93.6918ZM149.674 98.0441C149.651 98.3965 149.606 98.7458 149.539 99.0887C149.533 99.1901 149.533 99.292 149.539 99.3934C149.54 100.064 149.648 100.727 149.857 101.341C150.066 101.955 150.371 102.507 150.753 102.962C151.555 103.914 152.609 104.433 153.698 104.413C154.791 104.43 155.847 103.911 156.655 102.962C157.035 102.505 157.338 101.951 157.546 101.336C157.753 100.721 157.86 100.057 157.86 99.3861C157.86 98.7152 157.753 98.0515 157.546 97.4362C157.338 96.821 157.035 96.2674 156.655 95.8099C155.847 94.861 154.791 94.3426 153.698 94.3591C152.609 94.3389 151.555 94.8581 150.753 95.8099C150.243 96.3907 149.862 97.1371 149.651 97.9716L149.674 98.0441ZM142.839 101.874C142.458 100.999 142.112 100.098 141.804 99.1757C141.302 98.7512 140.851 98.2329 140.467 97.6379C141.069 97.6573 141.67 97.73 142.265 97.8555C142.733 97.2033 143.353 96.7653 144.03 96.6079C143.918 97.2897 143.03 98.6099 142.996 98.8566C143.01 99.8435 142.95 100.83 142.816 101.802L142.839 101.874ZM153.361 104.007C153.568 103.02 153.823 102.05 154.125 101.105C154.004 100.347 153.973 99.5689 154.036 98.7985C154.438 99.373 154.814 99.9786 155.16 100.612C155.848 100.578 156.525 100.844 157.082 101.366C156.442 101.63 155.788 101.834 155.126 101.976C154.71 102.309 154.002 103.572 153.339 103.934L153.361 104.007ZM147.111 88.3674C147.56 87.5511 148.048 86.771 148.572 86.0316C148.66 85.2662 148.839 84.5227 149.1 83.8264C149.33 84.5403 149.525 85.272 149.685 86.0171C150.342 86.2991 150.91 86.849 151.304 87.584C150.628 87.5563 149.955 87.4593 149.291 87.2938C148.597 87.7524 147.865 88.1123 147.111 88.3674V88.3674ZM153.62 84.6244C152.801 83.6361 151.722 83.0862 150.601 83.0862C149.48 83.0862 148.401 83.6361 147.583 84.6244C147.199 85.0897 146.893 85.6516 146.684 86.2754C146.475 86.8992 146.367 87.5717 146.367 88.2513C146.367 88.931 146.475 89.6035 146.684 90.2273C146.893 90.8511 147.199 91.4129 147.583 91.8783C148.41 92.8447 149.485 93.38 150.601 93.38C151.717 93.38 152.793 92.8447 153.62 91.8783C154.003 91.4129 154.309 90.8511 154.518 90.2273C154.728 89.6035 154.836 88.931 154.836 88.2513C154.836 87.5717 154.728 86.8992 154.518 86.2754C154.309 85.6516 154.003 85.0897 153.62 84.6244V84.6244ZM154.17 92.9664C155.464 92.4895 156.703 91.7969 157.858 90.9063C158.645 88.2658 159.848 83.7394 162.962 82.1C162.152 85.0016 160.848 86.6845 159.106 90.4565L162.478 89.6006C163.625 86.0859 165.739 83.2435 168.414 81.6212C167.102 84.4271 165.556 87.0395 163.805 89.412C166.716 89.412 169.673 89.412 172 90.6596C169.122 91.6317 165.03 90.9788 162.31 91.7042C164.839 92.4876 167.93 93.3726 169.965 95.2296C167.087 94.9249 162.546 94.7218 160.972 91.9218C159.961 92.085 158.961 92.3469 157.981 92.7052C160.317 94.1152 162.571 95.7394 164.727 97.5654C163.208 97.6785 161.69 97.3456 160.286 96.5917C158.882 95.8378 157.629 94.6826 156.621 93.213C156.301 93.296 155.985 93.4075 155.677 93.5467C156.244 93.8523 156.762 94.29 157.206 94.8379C157.681 95.4094 158.06 96.1011 158.319 96.8698C158.578 97.6386 158.712 98.468 158.712 99.3063C158.718 99.4416 158.718 99.5772 158.712 99.7125C159.793 100.612 160.802 101.647 161.725 102.803C160.601 102.426 159.544 101.918 158.431 101.352C158.173 102.246 157.757 103.051 157.217 103.702C156.241 104.885 154.953 105.544 153.614 105.544C152.275 105.544 150.987 104.885 150.011 103.702C149.4 102.972 148.95 102.046 148.707 101.018C148.51 101.369 148.288 101.694 148.044 101.99C147.023 103.22 145.679 103.904 144.283 103.904C142.887 103.904 141.543 103.22 140.523 101.99C139.732 101.035 139.206 99.77 139.027 98.3908C138.849 97.0116 139.026 95.5949 139.533 94.3591C138.363 93.9046 137.232 93.2919 136.161 92.5311C137.573 92.4585 138.986 92.585 140.377 92.9084L140.545 92.6907C141.432 91.6142 142.571 90.9504 143.783 90.8047H143.884L142.153 89.0493C139.331 89.6586 136.296 90.3114 133.463 87.671C135.812 86.9891 138.735 87.7871 141.254 88.0917C140.364 86.7679 139.414 85.5132 138.409 84.3342C135.619 84.3392 132.869 83.4732 130.394 81.8098C132.89 81.4682 135.414 81.8754 137.769 82.9995C131.383 69.4782 136.251 77.4865 140.23 83.7104C136.397 66.4605 141.456 75.3683 140.849 84.6969L143.412 87.9031C142.288 66.9828 145.447 83.5508 144.131 88.8171L145.649 90.3695C145.455 89.6964 145.356 88.984 145.357 88.2658C145.359 87.4098 145.498 86.5636 145.765 85.7798C146.032 84.9961 146.421 84.2917 146.908 83.7104L147.088 83.4927C146.537 78.1539 146.492 75.2668 148.37 82.4337C149.077 82.0251 149.843 81.8173 150.618 81.8243C151.985 81.821 153.302 82.4962 154.294 83.7104C154.605 84.075 154.874 84.4952 155.092 84.958C156.216 82.7238 157.138 80.272 158.274 79.3145C157.618 82.0512 156.783 84.7109 155.778 87.2648C155.823 87.5953 155.846 87.9302 155.845 88.2658C155.842 89.1581 155.69 90.0389 155.401 90.8496C155.112 91.6602 154.693 92.3819 154.17 92.9664V92.9664ZM56.1975 121.881L36.3669 124.071L22.8766 125.522L25.5522 165.564L153.361 151.244L150.685 111.203L56.1975 121.881ZM22.3146 124.303L35.6137 122.853C30.7764 114.684 27.7844 104.948 26.9687 94.7218C26.9687 94.1996 26.935 93.716 26.8675 93.271C25.8445 74.7735 31.9938 57.1465 42.8647 43.5381C68.4737 11.5338 103.278 5.30988 133.328 31.5401C145.109 41.8262 152.81 57.3931 154.193 75.0637C154.238 75.586 154.272 76.0696 154.294 76.5145C154.294 76.9642 152.945 76.8046 152.934 76.645C152.934 76.1228 152.878 75.644 152.844 75.1942C151.506 58.046 143.85 43.364 132.372 33.3681C81.2557 -10.7648 -3.10331 68.2015 55.3094 119.719C55.6426 120.013 55.9921 120.274 56.3549 120.502L151.135 109.883H151.652V110.535L154.406 151.912V152.565H153.901L25.17 167H24.6529V166.333L21.8536 125.029V124.361L22.3146 124.303ZM158.499 74.0917C158.502 74.1918 158.522 74.2896 158.559 74.3777C158.596 74.4657 158.649 74.5416 158.712 74.5994C158.856 74.7166 159.029 74.7582 159.196 74.7155L162.152 74.2367C162.319 74.2268 162.476 74.1331 162.591 73.9756C162.639 73.8969 162.675 73.8058 162.694 73.7083C162.713 73.6107 162.716 73.509 162.703 73.4098C162.697 73.3126 162.674 73.2183 162.638 73.1332C162.601 73.0482 162.55 72.9743 162.489 72.9165C162.351 72.7966 162.182 72.7499 162.017 72.7859L159.061 73.2647C158.891 73.2754 158.73 73.3687 158.611 73.5258C158.561 73.6035 158.525 73.6946 158.505 73.7924C158.486 73.8903 158.484 73.9925 158.499 74.0917V74.0917ZM59.2441 12.0996C60.3683 10.5182 61.3913 9.9669 61.3126 7.5731C60.4807 5.41143 57.1531 8.50161 55.9502 10.4747C52.6451 7.18139 52.5777 5.60003 47.1703 5.44045C44.1215 5.32187 41.0824 5.94191 38.2106 7.26844C31.8926 10.3441 26.7663 14.8125 23.5961 23.7204C25.0801 22.2696 27.0699 18.0333 31.2294 14.4063C33.8605 12.0254 36.7512 10.1625 39.8069 8.87881C50.5766 4.48293 56.1975 14.8125 52.7013 19.8613C51.0263 22.2986 46.552 23.1981 43.6066 23.5463C39.1099 24.0831 38.4691 25.5048 35.5237 30.9598C32.1512 37.2127 23.7872 41.1153 21.2691 33.3391C20.8531 32.0334 21.1454 31.7432 20.7632 30.4375C18.3012 37.1111 21.5726 41.2604 26.8225 43.0303C32.0725 44.8003 34.6918 40.2013 37.7946 33.9919C40.8974 27.7826 44.2362 26.3898 48.8229 25.7805C57.6477 24.5908 56.9283 22.8789 57.8726 16.2923C59.1883 17.1627 60.6875 17.4579 62.1445 17.1338C62.9427 14.3048 60.9191 13.6664 59.2441 12.0996Z" fill="#B11709"/>
</svg>
