<svg width="248" height="69" viewBox="0 0 248 69" fill="none" xmlns="http://www.w3.org/2000/svg">
<g clip-path="url(#clip0_114_8947)">
<path fill-rule="evenodd" clip-rule="evenodd" d="M38.0639 52.2516H27.262C10.4151 52.2516 22.6542 16.6781 36.8376 16.6781H53.8986C56.6331 16.6781 61.4569 17.1732 63.8333 10.4509L67.506 0H44.1069C31.4347 0 21.571 4.43765 14.4438 11.8839C2.13162 24.6225 -2.0431 44.5211 0.908411 54.0401C3.7159 62.8451 11.3482 68.6415 23.2993 68.7851L32.5869 68.8564H44.0349L46.8424 60.4822C48.9297 54.5402 44.2499 52.2516 38.0589 52.2516H38.0639ZM169.529 37.5066L173.057 26.1258H135.398C129.135 26.1258 126.326 27.843 125.246 31.4221L121.718 42.8029H159.373C165.637 42.8029 168.444 41.0857 169.524 37.5066H169.529ZM116.108 57.5479L112.577 68.9277H150.231C156.422 68.9277 159.302 67.2115 160.382 63.6324L163.911 52.2516H126.254C120.063 52.2516 117.253 53.9688 116.103 57.5479H116.108ZM178.313 11.4521L181.841 0.0722919H144.182C137.919 0.0722919 135.111 1.78853 134.03 5.36757L130.503 16.7484H168.156C174.348 16.7484 177.158 15.0312 178.308 11.4521H178.313ZM121.435 13.7428C119.852 3.14627 114.164 0.0762571 100.341 0.0762571H75.1373L60.4497 42.8029H69.7373C75.2803 42.8029 78.0888 42.8742 81.0393 35.0011L87.1584 16.6801H96.517C104.509 16.6801 102.709 26.6289 98.6774 36.2885C95.0767 44.8053 88.8136 52.3219 81.2543 52.3219H65.6336C59.3695 52.3219 56.49 54.0401 55.3378 57.6192L51.4502 69H62.8972L74.1291 68.9277C84.0638 68.8564 92.2002 68.1414 101.704 59.6186C111.783 50.5294 123.447 27.1954 121.43 13.7388L121.435 13.7428ZM248 0H226.185L205.666 21.6881C203.29 24.1937 200.842 26.6992 198.465 29.6335H198.249L208.472 0.000991294H190.69L166.716 68.9277H184.499L192.131 47.2396L200.05 40.5836L206.315 60.192C208.257 66.2766 210.275 68.9237 214.594 68.9237H228.197L214.234 30.4199L248 0Z" fill="#00B33C"/>
</g>
<defs>
<clipPath id="clip0_114_8947">
<rect width="248" height="69" fill="white"/>
</clipPath>
</defs>
</svg>
