<svg width="310" height="310" viewBox="0 0 310 310" fill="none" xmlns="http://www.w3.org/2000/svg">
<circle cx="155" cy="155" r="155" fill="#E8E4D8"/>
<circle cx="155" cy="155" r="133" stroke="#6B4949" stroke-width="4"/>
<circle cx="155" cy="155" r="133" stroke="#6B4949" stroke-width="4"/>
<circle cx="155" cy="155" r="127" stroke="#6B4949" stroke-width="2"/>
<path d="M82.1041 160.931C82.2543 161.462 82.4043 162.08 82.554 162.786C82.6972 163.469 82.8238 164.181 82.9339 164.924C83.0671 165.659 83.1739 166.39 83.2543 167.115C83.3578 167.834 83.4187 168.49 83.4369 169.084L82.0858 169.466L78.6185 164.348L62.0598 169.03L61.7859 175.206L60.4348 175.588C60.133 175.05 59.8231 174.439 59.5052 173.756C59.1873 173.073 58.8776 172.375 58.5763 171.662C58.3046 170.965 58.0509 170.289 57.8153 169.632C57.6029 168.969 57.4313 168.406 57.3007 167.944L60.3145 167.092C60.6869 165.939 60.9362 164.572 61.0625 162.99C61.2118 161.401 61.2329 159.712 61.1257 157.921C61.035 156.101 60.8176 154.23 60.4734 152.307C60.1457 150.355 59.7141 148.431 59.1786 146.538C58.5455 146.592 57.873 146.595 57.161 146.547C56.4491 146.499 55.7703 146.392 55.1246 146.225L54.7523 144.909L74.6713 139.276L75.0435 140.592C74.3593 141.26 73.5071 141.862 72.487 142.4L78.051 162.077L82.1041 160.931ZM72.8548 163.546L67.2711 143.8L61.6938 145.378C62.3359 148.089 62.8188 150.547 63.1425 152.75C63.4662 154.953 63.6603 156.918 63.7248 158.646C63.8124 160.367 63.8001 161.867 63.6878 163.145C63.569 164.401 63.403 165.446 63.1898 166.279L72.8548 163.546ZM80.6232 150.687C80.1139 148.886 79.8977 147.151 79.9748 145.483C80.0453 143.792 80.4203 142.252 81.0999 140.863C81.773 139.45 82.7488 138.227 84.0275 137.192C85.3061 136.157 86.8923 135.371 88.786 134.836C90.6797 134.3 92.4423 134.139 94.0735 134.351C95.7048 134.563 97.1654 135.098 98.4554 135.955C99.7619 136.783 100.888 137.898 101.834 139.302C102.773 140.683 103.497 142.274 104.006 144.075C104.516 145.876 104.735 147.622 104.665 149.313C104.588 150.981 104.212 152.522 103.539 153.934C102.883 155.317 101.915 156.526 100.637 157.561C99.3581 158.596 97.7719 159.381 95.8782 159.916C93.9845 160.452 92.222 160.614 90.5907 160.401C88.9594 160.189 87.4905 159.669 86.184 158.842C84.8709 157.991 83.7448 156.875 82.8058 155.495C81.8601 154.091 81.1326 152.488 80.6232 150.687ZM86.5123 149.022C86.9303 150.5 87.4343 151.841 88.0244 153.046C88.608 154.228 89.2729 155.212 90.0191 155.999C90.7819 156.756 91.6194 157.292 92.5318 157.608C93.4607 157.894 94.4678 157.883 95.5532 157.576C96.5463 157.296 97.3174 156.803 97.8666 156.099C98.4092 155.372 98.7726 154.496 98.9567 153.471C99.1342 152.424 99.1391 151.25 98.9712 149.951C98.8199 148.622 98.5352 147.218 98.1173 145.74C97.6993 144.262 97.1985 142.932 96.6149 141.75C96.0479 140.539 95.3945 139.552 94.6549 138.788C93.9318 137.995 93.1058 137.455 92.1769 137.169C91.2646 136.854 90.2541 136.852 89.1456 137.166C88.0833 137.466 87.2692 137.983 86.7035 138.717C86.1312 139.427 85.7563 140.307 85.5788 141.355C85.4178 142.373 85.4245 143.543 85.5989 144.866C85.7899 146.158 86.0944 147.544 86.5123 149.022ZM125.467 143.244L126.887 142.842C127.084 143.186 127.292 143.613 127.511 144.125C127.748 144.607 127.974 145.141 128.19 145.729C128.422 146.287 128.632 146.851 128.818 147.422C129.004 147.993 129.163 148.509 129.293 148.971C128.629 149.708 127.714 150.353 126.549 150.907C125.406 151.454 124.2 151.908 122.93 152.267C121.013 152.809 119.204 153.071 117.503 153.053C115.819 153.006 114.279 152.631 112.883 151.928C111.503 151.196 110.292 150.129 109.247 148.728C108.196 147.305 107.357 145.484 106.73 143.267C106.11 141.073 105.901 139.1 106.103 137.346C106.322 135.564 106.842 134.007 107.664 132.678C108.485 131.348 109.558 130.247 110.882 129.373C112.223 128.47 113.702 127.79 115.318 127.333C116.842 126.902 118.249 126.629 119.539 126.514C120.844 126.369 121.942 126.37 122.832 126.518C122.936 126.887 123.047 127.367 123.164 127.958C123.304 128.542 123.42 129.17 123.51 129.843C123.617 130.486 123.701 131.136 123.762 131.792C123.839 132.418 123.891 132.953 123.916 133.394L122.461 133.806L119.077 129.114C118.836 129.057 118.475 129.059 117.994 129.121C117.512 129.182 117.029 129.281 116.544 129.418C115.597 129.686 114.763 130.134 114.043 130.761C113.316 131.366 112.747 132.176 112.335 133.19C111.924 134.204 111.719 135.422 111.722 136.842C111.718 138.24 111.974 139.851 112.49 141.676C113.424 144.978 114.801 147.333 116.62 148.739C118.439 150.145 120.48 150.528 122.744 149.888C123.39 149.705 123.92 149.505 124.333 149.289C124.762 149.043 125.031 148.804 125.141 148.574L125.467 143.244ZM147.962 144.739L136.046 148.109L135.673 146.793C136.083 146.477 136.55 146.146 137.075 145.798C137.617 145.42 138.175 145.1 138.75 144.838L133.185 125.161L129.167 126.298L128.625 132.848L127.205 133.25C126.982 132.814 126.723 132.251 126.428 131.562C126.133 130.872 125.843 130.156 125.559 129.413C125.274 128.671 125.004 127.936 124.749 127.21C124.487 126.461 124.281 125.821 124.131 125.29L146.198 119.05C146.354 119.604 146.514 120.258 146.677 121.01C146.84 121.762 146.994 122.529 147.14 123.31C147.287 124.092 147.415 124.854 147.525 125.596C147.628 126.315 147.702 126.93 147.747 127.441L146.292 127.852L142.4 122.556L138.382 123.692L143.946 143.368C144.579 143.314 145.207 143.286 145.83 143.285C146.476 143.276 147.063 143.323 147.59 143.423L147.962 144.739ZM159.018 141.613L150.462 144.032L150.089 142.716C150.394 142.381 150.731 142.073 151.101 141.794C151.487 141.485 151.875 141.226 152.265 141.016L154.884 116.145L157.448 115.42L172.461 135.305C172.949 135.267 173.45 135.275 173.964 135.329C174.472 135.36 174.931 135.442 175.343 135.575L175.715 136.891L164.873 139.957L164.5 138.641C164.88 138.309 165.298 137.979 165.754 137.65C166.21 137.322 166.656 137.046 167.091 136.823L163.525 131.883L155.834 134.058L155.348 140.144C156.45 139.982 157.549 140.033 158.646 140.297L159.018 141.613ZM156.029 131.571L162.161 129.837L158.038 123.858L156.537 121.065L156.468 121.084L156.568 124.348L156.029 131.571ZM176.391 136.7L176.019 135.384C176.386 135.006 176.786 134.656 177.219 134.334C177.675 134.005 178.127 133.753 178.576 133.576L173.031 113.969C172.543 114.007 172.022 114.017 171.469 113.999C170.908 113.958 170.388 113.881 169.907 113.767L169.534 112.451L175.112 110.874C175.989 110.626 176.811 110.356 177.576 110.065C178.342 109.773 179.233 109.484 180.249 109.197C181.358 108.883 182.454 108.66 183.539 108.528C184.624 108.396 185.63 108.423 186.556 108.61C187.481 108.798 188.295 109.204 188.995 109.829C189.689 110.431 190.203 111.32 190.536 112.498C190.745 113.237 190.802 113.969 190.708 114.694C190.63 115.39 190.417 116.048 190.069 116.67C189.745 117.286 189.305 117.847 188.749 118.353C188.217 118.853 187.601 119.276 186.901 119.624L186.941 119.762C187.706 119.646 188.494 119.61 189.305 119.655C190.139 119.694 190.924 119.871 191.662 120.186C192.4 120.501 193.058 120.976 193.636 121.61C194.231 122.215 194.669 123.014 194.95 124.007C195.303 125.254 195.329 126.407 195.03 127.464C194.73 128.521 194.188 129.473 193.405 130.318C192.644 131.156 191.703 131.884 190.58 132.501C189.451 133.094 188.24 133.574 186.947 133.94C186.462 134.077 185.927 134.216 185.343 134.356C184.759 134.496 184.176 134.636 183.592 134.776C183.008 134.916 182.435 135.053 181.875 135.187C181.337 135.314 180.883 135.43 180.514 135.534L176.391 136.7ZM186.275 131.698C187.73 131.286 188.753 130.536 189.342 129.446C189.926 128.334 190.015 127.061 189.61 125.63C189.362 124.752 189.021 124.075 188.587 123.599C188.146 123.1 187.638 122.758 187.062 122.572C186.479 122.362 185.836 122.295 185.134 122.369C184.425 122.419 183.678 122.556 182.892 122.778L181.056 123.297L183.574 132.2C183.917 132.178 184.268 132.141 184.628 132.089C185.01 132.031 185.559 131.9 186.275 131.698ZM181.528 120.732C181.921 120.621 182.31 120.498 182.696 120.364C183.076 120.207 183.432 120.056 183.766 119.912C184.562 119.288 185.129 118.516 185.468 117.598C185.8 116.656 185.826 115.688 185.545 114.695C185.134 113.24 184.452 112.285 183.501 111.831C182.543 111.354 181.463 111.285 180.262 111.625C179.754 111.768 179.319 111.904 178.956 112.032C178.593 112.159 178.268 112.288 177.98 112.42L180.42 121.045L181.528 120.732ZM205.16 102.377L214.444 99.7515L214.816 101.068C214.496 101.433 214.107 101.78 213.652 102.108C213.189 102.413 212.76 102.66 212.364 102.846L208.143 113.056C208.883 113.645 209.745 114.312 210.728 115.056C211.706 115.777 212.742 116.532 213.838 117.319C214.927 118.084 216.046 118.865 217.194 119.663C218.336 120.437 219.441 121.172 220.511 121.867L222.458 122.402L222.791 123.579L216.763 125.284L215.103 124.706C214.353 124.17 213.549 123.574 212.69 122.919C211.848 122.234 210.999 121.527 210.144 120.796C209.283 120.042 208.432 119.284 207.594 118.524C206.755 117.763 205.958 117.016 205.202 116.282L203.712 116.703L206.269 125.745C206.803 125.694 207.304 125.702 207.772 125.769C208.24 125.836 208.653 125.931 209.012 126.054L209.385 127.37L198.888 130.339L198.516 129.022C198.913 128.661 199.33 128.33 199.77 128.032C200.202 127.71 200.637 127.437 201.072 127.214L195.528 107.607C194.977 107.688 194.422 107.708 193.861 107.667C193.324 107.619 192.838 107.532 192.403 107.406L192.031 106.089L202.527 103.121L202.9 104.438C202.652 104.707 202.334 104.997 201.948 105.305C201.584 105.608 201.177 105.885 200.724 106.138L203.212 114.937L205.119 113.874L208.345 103.983C207.857 104.021 207.356 104.013 206.842 103.959C206.345 103.875 205.908 103.786 205.533 103.693L205.16 102.377ZM230.94 121.275L222.384 123.695L222.011 122.378C222.316 122.043 222.653 121.735 223.023 121.456C223.409 121.147 223.797 120.888 224.187 120.678L226.806 95.8069L229.37 95.082L244.383 114.967C244.871 114.929 245.372 114.937 245.886 114.991C246.394 115.022 246.853 115.104 247.265 115.237L247.637 116.553L236.795 119.62L236.422 118.303C236.802 117.971 237.22 117.641 237.676 117.313C238.132 116.984 238.578 116.708 239.013 116.485L235.447 111.546L227.756 113.72L227.27 119.806C228.371 119.644 229.471 119.695 230.568 119.959L230.94 121.275ZM227.951 111.233L234.082 109.5L229.96 103.52L228.459 100.727L228.39 100.746L228.49 104.01L227.951 111.233ZM66.9451 217.531L56.5526 220.47L56.1804 219.154C56.4745 218.871 56.8264 218.572 57.2361 218.257C57.6392 217.918 58.1395 217.614 58.7369 217.346L53.1924 197.739C52.7044 197.777 52.1835 197.787 51.6297 197.769C51.099 197.744 50.5784 197.667 50.0678 197.537L49.6955 196.221L74.5682 189.187L74.9404 190.504C74.58 190.905 74.1802 191.255 73.7409 191.554C73.2951 191.83 72.8428 192.082 72.3839 192.312L77.9284 211.919C78.809 211.77 79.8505 211.837 81.053 212.12L81.4253 213.437L71.0328 216.375L70.6606 215.059C70.8393 214.809 71.0905 214.551 71.4143 214.285C71.7316 213.995 72.1708 213.697 72.7321 213.388L67.1681 193.712L58.3691 196.2L63.9331 215.876C64.4277 215.861 64.8826 215.882 65.2978 215.939C65.713 215.997 66.138 216.088 66.5729 216.215L66.9451 217.531ZM80.0341 200.736C79.5247 198.935 79.3086 197.2 79.3856 195.532C79.4561 193.841 79.8312 192.301 80.5108 190.911C81.1839 189.499 82.1597 188.275 83.4383 187.24C84.7169 186.205 86.3031 185.42 88.1969 184.885C90.0906 184.349 91.8531 184.187 93.4844 184.4C95.1157 184.612 96.5763 185.146 97.8662 186.004C99.1728 186.831 100.299 187.947 101.244 189.351C102.184 190.731 102.908 192.322 103.417 194.124C103.927 195.925 104.146 197.671 104.075 199.362C103.998 201.03 103.623 202.57 102.95 203.983C102.294 205.366 101.326 206.574 100.048 207.609C98.769 208.644 97.1828 209.43 95.2891 209.965C93.3953 210.501 91.6328 210.662 90.0015 210.45C88.3703 210.238 86.9014 209.718 85.5948 208.89C84.2818 208.04 83.1557 206.924 82.2166 205.543C81.271 204.14 80.5435 202.537 80.0341 200.736ZM85.9232 199.071C86.3411 200.549 86.8452 201.89 87.4353 203.095C88.0189 204.277 88.6838 205.261 89.43 206.048C90.1928 206.805 91.0303 207.341 91.9426 207.657C92.8715 207.943 93.8787 207.932 94.9641 207.625C95.9572 207.344 96.7283 206.852 97.2774 206.148C97.8201 205.421 98.1834 204.545 98.3675 203.52C98.5451 202.472 98.5499 201.299 98.382 200C98.2307 198.671 97.9461 197.267 97.5281 195.789C97.1102 194.311 96.6094 192.981 96.0258 191.799C95.4588 190.588 94.8054 189.6 94.0657 188.837C93.3426 188.044 92.5166 187.504 91.5877 187.218C90.6754 186.902 89.665 186.901 88.5565 187.215C87.4941 187.515 86.6801 188.032 86.1144 188.766C85.5421 189.476 85.1672 190.355 84.9896 191.403C84.8286 192.422 84.8353 193.592 85.0098 194.914C85.2007 196.207 85.5052 197.593 85.9232 199.071ZM125.639 198.428C126.288 198.344 126.939 198.309 127.592 198.324C128.261 198.309 128.871 198.349 129.421 198.443L129.794 199.759L118.258 203.021L117.886 201.705C118.253 201.327 118.656 200.988 119.095 200.689C119.557 200.384 120.007 200.12 120.442 199.897L114.898 180.29C114.341 180.348 113.797 180.364 113.266 180.34C112.729 180.292 112.231 180.208 111.773 180.088L111.401 178.772L115.766 177.538C116.69 177.277 117.727 176.933 118.879 176.508C120.054 176.076 121.138 175.719 122.131 175.439C123.355 175.092 124.58 174.883 125.807 174.811C127.05 174.709 128.203 174.819 129.267 175.141C130.354 175.458 131.312 176.022 132.141 176.836C132.963 177.626 133.576 178.737 133.981 180.169C134.366 181.531 134.422 182.787 134.149 183.937C133.898 185.08 133.414 186.103 132.696 187.004C131.979 187.905 131.076 188.684 129.99 189.341C128.897 189.974 127.727 190.467 126.48 190.819C126.365 190.852 126.18 190.904 125.926 190.976C125.672 191.048 125.395 191.126 125.094 191.211C124.811 191.267 124.53 191.333 124.253 191.412C123.993 191.46 123.801 191.49 123.679 191.499L125.639 198.428ZM121.867 177.945C121.405 178.076 121.042 178.203 120.778 178.328C120.53 178.423 120.289 178.541 120.055 178.682L123.033 189.213C123.26 189.223 123.585 189.181 124.007 189.087C124.423 188.969 124.758 188.875 125.012 188.803C125.635 188.627 126.207 188.353 126.725 187.982C127.244 187.611 127.66 187.144 127.975 186.581C128.313 186.011 128.522 185.341 128.604 184.57C128.685 183.799 128.588 182.928 128.314 181.958C127.792 180.11 126.956 178.875 125.807 178.252C124.658 177.629 123.345 177.527 121.867 177.945ZM137.375 184.521C136.866 182.72 136.65 180.985 136.727 179.317C136.797 177.626 137.173 176.086 137.852 174.697C138.525 173.284 139.501 172.061 140.78 171.026C142.058 169.991 143.644 169.205 145.538 168.67C147.432 168.134 149.194 167.973 150.826 168.185C152.457 168.397 153.918 168.932 155.208 169.789C156.514 170.617 157.64 171.732 158.586 173.136C159.525 174.517 160.249 176.108 160.759 177.909C161.268 179.71 161.487 181.456 161.417 183.147C161.34 184.815 160.965 186.355 160.292 187.768C159.635 189.151 158.668 190.36 157.389 191.395C156.11 192.43 154.524 193.215 152.63 193.75C150.737 194.286 148.974 194.448 147.343 194.235C145.712 194.023 144.243 193.503 142.936 192.676C141.623 191.825 140.497 190.709 139.558 189.329C138.612 187.925 137.885 186.322 137.375 184.521ZM143.265 182.856C143.682 184.334 144.187 185.675 144.777 186.88C145.36 188.062 146.025 189.046 146.771 189.833C147.534 190.59 148.372 191.126 149.284 191.442C150.213 191.728 151.22 191.717 152.305 191.41C153.299 191.13 154.07 190.637 154.619 189.933C155.161 189.206 155.525 188.33 155.709 187.305C155.886 186.258 155.891 185.084 155.723 183.785C155.572 182.456 155.287 181.052 154.869 179.574C154.451 178.096 153.951 176.766 153.367 175.584C152.8 174.373 152.147 173.386 151.407 172.622C150.684 171.829 149.858 171.289 148.929 171.003C148.017 170.688 147.006 170.686 145.898 171C144.835 171.3 144.021 171.817 143.456 172.551C142.883 173.261 142.509 174.141 142.331 175.188C142.17 176.207 142.177 177.377 142.351 178.699C142.542 179.992 142.847 181.378 143.265 182.856ZM182.219 177.078L183.639 176.676C183.836 177.02 184.044 177.447 184.264 177.959C184.5 178.441 184.726 178.975 184.942 179.563C185.174 180.121 185.384 180.685 185.57 181.256C185.756 181.827 185.915 182.343 186.046 182.805C185.381 183.541 184.466 184.187 183.301 184.741C182.159 185.288 180.952 185.742 179.682 186.101C177.765 186.643 175.956 186.905 174.255 186.887C172.571 186.84 171.031 186.465 169.635 185.762C168.256 185.03 167.044 183.963 165.999 182.562C164.948 181.139 164.109 179.318 163.482 177.101C162.862 174.907 162.653 172.934 162.855 171.18C163.075 169.398 163.595 167.841 164.416 166.512C165.237 165.182 166.31 164.081 167.634 163.207C168.975 162.304 170.454 161.624 172.07 161.167C173.595 160.736 175.001 160.463 176.291 160.348C177.597 160.203 178.694 160.204 179.584 160.352C179.689 160.721 179.799 161.201 179.916 161.792C180.057 162.376 180.172 163.004 180.262 163.677C180.369 164.32 180.453 164.97 180.514 165.626C180.592 166.252 180.643 166.786 180.668 167.228L179.213 167.64L175.829 162.948C175.588 162.891 175.227 162.893 174.746 162.955C174.264 163.016 173.781 163.115 173.296 163.252C172.349 163.52 171.516 163.968 170.795 164.595C170.068 165.2 169.499 166.01 169.088 167.024C168.676 168.038 168.472 169.256 168.474 170.676C168.47 172.074 168.727 173.685 169.242 175.51C170.176 178.812 171.553 181.167 173.372 182.573C175.191 183.979 177.233 184.362 179.496 183.722C180.143 183.539 180.672 183.339 181.085 183.123C181.514 182.877 181.783 182.638 181.893 182.408L182.219 177.078ZM203.971 170.927L205.392 170.525C205.589 170.869 205.797 171.296 206.016 171.808C206.252 172.29 206.478 172.824 206.694 173.412C206.927 173.97 207.136 174.534 207.323 175.105C207.509 175.675 207.667 176.192 207.798 176.654C207.133 177.39 206.218 178.036 205.053 178.59C203.911 179.137 202.705 179.59 201.435 179.95C199.518 180.492 197.709 180.754 196.008 180.736C194.323 180.688 192.783 180.313 191.387 179.611C190.008 178.878 188.796 177.812 187.752 176.411C186.701 174.988 185.862 173.167 185.235 170.95C184.614 168.756 184.405 166.783 184.608 165.029C184.827 163.246 185.347 161.69 186.168 160.361C186.99 159.031 188.062 157.929 189.387 157.056C190.728 156.153 192.206 155.473 193.823 155.016C195.347 154.585 196.754 154.312 198.043 154.197C199.349 154.052 200.447 154.053 201.337 154.201C201.441 154.57 201.552 155.05 201.669 155.641C201.809 156.224 201.924 156.853 202.015 157.526C202.122 158.169 202.206 158.818 202.267 159.475C202.344 160.101 202.395 160.635 202.421 161.077L200.966 161.489L197.581 156.797C197.341 156.74 196.98 156.742 196.498 156.803C196.017 156.865 195.534 156.964 195.049 157.101C194.102 157.369 193.268 157.817 192.548 158.444C191.821 159.049 191.252 159.858 190.84 160.873C190.428 161.887 190.224 163.104 190.227 164.525C190.223 165.923 190.479 167.534 190.995 169.359C191.929 172.661 193.305 175.015 195.125 176.421C196.944 177.828 198.985 178.211 201.248 177.571C201.895 177.388 202.425 177.188 202.837 176.972C203.267 176.725 203.536 176.487 203.645 176.257L203.971 170.927ZM221.04 173.957L210.613 176.905L210.241 175.589C210.614 175.234 211.017 174.895 211.45 174.573C211.883 174.252 212.332 173.987 212.797 173.781L207.253 154.174C206.758 154.189 206.237 154.199 205.69 154.204C205.136 154.186 204.616 154.109 204.128 153.972L203.756 152.656L214.183 149.708L214.555 151.024C214.268 151.33 213.931 151.637 213.544 151.946C213.157 152.255 212.723 152.527 212.241 152.763L215.964 165.927L216.381 168.727L217.276 165.406L222.557 150.744L222.322 149.913C221.165 149.966 220.158 149.889 219.301 149.682L218.929 148.366L229.356 145.417L229.728 146.733C229.408 147.098 229.016 147.434 228.554 147.739C228.108 148.015 227.647 148.282 227.172 148.541L232.716 168.148C233.274 168.091 233.809 168.089 234.323 168.143C234.854 168.167 235.36 168.236 235.841 168.35L236.213 169.666L225.786 172.615L225.414 171.298C225.691 171.045 226.024 170.764 226.41 170.455C226.813 170.117 227.252 169.818 227.728 169.559L224.015 156.43L223.588 153.595L222.803 156.773L217.432 171.647L217.647 172.41C218.211 172.375 218.75 172.385 219.264 172.439C219.778 172.493 220.246 172.56 220.668 172.64L221.04 173.957ZM248.036 166.323L237.609 169.271L237.237 167.955C237.61 167.6 238.014 167.261 238.446 166.94C238.879 166.618 239.328 166.354 239.793 166.147L234.249 146.54C233.754 146.555 233.234 146.565 232.686 146.57C232.132 146.552 231.612 146.475 231.124 146.339L230.752 145.022L241.179 142.074L241.551 143.39C241.264 143.696 240.927 144.003 240.54 144.312C240.154 144.621 239.719 144.893 239.237 145.129L242.96 158.293L243.377 161.093L244.272 157.773L249.553 143.11L249.318 142.279C248.161 142.332 247.154 142.255 246.297 142.048L245.925 140.732L256.352 137.783L256.724 139.099C256.404 139.465 256.012 139.8 255.55 140.105C255.104 140.381 254.643 140.648 254.168 140.907L259.712 160.514C260.27 160.457 260.805 160.455 261.32 160.509C261.85 160.533 262.356 160.602 262.837 160.716L263.209 162.032L252.782 164.981L252.41 163.664C252.688 163.411 253.02 163.13 253.406 162.821C253.809 162.483 254.249 162.184 254.724 161.925L251.011 148.796L250.584 145.961L249.799 149.139L244.428 164.014L244.643 164.776C245.207 164.741 245.746 164.751 246.26 164.805C246.774 164.859 247.242 164.926 247.664 165.006L248.036 166.323ZM267.735 152.597L264.103 146.366L261.38 136.736C261.571 136.532 261.892 136.341 262.34 136.165C262.783 135.965 263.258 135.793 263.766 135.649C264.274 135.506 264.757 135.406 265.216 135.352C265.691 135.267 266.075 135.258 266.368 135.325L269.091 144.955L269.26 152.166L267.735 152.597ZM267.027 158.296C266.792 157.465 266.869 156.72 267.256 156.062C267.667 155.397 268.311 154.94 269.188 154.692C270.066 154.444 270.854 154.496 271.552 154.847C272.25 155.198 272.716 155.79 272.951 156.621C273.186 157.453 273.099 158.201 272.688 158.866C272.271 159.507 271.623 159.952 270.746 160.2C269.868 160.448 269.084 160.408 268.392 160.08C267.718 159.722 267.263 159.128 267.027 158.296Z" fill="#6B4949"/>
</svg>
