<svg width="63" height="63" viewBox="0 0 63 63" fill="none" xmlns="http://www.w3.org/2000/svg">
<path fill-rule="evenodd" clip-rule="evenodd" d="M25.9485 0.392464C14.5726 2.47982 5.01233 11.0917 1.67605 22.2574C0.680735 25.588 0.335627 27.9692 0.333017 31.5219C0.321416 47.022 11.5307 60.2695 26.7217 62.7088C29.1401 63.0971 33.8736 63.0971 36.292 62.7088C49.6247 60.5677 60.2623 49.8098 62.3794 36.3263C62.7633 33.8805 62.7633 29.0934 62.3794 26.6477C60.2927 13.3574 49.9536 2.6995 36.9066 0.388651C33.9726 -0.131062 28.7912 -0.129302 25.9485 0.392464ZM45.7655 19.4951C46.2397 20.2272 46.2208 20.5542 45.3473 26.7541C44.0913 35.6693 42.4745 44.6804 41.9458 45.7148C41.3722 46.8361 40.5378 47.2658 39.4166 47.0168C38.9207 46.9068 35.9881 45.0904 32.8998 42.9808C27.2559 39.1255 26.7205 38.5961 27.1335 37.2801C27.2292 36.9748 29.3617 34.7563 31.8723 32.3498C37.0536 27.3838 37.8619 26.4943 37.5927 26.054C37.3369 25.6352 35.9693 26.4605 28.5792 31.492C25.0034 33.9269 22.0514 35.7344 21.474 35.8429C19.7104 36.1741 12.753 34.1603 12.394 33.2145C12.3 32.9669 12.3476 32.529 12.4999 32.2416C12.8426 31.5937 33.3009 22.5521 40.7872 19.7397C44.0585 18.5112 45.095 18.4601 45.7655 19.4951Z" fill="#6B4949"/>
</svg>
