<svg width="63" height="63" viewBox="0 0 63 63" fill="none" xmlns="http://www.w3.org/2000/svg">
<path fill-rule="evenodd" clip-rule="evenodd" d="M25.6154 0.392464C14.2395 2.47982 4.67932 11.0917 1.34305 22.2574C0.347731 25.588 0.00261909 27.9692 8.99565e-06 31.5219C-0.0115914 47.022 11.1976 60.2695 26.3886 62.7088C28.807 63.0971 33.5406 63.0971 35.9589 62.7088C49.2916 60.5677 59.9292 49.8098 62.0462 36.3263C62.4302 33.8805 62.4302 29.0934 62.0462 26.6477C59.9596 13.3574 49.6205 2.6995 36.5735 0.388651C33.6394 -0.131062 28.4581 -0.129302 25.6154 0.392464ZM19.2535 22.9589C19.6465 27.3439 21.0959 31.1992 23.2333 33.5441C24.3757 34.7976 26.2242 36.033 26.957 36.033C27.158 36.033 27.2586 33.4904 27.2586 28.4074V20.7818H30.1587H33.0588V25.1812C33.0588 27.6009 33.1047 29.5806 33.1606 29.5806C33.7566 29.5806 35.5254 28.6954 36.7208 27.7985C38.3527 26.5743 40.401 23.718 40.9318 21.9262L41.2711 20.7818H44.1251C47.4616 20.7818 47.4494 20.7648 46.2502 23.7848C45.3225 26.1209 43.0474 29.1949 41.1797 30.6352C40.3819 31.2506 39.7291 31.8377 39.7291 31.9401C39.7291 32.0425 40.0226 32.2618 40.3816 32.4278C42.6805 33.491 46.0861 37.2892 47.4271 40.2857C48.7623 43.2691 48.9114 43.072 45.3193 43.072H42.1701L41.3784 41.4395C39.8877 38.3658 36.9163 35.8922 34.0014 35.2986L33.0588 35.1065V39.0894V43.072H31.3376C24.6001 43.072 18.7834 39.4293 15.8383 33.3655C14.1354 29.8589 13.0728 25.476 13.0539 21.8817L13.0481 20.7818H16.0532H19.0583L19.2535 22.9589Z" fill="#6B4949"/>
</svg>
